VelekaWorld-Regular.ufo
<glyph name="numbersign" format="2">
  <advance width="743"/>
  <unicode hex="0023"/>
  <outline>
    <contour>
      <point x="62" y="228" type="line"/>
      <point x="62" y="278" type="line"/>
      <point x="220" y="278" type="line"/>
      <point x="269" y="421" type="line"/>
      <point x="107" y="421" type="line"/>
      <point x="107" y="472" type="line"/>
      <point x="286" y="472" type="line"/>
      <point x="366" y="708" type="line"/>
      <point x="417" y="692" type="line"/>
      <point x="340" y="472" type="line"/>
      <point x="486" y="472" type="line"/>
      <point x="565" y="708" type="line"/>
      <point x="618" y="692" type="line"/>
      <point x="542" y="472" type="line"/>
      <point x="682" y="472" type="line"/>
      <point x="682" y="421" type="line"/>
      <point x="524" y="421" type="line"/>
      <point x="477" y="278" type="line"/>
      <point x="638" y="278" type="line"/>
      <point x="638" y="228" type="line"/>
      <point x="459" y="228" type="line"/>
      <point x="375" y="-23" type="line"/>
      <point x="325" y="-7" type="line"/>
      <point x="403" y="228" type="line"/>
      <point x="258" y="228" type="line"/>
      <point x="173" y="-23" type="line"/>
      <point x="124" y="-6" type="line"/>
      <point x="204" y="228" type="line"/>
    </contour>
    <contour>
      <point x="275" y="278" type="line"/>
      <point x="420" y="278" type="line"/>
      <point x="469" y="421" type="line"/>
      <point x="324" y="421" type="line"/>
    </contour>
  </outline>
</glyph>
<glyph name="percent" format="2">
  <advance width="859"/>
  <unicode hex="0025"/>
  <outline>
    <contour>
      <point x="30" y="475" type="curve" smooth="yes"/>
      <point x="30" y="588"/>
      <point x="72" y="686"/>
      <point x="184" y="686" type="curve" smooth="yes"/>
      <point x="296" y="686"/>
      <point x="337" y="588"/>
      <point x="337" y="476" type="curve" smooth="yes"/>
      <point x="337" y="364"/>
      <point x="295" y="265"/>
      <point x="184" y="265" type="curve" smooth="yes"/>
      <point x="72" y="265"/>
      <point x="30" y="363"/>
    </contour>
    <contour>
      <point x="106" y="475" type="curve" smooth="yes"/>
      <point x="106" y="400"/>
      <point x="114" y="304"/>
      <point x="185" y="304" type="curve" smooth="yes"/>
      <point x="255" y="304"/>
      <point x="261" y="403"/>
      <point x="261" y="476" type="curve" smooth="yes"/>
      <point x="261" y="549"/>
      <point x="254" y="647"/>
      <point x="185" y="647" type="curve" smooth="yes"/>
      <point x="114" y="647"/>
      <point x="106" y="549"/>
    </contour>
    <contour>
      <point x="185" y="-1" type="line"/>
      <point x="610" y="670" type="line"/>
      <point x="672" y="670" type="line"/>
      <point x="248" y="-1" type="line"/>
    </contour>
    <contour>
      <point x="518" y="193" type="curve" smooth="yes"/>
      <point x="518" y="304"/>
      <point x="562" y="403"/>
      <point x="673" y="403" type="curve" smooth="yes"/>
      <point x="784" y="403"/>
      <point x="826" y="305"/>
      <point x="826" y="193" type="curve" smooth="yes"/>
      <point x="826" y="84"/>
      <point x="781" y="-17"/>
      <point x="671" y="-17" type="curve" smooth="yes"/>
      <point x="559" y="-17"/>
      <point x="518" y="80"/>
    </contour>
    <contour>
      <point x="594" y="193" type="curve" smooth="yes"/>
      <point x="594" y="118"/>
      <point x="602" y="20"/>
      <point x="673" y="20" type="curve" smooth="yes"/>
      <point x="744" y="20"/>
      <point x="749" y="120"/>
      <point x="749" y="193" type="curve" smooth="yes"/>
      <point x="749" y="266"/>
      <point x="743" y="365"/>
      <point x="673" y="365" type="curve" smooth="yes"/>
      <point x="602" y="365"/>
      <point x="594" y="266"/>
    </contour>
  </outline>
</glyph>
<glyph name="parenleft" format="2">
  <advance width="375"/>
  <unicode hex="0028"/>
  <outline>
    <contour>
      <point x="343" y="-142" type="line"/>
      <point x="157.248" y="-120.464"/>
      <point x="59" y="28.2923"/>
      <point x="59" y="288" type="curve" smooth="yes"/>
      <point x="59" y="545.465"/>
      <point x="158.748" y="696.141"/>
      <point x="343" y="717" type="curve"/>
      <point x="343" y="673" type="line"/>
      <point x="212.305" y="650.807"/>
      <point x="152" y="529.249"/>
      <point x="152" y="288" type="curve" smooth="yes"/>
      <point x="152" y="46.3351"/>
      <point x="212.45" y="-75.8312"/>
      <point x="343" y="-98" type="curve"/>
    </contour>
  </outline>
</glyph>
<glyph name="parenright" format="2">
  <advance width="375"/>
  <unicode hex="0029"/>
  <outline>
    <contour>
      <point x="34" y="-142" type="curve"/>
      <point x="34" y="-98" type="line"/>
      <point x="165.165" y="-76.0135"/>
      <point x="224" y="43.8244"/>
      <point x="224" y="289" type="curve" smooth="yes"/>
      <point x="224" y="531.092"/>
      <point x="164.402" y="651.856"/>
      <point x="34" y="674" type="curve"/>
      <point x="34" y="718" type="line"/>
      <point x="219.134" y="696.431"/>
      <point x="318" y="547.088"/>
      <point x="318" y="289" type="curve" smooth="yes"/>
      <point x="318" y="28.4278"/>
      <point x="219.902" y="-120.446"/>
    </contour>
  </outline>
</glyph>
<glyph name="period" format="2">
  <advance width="279"/>
  <unicode hex="002E"/>
  <outline>
    <contour>
      <point x="61" y="54.8223" type="curve" smooth="yes"/>
      <point x="61" y="92.7847"/>
      <point x="90.2153" y="122"/>
      <point x="127.947" y="122" type="curve" smooth="yes"/>
      <point x="165.721" y="122"/>
      <point x="195" y="92.7206"/>
      <point x="195" y="55" type="curve" smooth="yes"/>
      <point x="195" y="17.2794"/>
      <point x="165.721" y="-12"/>
      <point x="127.77" y="-12" type="curve" smooth="yes"/>
      <point x="90" y="-12"/>
      <point x="61" y="17"/>
    </contour>
  </outline>
</glyph>
<glyph name="three" format="2">
  <advance width="562"/>
  <unicode hex="0033"/>
  <outline>
    <contour>
      <point x="47" y="101" type="curve" smooth="yes"/>
      <point x="47" y="134"/>
      <point x="72" y="155"/>
      <point x="106" y="155" type="curve" smooth="yes"/>
      <point x="116" y="155"/>
      <point x="134" y="152"/>
      <point x="140" y="148" type="curve"/>
      <point x="170" y="59" type="line"/>
      <point x="194" y="43"/>
      <point x="222" y="33"/>
      <point x="257" y="33" type="curve" smooth="yes"/>
      <point x="348.263" y="33"/>
      <point x="413" y="100.785"/>
      <point x="413" y="191" type="curve" smooth="yes"/>
      <point x="413" y="278"/>
      <point x="348" y="317"/>
      <point x="263" y="317" type="curve" smooth="yes"/>
      <point x="241" y="317"/>
      <point x="221" y="315"/>
      <point x="202" y="313" type="curve"/>
      <point x="202" y="375" type="line"/>
      <point x="207" y="374"/>
      <point x="221" y="374"/>
      <point x="227" y="374" type="curve" smooth="yes"/>
      <point x="315.642" y="374"/>
      <point x="387" y="413.17"/>
      <point x="387" y="501" type="curve" smooth="yes"/>
      <point x="387" y="580"/>
      <point x="334" y="632"/>
      <point x="256" y="632" type="curve" smooth="yes"/>
      <point x="219" y="632"/>
      <point x="188" y="620"/>
      <point x="167" y="604" type="curve"/>
      <point x="167" y="504" type="line"/>
      <point x="156.573" y="498.787"/>
      <point x="140.299" y="491"/>
      <point x="121" y="491" type="curve" smooth="yes"/>
      <point x="87" y="491"/>
      <point x="63" y="511"/>
      <point x="63" y="547" type="curve" smooth="yes"/>
      <point x="63" y="642.149"/>
      <point x="186.461" y="687"/>
      <point x="285" y="687" type="curve" smooth="yes"/>
      <point x="398.714" y="687"/>
      <point x="490" y="627.551"/>
      <point x="490" y="516" type="curve" smooth="yes"/>
      <point x="490" y="420.077"/>
      <point x="420.045" y="371.912"/>
      <point x="336" y="347" type="curve"/>
      <point x="336" y="351" type="line"/>
      <point x="441.229" y="351"/>
      <point x="516" y="283.706"/>
      <point x="516" y="189" type="curve" smooth="yes"/>
      <point x="516" y="53.7687"/>
      <point x="390.011" y="-18"/>
      <point x="254" y="-18" type="curve" smooth="yes"/>
      <point x="163.039" y="-18"/>
      <point x="47" y="16.2235"/>
    </contour>
  </outline>
</glyph>
<glyph name="six" format="2">
  <advance width="562"/>
  <unicode hex="0036"/>
  <outline>
    <contour>
      <point x="39" y="287" type="curve" smooth="yes"/>
      <point x="39" y="537.408"/>
      <point x="189.216" y="688"/>
      <point x="439" y="688" type="curve"/>
      <point x="439" y="626" type="line"/>
      <point x="405" y="628" type="line"/>
      <point x="269.366" y="628"/>
      <point x="166.14" y="526.368"/>
      <point x="146" y="373" type="curve"/>
      <point x="198.261" y="417.308"/>
      <point x="247.81" y="436"/>
      <point x="313" y="436" type="curve" smooth="yes"/>
      <point x="437.909" y="436"/>
      <point x="521" y="352.909"/>
      <point x="521" y="228" type="curve" smooth="yes"/>
      <point x="521" y="82.8026"/>
      <point x="422.012" y="-17"/>
      <point x="278" y="-17" type="curve" smooth="yes"/>
      <point x="122.04" y="-17"/>
      <point x="39" y="88.6237"/>
    </contour>
    <contour>
      <point x="145" y="267" type="line" smooth="yes"/>
      <point x="145" y="114.754"/>
      <point x="191.025" y="36"/>
      <point x="280" y="36" type="curve" smooth="yes"/>
      <point x="369.167" y="36"/>
      <point x="421" y="102.17"/>
      <point x="421" y="216" type="curve" smooth="yes"/>
      <point x="421" y="315.5"/>
      <point x="369.933" y="372"/>
      <point x="280" y="372" type="curve" smooth="yes"/>
      <point x="234.75" y="372"/>
      <point x="190.925" y="355.769"/>
      <point x="145" y="322" type="curve"/>
    </contour>
  </outline>
</glyph>
<glyph name="at" format="2">
  <advance width="936"/>
  <unicode hex="0040"/>
  <outline>
    <contour>
      <point x="74" y="240" type="curve" smooth="yes"/>
      <point x="74" y="513"/>
      <point x="254" y="692"/>
      <point x="523" y="692" type="curve" smooth="yes"/>
      <point x="728" y="692"/>
      <point x="864" y="579"/>
      <point x="864" y="375" type="curve" smooth="yes"/>
      <point x="864" y="215"/>
      <point x="777" y="57"/>
      <point x="631" y="57" type="curve" smooth="yes"/>
      <point x="573" y="57"/>
      <point x="541" y="85"/>
      <point x="541" y="140" type="curve"/>
      <point x="503" y="101"/>
      <point x="458" y="58"/>
      <point x="396" y="58" type="curve" smooth="yes"/>
      <point x="310" y="58"/>
      <point x="271" y="134"/>
      <point x="271" y="221" type="curve" smooth="yes"/>
      <point x="271" y="367"/>
      <point x="376" y="493"/>
      <point x="520" y="493" type="curve" smooth="yes"/>
      <point x="558" y="493"/>
      <point x="592" y="480"/>
      <point x="618" y="466" type="curve"/>
      <point x="636" y="489" type="line"/>
      <point x="692" y="489" type="line"/>
      <point x="682" y="459"/>
      <point x="673.478" y="421.898"/>
      <point x="666" y="387" type="curve" smooth="yes"/>
      <point x="624" y="191" type="line" smooth="yes"/>
      <point x="621.659" y="180.073"/>
      <point x="620" y="168"/>
      <point x="620" y="160" type="curve" smooth="yes"/>
      <point x="620" y="131"/>
      <point x="632" y="113"/>
      <point x="661" y="113" type="curve" smooth="yes"/>
      <point x="762" y="113"/>
      <point x="813" y="263"/>
      <point x="813" y="372" type="curve" smooth="yes"/>
      <point x="813" y="542"/>
      <point x="700" y="648"/>
      <point x="534" y="648" type="curve" smooth="yes"/>
      <point x="301" y="648"/>
      <point x="145" y="491"/>
      <point x="145" y="258" type="curve" smooth="yes"/>
      <point x="145" y="41"/>
      <point x="277" y="-101"/>
      <point x="494" y="-101" type="curve" smooth="yes"/>
      <point x="604" y="-101"/>
      <point x="688" y="-67"/>
      <point x="758" y="-27" type="curve"/>
      <point x="772" y="-64" type="line"/>
      <point x="688" y="-109"/>
      <point x="597" y="-152"/>
      <point x="471" y="-152" type="curve" smooth="yes"/>
      <point x="235" y="-152"/>
      <point x="74" y="4"/>
    </contour>
    <contour>
      <point x="363" y="231" type="curve" smooth="yes"/>
      <point x="363" y="168"/>
      <point x="383" y="123"/>
      <point x="441" y="123" type="curve" smooth="yes"/>
      <point x="489" y="123"/>
      <point x="521" y="161"/>
      <point x="543" y="188" type="curve"/>
      <point x="583" y="395" type="line" smooth="yes"/>
      <point x="583.781" y="399.042"/>
      <point x="584" y="403"/>
      <point x="584" y="406" type="curve" smooth="yes"/>
      <point x="584" y="435"/>
      <point x="560" y="451"/>
      <point x="525" y="451" type="curve" smooth="yes"/>
      <point x="415" y="451"/>
      <point x="363" y="342"/>
    </contour>
  </outline>
</glyph>
<glyph name="M" format="2">
  <advance width="875"/>
  <unicode hex="004D"/>
  <outline>
    <contour>
      <point x="29" y="0" type="line"/>
      <point x="29" y="43" type="line"/>
      <point x="86" y="47" type="line" smooth="yes"/>
      <point x="98" y="48"/>
      <point x="107" y="57"/>
      <point x="107" y="69" type="curve" smooth="yes"/>
      <point x="107" y="602" type="line" smooth="yes"/>
      <point x="107" y="614"/>
      <point x="98" y="623"/>
      <point x="86" y="624" type="curve" smooth="yes"/>
      <point x="29" y="628" type="line"/>
      <point x="29" y="671" type="line"/>
      <point x="253" y="671" type="line"/>
      <point x="253" y="644" type="line"/>
      <point x="434" y="153" type="line"/>
      <point x="615" y="641" type="line"/>
      <point x="615" y="671" type="line"/>
      <point x="845" y="671" type="line"/>
      <point x="845" y="628" type="line"/>
      <point x="791" y="624" type="line" smooth="yes"/>
      <point x="779" y="623"/>
      <point x="769" y="614"/>
      <point x="769" y="602" type="curve" smooth="yes"/>
      <point x="769" y="69" type="line" smooth="yes"/>
      <point x="769" y="57"/>
      <point x="779" y="48"/>
      <point x="791" y="47" type="curve" smooth="yes"/>
      <point x="845" y="43" type="line"/>
      <point x="845" y="0" type="line"/>
      <point x="593" y="0" type="line"/>
      <point x="593" y="43" type="line"/>
      <point x="646" y="47" type="line" smooth="yes"/>
      <point x="658" y="48"/>
      <point x="668" y="57"/>
      <point x="668" y="69" type="curve" smooth="yes"/>
      <point x="668" y="620" type="line"/>
      <point x="438" y="0" type="line"/>
      <point x="388" y="0" type="line"/>
      <point x="166" y="611" type="line"/>
      <point x="166" y="69" type="line" smooth="yes"/>
      <point x="166" y="57"/>
      <point x="176" y="48"/>
      <point x="188" y="47" type="curve" smooth="yes"/>
      <point x="245" y="43" type="line"/>
      <point x="245" y="0" type="line"/>
    </contour>
  </outline>
</glyph>
<glyph name="bracketleft" format="2">
  <advance width="422"/>
  <unicode hex="005B"/>
  <outline>
    <contour>
      <point x="136" y="-132" type="line"/>
      <point x="136" y="708" type="line"/>
      <point x="379" y="708" type="line"/>
      <point x="379" y="663" type="line"/>
      <point x="223" y="663" type="line"/>
      <point x="223" y="-86" type="line"/>
      <point x="379" y="-86" type="line"/>
      <point x="379" y="-132" type="line"/>
    </contour>
  </outline>
</glyph>
<glyph name="asciicircum" format="2">
  <advance width="327"/>
  <unicode hex="005E"/>
  <outline>
    <contour>
      <point x="0" y="551" type="line"/>
      <point x="126" y="720" type="line"/>
      <point x="202" y="720" type="line"/>
      <point x="328" y="551" type="line"/>
      <point x="268" y="551" type="line"/>
      <point x="165" y="650" type="line"/>
      <point x="61" y="551" type="line"/>
    </contour>
  </outline>
</glyph>
<glyph name="f" format="2">
  <advance width="326"/>
  <unicode hex="0066"/>
  <outline>
    <contour>
      <point x="29" y="0" type="line"/>
      <point x="29" y="39" type="line"/>
      <point x="78" y="43" type="line" smooth="yes"/>
      <point x="89" y="44"/>
      <point x="99" y="52"/>
      <point x="99" y="63" type="curve" smooth="yes"/>
      <point x="99" y="421" type="line"/>
      <point x="35" y="421" type="line"/>
      <point x="35" y="456" type="line"/>
      <point x="99" y="474" type="line"/>
      <point x="99" y="563"/>
      <point x="125" y="626"/>
      <point x="167" y="673" type="curve" smooth="yes"/>
      <point x="198" y="707"/>
      <point x="242" y="735"/>
      <point x="303" y="735" type="curve" smooth="yes"/>
      <point x="346" y="735"/>
      <point x="390" y="717"/>
      <point x="390" y="676" type="curve" smooth="yes"/>
      <point x="390" y="649.607"/>
      <point x="374.971" y="632.291"/>
      <point x="344" y="623" type="curve"/>
      <point x="251" y="688" type="line"/>
      <point x="207" y="664"/>
      <point x="192" y="607"/>
      <point x="192" y="536" type="curve" smooth="yes"/>
      <point x="192" y="472" type="line"/>
      <point x="316" y="472" type="line"/>
      <point x="316" y="421" type="line"/>
      <point x="192" y="421" type="line"/>
      <point x="192" y="63" type="line" smooth="yes"/>
      <point x="192" y="52"/>
      <point x="202" y="44"/>
      <point x="213" y="43" type="curve" smooth="yes"/>
      <point x="272" y="39" type="line"/>
      <point x="272" y="0" type="line"/>
    </contour>
  </outline>
</glyph>
<glyph name="z" format="2">
  <advance width="461"/>
  <unicode hex="007A"/>
  <outline>
    <contour>
      <point x="34" y="0" type="line"/>
      <point x="34" y="53" type="line"/>
      <point x="300" y="435" type="line"/>
      <point x="126" y="435" type="line" smooth="yes"/>
      <point x="116" y="435"/>
      <point x="107" y="423"/>
      <point x="106" y="414" type="curve" smooth="yes"/>
      <point x="96" y="340" type="line"/>
      <point x="45" y="340" type="line"/>
      <point x="45" y="482" type="line"/>
      <point x="415" y="482" type="line"/>
      <point x="415" y="441" type="line"/>
      <point x="141" y="48" type="line"/>
      <point x="343" y="48" type="line" smooth="yes"/>
      <point x="354" y="48"/>
      <point x="362" y="63"/>
      <point x="364" y="72" type="curve"/>
      <point x="374" y="151" type="line"/>
      <point x="428" y="151" type="line"/>
      <point x="428" y="0" type="line"/>
    </contour>
  </outline>
</glyph>
<glyph name="asciitilde" format="2">
  <advance width="833"/>
  <unicode hex="007E"/>
  <outline>
    <contour>
      <point x="85" y="225" type="curve"/>
      <point x="85" y="290" type="line"/>
      <point x="140.223" y="328.349"/>
      <point x="199.536" y="361"/>
      <point x="276" y="361" type="curve" smooth="yes"/>
      <point x="330" y="361"/>
      <point x="378.796" y="343.401"/>
      <point x="422" y="327" type="curve" smooth="yes"/>
      <point x="463.39" y="311.287"/>
      <point x="510" y="294"/>
      <point x="561" y="294" type="curve" smooth="yes"/>
      <point x="636.996" y="294"/>
      <point x="688.539" y="328.616"/>
      <point x="747" y="371" type="curve"/>
      <point x="747" y="306" type="line"/>
      <point x="693.718" y="270.514"/>
      <point x="642.447" y="237"/>
      <point x="558" y="237" type="curve" smooth="yes"/>
      <point x="505" y="237"/>
      <point x="458.601" y="253.927"/>
      <point x="417" y="271" type="curve" smooth="yes"/>
      <point x="373.362" y="288.909"/>
      <point x="325" y="304"/>
      <point x="269" y="304" type="curve" smooth="yes"/>
      <point x="199.33" y="304"/>
      <point x="133.415" y="261.678"/>
    </contour>
  </outline>
</glyph>
<glyph name="brokenbar" format="2">
  <advance width="345"/>
  <unicode hex="00A6"/>
  <outline>
    <contour>
      <point x="147" y="-198" type="line"/>
      <point x="147" y="202" type="line"/>
      <point x="198" y="202" type="line"/>
      <point x="198" y="-198" type="line"/>
    </contour>
    <contour>
      <point x="147" y="336" type="line"/>
      <point x="147" y="736" type="line"/>
      <point x="198" y="736" type="line"/>
      <point x="198" y="336" type="line"/>
    </contour>
  </outline>
</glyph>
<glyph name="section" format="2">
  <advance width="500"/>
  <unicode hex="00A7"/>
  <outline>
    <contour>
      <point x="60" y="303" type="curve" smooth="yes"/>
      <point x="60" y="393"/>
      <point x="115" y="432"/>
      <point x="178" y="460" type="curve"/>
      <point x="130" y="484"/>
      <point x="78" y="518"/>
      <point x="78" y="588" type="curve" smooth="yes"/>
      <point x="78" y="696"/>
      <point x="161" y="735"/>
      <point x="272" y="735" type="curve" smooth="yes"/>
      <point x="323" y="735"/>
      <point x="375" y="726"/>
      <point x="411" y="711" type="curve"/>
      <point x="411" y="581" type="line"/>
      <point x="364" y="581" type="line"/>
      <point x="354" y="662" type="line"/>
      <point x="328" y="677"/>
      <point x="299" y="691"/>
      <point x="259" y="691" type="curve" smooth="yes"/>
      <point x="204.55" y="691"/>
      <point x="160" y="661.31"/>
      <point x="160" y="605" type="curve" smooth="yes"/>
      <point x="160" y="578.863"/>
      <point x="177.353" y="553.228"/>
      <point x="204" y="540" type="curve" smooth="yes"/>
      <point x="278" y="503.266" type="line" smooth="yes"/>
      <point x="383.428" y="450.93"/>
      <point x="441" y="386.906"/>
      <point x="441" y="322" type="curve" smooth="yes"/>
      <point x="441" y="238.677"/>
      <point x="381.091" y="185.036"/>
      <point x="321" y="161" type="curve"/>
      <point x="371.889" y="137.417"/>
      <point x="424" y="101.315"/>
      <point x="424" y="29" type="curve" smooth="yes"/>
      <point x="424" y="-72.5861"/>
      <point x="338.819" y="-124"/>
      <point x="237" y="-124" type="curve" smooth="yes"/>
      <point x="178" y="-124"/>
      <point x="124" y="-110"/>
      <point x="83" y="-92" type="curve"/>
      <point x="83" y="39" type="line"/>
      <point x="133" y="39" type="line"/>
      <point x="148" y="-51" type="line"/>
      <point x="170" y="-66"/>
      <point x="206" y="-77"/>
      <point x="242" y="-77" type="curve" smooth="yes"/>
      <point x="298" y="-77"/>
      <point x="345" y="-52"/>
      <point x="345" y="4" type="curve" smooth="yes"/>
      <point x="345" y="37.8633"/>
      <point x="320.377" y="65.8686"/>
      <point x="263" y="97.2621" type="curve"/>
      <point x="215" y="121.878" type="line" smooth="yes"/>
      <point x="102.617" y="179.513"/>
      <point x="60" y="229.312"/>
    </contour>
    <contour>
      <point x="135" y="328" type="curve" smooth="yes"/>
      <point x="135" y="292"/>
      <point x="149.627" y="270.671"/>
      <point x="170" y="251" type="curve" smooth="yes"/>
      <point x="199" y="223"/>
      <point x="236" y="203"/>
      <point x="279" y="183" type="curve"/>
      <point x="314.318" y="203.013"/>
      <point x="363" y="244"/>
      <point x="363" y="300" type="curve" smooth="yes"/>
      <point x="363" y="322.527"/>
      <point x="351.046" y="354.956"/>
      <point x="327" y="378" type="curve" smooth="yes"/>
      <point x="303" y="401"/>
      <point x="269" y="422"/>
      <point x="225" y="440" type="curve"/>
      <point x="179.342" y="424.02"/>
      <point x="135" y="387.222"/>
    </contour>
  </outline>
</glyph>
<glyph name="guillemotleft" format="2">
  <advance width="441"/>
  <unicode hex="00AB"/>
  <outline>
    <contour>
      <point x="27" y="215" type="line"/>
      <point x="27" y="266" type="line"/>
      <point x="188" y="482" type="line"/>
      <point x="237" y="482" type="line"/>
      <point x="112" y="241" type="line"/>
      <point x="237" y="0" type="line"/>
      <point x="188" y="0" type="line"/>
    </contour>
    <contour>
      <point x="212" y="215" type="line"/>
      <point x="212" y="266" type="line"/>
      <point x="374" y="482" type="line"/>
      <point x="422" y="482" type="line"/>
      <point x="298" y="241" type="line"/>
      <point x="422" y="0" type="line"/>
      <point x="374" y="0" type="line"/>
    </contour>
  </outline>
</glyph>
<glyph name="uni00B2" format="2">
  <advance width="366"/>
  <unicode hex="00B2"/>
  <outline>
    <contour>
      <point x="31" y="384" type="line"/>
      <point x="31" y="424" type="line"/>
      <point x="66.6866" y="446" type="line" smooth="yes"/>
      <point x="143.854" y="495.21"/>
      <point x="257" y="579.884"/>
      <point x="257" y="673" type="curve" smooth="yes"/>
      <point x="257" y="729"/>
      <point x="219" y="761"/>
      <point x="164" y="761" type="curve" smooth="yes"/>
      <point x="147" y="761"/>
      <point x="121" y="754"/>
      <point x="110" y="747" type="curve"/>
      <point x="110" y="681" type="line"/>
      <point x="103" y="674"/>
      <point x="92" y="670"/>
      <point x="78" y="670" type="curve" smooth="yes"/>
      <point x="57" y="670"/>
      <point x="39" y="684.083"/>
      <point x="39" y="709" type="curve" smooth="yes"/>
      <point x="39" y="771.828"/>
      <point x="117.659" y="794"/>
      <point x="181" y="794" type="curve" smooth="yes"/>
      <point x="259.765" y="794"/>
      <point x="326" y="757.732"/>
      <point x="326" y="680" type="curve" smooth="yes"/>
      <point x="326" y="577.878"/>
      <point x="212.298" y="497.284"/>
      <point x="131.018" y="452" type="curve" smooth="yes"/>
      <point x="99" y="435" type="line"/>
      <point x="292" y="435" type="line"/>
      <point x="303" y="486" type="line"/>
      <point x="335" y="486" type="line"/>
      <point x="335" y="384" type="line"/>
    </contour>
  </outline>
</glyph>
<glyph name="mu" format="2">
  <advance width="546"/>
  <unicode hex="00B5"/>
  <outline>
    <contour>
      <point x="58" y="-167" type="curve" smooth="yes"/>
      <point x="58" y="-125.487"/>
      <point x="63.8083" y="-93.4654"/>
      <point x="71.8055" y="-58.8709" type="curve" smooth="yes"/>
      <point x="81.4656" y="-17.0832"/>
      <point x="90" y="28.9231"/>
      <point x="90" y="101" type="curve" smooth="yes"/>
      <point x="90" y="482" type="line"/>
      <point x="183" y="482" type="line"/>
      <point x="183" y="197" type="line" smooth="yes"/>
      <point x="183" y="124.989"/>
      <point x="185.405" y="51"/>
      <point x="255" y="51" type="curve" smooth="yes"/>
      <point x="305.228" y="51"/>
      <point x="336.811" y="87.4332"/>
      <point x="364" y="121" type="curve"/>
      <point x="364" y="483" type="line"/>
      <point x="457" y="483" type="line"/>
      <point x="457" y="108" type="line" smooth="yes"/>
      <point x="457" y="78.8408"/>
      <point x="462.146" y="45"/>
      <point x="491" y="45" type="curve" smooth="yes"/>
      <point x="520.524" y="45"/>
      <point x="527.286" y="80.5556"/>
      <point x="531" y="109" type="curve"/>
      <point x="551" y="109" type="line"/>
      <point x="547" y="42"/>
      <point x="519" y="-11"/>
      <point x="451" y="-11" type="curve" smooth="yes"/>
      <point x="393" y="-11"/>
      <point x="371" y="33"/>
      <point x="363" y="86" type="curve"/>
      <point x="330.831" y="43.5039"/>
      <point x="286.749" y="-12"/>
      <point x="214" y="-12" type="curve" smooth="yes"/>
      <point x="173" y="-12"/>
      <point x="142" y="5"/>
      <point x="126" y="32" type="curve"/>
      <point x="126" y="8" type="line" smooth="yes"/>
      <point x="126" y="-24.6454"/>
      <point x="131.165" y="-52.9742"/>
      <point x="138.246" y="-80.9157" type="curve" smooth="yes"/>
      <point x="145.081" y="-107.888"/>
      <point x="150" y="-134.925"/>
      <point x="150" y="-165" type="curve" smooth="yes"/>
      <point x="150" y="-195"/>
      <point x="132" y="-222"/>
      <point x="102" y="-222" type="curve" smooth="yes"/>
      <point x="74" y="-222"/>
      <point x="58" y="-195"/>
    </contour>
  </outline>
</glyph>
<glyph name="cedilla" format="2">
  <advance width="229"/>
  <unicode hex="00B8"/>
  <outline>
    <contour>
      <point x="40" y="-185" type="curve"/>
      <point x="40" y="-146" type="line"/>
      <point x="58" y="-150"/>
      <point x="80" y="-154"/>
      <point x="101" y="-154" type="curve" smooth="yes"/>
      <point x="133" y="-154"/>
      <point x="165" y="-145"/>
      <point x="165" y="-113" type="curve" smooth="yes"/>
      <point x="165" y="-87"/>
      <point x="149" y="-76"/>
      <point x="128" y="-76" type="curve" smooth="yes"/>
      <point x="118" y="-76"/>
      <point x="105" y="-78"/>
      <point x="95" y="-82" type="curve"/>
      <point x="95" y="25" type="line"/>
      <point x="135" y="25" type="line"/>
      <point x="135" y="-33" type="line"/>
      <point x="143" y="-30"/>
      <point x="149" y="-29"/>
      <point x="158" y="-29" type="curve" smooth="yes"/>
      <point x="204" y="-29"/>
      <point x="230" y="-54"/>
      <point x="230" y="-100" type="curve" smooth="yes"/>
      <point x="230" y="-165"/>
      <point x="180" y="-195"/>
      <point x="114" y="-195" type="curve" smooth="yes"/>
      <point x="87" y="-195"/>
      <point x="61" y="-191"/>
    </contour>
  </outline>
</glyph>
<glyph name="ordmasculine" format="2">
  <advance width="357"/>
  <unicode hex="00BA"/>
  <outline>
    <contour>
      <point x="22" y="526" type="curve" smooth="yes"/>
      <point x="22" y="619.333"/>
      <point x="86.2111" y="679"/>
      <point x="180" y="679" type="curve" smooth="yes"/>
      <point x="273.162" y="679"/>
      <point x="332" y="619.209"/>
      <point x="332" y="528" type="curve" smooth="yes"/>
      <point x="332" y="437.164"/>
      <point x="268.706" y="376"/>
      <point x="177" y="376" type="curve" smooth="yes"/>
      <point x="83.1283" y="376"/>
      <point x="22" y="432.925"/>
    </contour>
    <contour>
      <point x="26" y="303" type="line"/>
      <point x="26" y="333" type="line"/>
      <point x="331" y="333" type="line"/>
      <point x="331" y="303" type="line"/>
    </contour>
    <contour>
      <point x="92" y="526" type="curve" smooth="yes"/>
      <point x="92" y="462.671"/>
      <point x="116.489" y="403"/>
      <point x="179" y="403" type="curve" smooth="yes"/>
      <point x="241.284" y="403"/>
      <point x="266" y="463.508"/>
      <point x="266" y="526" type="curve" smooth="yes"/>
      <point x="266" y="589.645"/>
      <point x="241.472" y="651"/>
      <point x="179" y="651" type="curve" smooth="yes"/>
      <point x="116" y="651"/>
      <point x="92" y="590"/>
    </contour>
  </outline>
</glyph>
<glyph name="guillemotright" format="2">
  <advance width="441"/>
  <unicode hex="00BB"/>
  <outline>
    <contour>
      <point x="20" y="0" type="line"/>
      <point x="144" y="241" type="line"/>
      <point x="20" y="482" type="line"/>
      <point x="68" y="482" type="line"/>
      <point x="229" y="267" type="line"/>
      <point x="229" y="216" type="line"/>
      <point x="68" y="0" type="line"/>
    </contour>
    <contour>
      <point x="205" y="0" type="line"/>
      <point x="330" y="241" type="line"/>
      <point x="205" y="482" type="line"/>
      <point x="254" y="482" type="line"/>
      <point x="415" y="267" type="line"/>
      <point x="415" y="216" type="line"/>
      <point x="254" y="0" type="line"/>
    </contour>
  </outline>
</glyph>
<glyph name="onequarter" format="2">
  <advance width="875"/>
  <unicode hex="00BC"/>
  <outline>
    <contour>
      <point x="48" y="637" type="line"/>
      <point x="48" y="664" type="line"/>
      <point x="189" y="704" type="line"/>
      <point x="213" y="704" type="line"/>
      <point x="213" y="338" type="line" smooth="yes"/>
      <point x="213" y="331"/>
      <point x="221" y="327"/>
      <point x="228" y="326" type="curve"/>
      <point x="289" y="322" type="line"/>
      <point x="289" y="295" type="line"/>
      <point x="69" y="295" type="line"/>
      <point x="69" y="322" type="line"/>
      <point x="135" y="326" type="line"/>
      <point x="142" y="327"/>
      <point x="149" y="331"/>
      <point x="149" y="338" type="curve" smooth="yes"/>
      <point x="149" y="653" type="line"/>
    </contour>
    <contour>
      <point x="183" y="0" type="line"/>
      <point x="627" y="698" type="line"/>
      <point x="690" y="698" type="line"/>
      <point x="247" y="0" type="line"/>
    </contour>
    <contour>
      <point x="489" y="114" type="line"/>
      <point x="489" y="156" type="line"/>
      <point x="709" y="406" type="line"/>
      <point x="753" y="406" type="line"/>
      <point x="753" y="155" type="line"/>
      <point x="827" y="155" type="line"/>
      <point x="827" y="114" type="line"/>
      <point x="753" y="114" type="line"/>
      <point x="753" y="-21" type="line"/>
      <point x="697" y="-21" type="line"/>
      <point x="697" y="114" type="line"/>
    </contour>
    <contour>
      <point x="541" y="155" type="line"/>
      <point x="697" y="155" type="line"/>
      <point x="697" y="336" type="line"/>
    </contour>
  </outline>
</glyph>
<glyph name="onehalf" format="2">
  <advance width="875"/>
  <unicode hex="00BD"/>
  <outline>
    <contour>
      <point x="46" y="637" type="line"/>
      <point x="46" y="664" type="line"/>
      <point x="187" y="704" type="line"/>
      <point x="211" y="704" type="line"/>
      <point x="211" y="338" type="line" smooth="yes"/>
      <point x="211" y="331"/>
      <point x="218.965" y="326.461"/>
      <point x="226" y="326" type="curve" smooth="yes"/>
      <point x="287" y="322" type="line"/>
      <point x="287" y="295" type="line"/>
      <point x="67" y="295" type="line"/>
      <point x="67" y="322" type="line"/>
      <point x="133" y="326" type="line" smooth="yes"/>
      <point x="140.035" y="326.426"/>
      <point x="147" y="331"/>
      <point x="147" y="338" type="curve" smooth="yes"/>
      <point x="147" y="653" type="line"/>
    </contour>
    <contour>
      <point x="176" y="0" type="line"/>
      <point x="620" y="698" type="line"/>
      <point x="683" y="698" type="line"/>
      <point x="239" y="0" type="line"/>
    </contour>
    <contour>
      <point x="528" y="3" type="line"/>
      <point x="528" y="43" type="line"/>
      <point x="603.756" y="87.47"/>
      <point x="748" y="173.583"/>
      <point x="748" y="292" type="curve" smooth="yes"/>
      <point x="748" y="346"/>
      <point x="717" y="379"/>
      <point x="663" y="379" type="curve" smooth="yes"/>
      <point x="640.25" y="379"/>
      <point x="622.258" y="372.129"/>
      <point x="608" y="365" type="curve"/>
      <point x="608" y="299" type="line"/>
      <point x="602" y="293"/>
      <point x="589" y="289"/>
      <point x="576" y="289" type="curve" smooth="yes"/>
      <point x="555" y="289"/>
      <point x="537" y="301"/>
      <point x="537" y="324" type="curve" smooth="yes"/>
      <point x="537" y="386.691"/>
      <point x="614.768" y="410"/>
      <point x="678" y="410" type="curve" smooth="yes"/>
      <point x="757.708" y="410"/>
      <point x="818" y="373.322"/>
      <point x="818" y="299" type="curve" smooth="yes"/>
      <point x="818" y="183.244"/>
      <point x="670.586" y="96.2864"/>
      <point x="597" y="54" type="curve"/>
      <point x="789" y="54" type="line"/>
      <point x="800" y="106" type="line"/>
      <point x="833" y="106" type="line"/>
      <point x="833" y="3" type="line"/>
    </contour>
  </outline>
</glyph>
<glyph name="threequarters" format="2">
  <advance width="875"/>
  <unicode hex="00BE"/>
  <outline>
    <contour>
      <point x="37" y="356" type="curve" smooth="yes"/>
      <point x="37" y="377"/>
      <point x="53" y="390"/>
      <point x="75" y="390" type="curve" smooth="yes"/>
      <point x="82" y="390"/>
      <point x="94.8236" y="387.441"/>
      <point x="97" y="382" type="curve" smooth="yes"/>
      <point x="117" y="332" type="line"/>
      <point x="133" y="323"/>
      <point x="146" y="319"/>
      <point x="170" y="319" type="curve" smooth="yes"/>
      <point x="225.051" y="319"/>
      <point x="268" y="356.963"/>
      <point x="268" y="412" type="curve" smooth="yes"/>
      <point x="268" y="465"/>
      <point x="226" y="486"/>
      <point x="174" y="486" type="curve" smooth="yes"/>
      <point x="161.435" y="486"/>
      <point x="148.633" y="485.181"/>
      <point x="138" y="484" type="curve"/>
      <point x="138" y="521" type="line"/>
      <point x="141.238" y="521"/>
      <point x="152.167" y="521"/>
      <point x="155" y="521" type="curve" smooth="yes"/>
      <point x="210" y="521"/>
      <point x="253" y="542"/>
      <point x="253" y="597" type="curve" smooth="yes"/>
      <point x="253" y="645"/>
      <point x="219" y="673"/>
      <point x="171" y="673" type="curve" smooth="yes"/>
      <point x="149" y="673"/>
      <point x="127" y="667"/>
      <point x="114" y="659" type="curve"/>
      <point x="114" y="599" type="line"/>
      <point x="108" y="596"/>
      <point x="98" y="591"/>
      <point x="86" y="591" type="curve" smooth="yes"/>
      <point x="64" y="591"/>
      <point x="48" y="603"/>
      <point x="48" y="625" type="curve" smooth="yes"/>
      <point x="48" y="684.111"/>
      <point x="125.461" y="706"/>
      <point x="188" y="706" type="curve" smooth="yes"/>
      <point x="265.06" y="706"/>
      <point x="316" y="677.687"/>
      <point x="316" y="602" type="curve" smooth="yes"/>
      <point x="316" y="549.097"/>
      <point x="265.381" y="504"/>
      <point x="206" y="504" type="curve"/>
      <point x="206" y="508" type="line"/>
      <point x="278.75" y="508"/>
      <point x="333" y="466.137"/>
      <point x="333" y="410" type="curve" smooth="yes"/>
      <point x="333" y="326.848"/>
      <point x="251.867" y="288"/>
      <point x="168" y="288" type="curve" smooth="yes"/>
      <point x="111.465" y="288"/>
      <point x="37" y="304.217"/>
    </contour>
    <contour>
      <point x="194" y="0" type="line"/>
      <point x="638" y="698" type="line"/>
      <point x="701" y="698" type="line"/>
      <point x="257" y="0" type="line"/>
    </contour>
    <contour>
      <point x="497" y="112" type="line"/>
      <point x="497" y="154" type="line"/>
      <point x="717" y="404" type="line"/>
      <point x="761" y="404" type="line"/>
      <point x="761" y="153" type="line"/>
      <point x="835" y="153" type="line"/>
      <point x="835" y="112" type="line"/>
      <point x="761" y="112" type="line"/>
      <point x="761" y="-23" type="line"/>
      <point x="705" y="-23" type="line"/>
      <point x="705" y="112" type="line"/>
    </contour>
    <contour>
      <point x="552" y="155" type="line"/>
      <point x="708" y="155" type="line"/>
      <point x="708" y="336" type="line"/>
    </contour>
  </outline>
</glyph>
<glyph name="Aring" format="2">
  <advance width="673"/>
  <unicode hex="00C5"/>
  <outline>
    <contour>
      <point x="5" y="0" type="line"/>
      <point x="5" y="43" type="line"/>
      <point x="63" y="56" type="line"/>
      <point x="296" y="688" type="line"/>
      <point x="371" y="688" type="line"/>
      <point x="603" y="71" type="line" smooth="yes"/>
      <point x="608.231" y="57.0869"/>
      <point x="611.054" y="53.3018"/>
      <point x="624" y="51" type="curve" smooth="yes"/>
      <point x="669" y="43" type="line"/>
      <point x="669" y="0" type="line"/>
      <point x="431" y="0" type="line"/>
      <point x="431" y="43" type="line"/>
      <point x="489" y="49" type="line" smooth="yes"/>
      <point x="496.712" y="49.7979"/>
      <point x="500" y="54.1426"/>
      <point x="500" y="61" type="curve"/>
      <point x="500" y="62.667"/>
      <point x="499.396" y="64.9492"/>
      <point x="499" y="66" type="curve"/>
      <point x="430" y="249" type="line"/>
      <point x="199" y="249" type="line"/>
      <point x="133" y="69" type="line"/>
      <point x="132.631" y="67.9922"/>
      <point x="132" y="65"/>
      <point x="132" y="63" type="curve"/>
      <point x="132" y="53.9414"/>
      <point x="138.009" y="49.9141"/>
      <point x="147" y="49" type="curve" smooth="yes"/>
      <point x="206" y="43" type="line"/>
      <point x="206" y="0" type="line"/>
    </contour>
    <contour>
      <point x="214" y="798" type="curve" smooth="yes"/>
      <point x="214" y="728"/>
      <point x="265" y="680"/>
      <point x="335" y="680" type="curve" smooth="yes"/>
      <point x="405" y="680"/>
      <point x="456" y="728"/>
      <point x="456" y="798" type="curve" smooth="yes"/>
      <point x="456" y="868"/>
      <point x="406" y="917"/>
      <point x="336" y="917" type="curve" smooth="yes"/>
      <point x="266" y="917"/>
      <point x="214" y="868"/>
    </contour>
    <contour>
      <point x="217" y="296" type="line"/>
      <point x="412" y="296" type="line"/>
      <point x="314" y="558" type="line"/>
    </contour>
    <contour>
      <point x="267" y="798" type="curve" smooth="yes"/>
      <point x="267" y="838"/>
      <point x="295" y="869"/>
      <point x="335" y="869" type="curve" smooth="yes"/>
      <point x="375" y="869"/>
      <point x="403" y="838"/>
      <point x="403" y="798" type="curve" smooth="yes"/>
      <point x="403" y="758"/>
      <point x="375" y="729"/>
      <point x="335" y="729" type="curve" smooth="yes"/>
      <point x="295" y="729"/>
      <point x="267" y="758"/>
    </contour>
  </outline>
</glyph>
<glyph name="Egrave" format="2">
  <advance width="583"/>
  <unicode hex="00C8"/>
  <outline>
    <contour>
      <point x="32" y="0" type="line"/>
      <point x="32" y="43" type="line"/>
      <point x="84" y="47" type="line" smooth="yes"/>
      <point x="96" y="48"/>
      <point x="106" y="57"/>
      <point x="106" y="69" type="curve" smooth="yes"/>
      <point x="106" y="602" type="line" smooth="yes"/>
      <point x="106" y="614"/>
      <point x="96" y="623"/>
      <point x="84" y="624" type="curve" smooth="yes"/>
      <point x="32" y="628" type="line"/>
      <point x="32" y="671" type="line"/>
      <point x="518" y="671" type="line"/>
      <point x="518" y="522" type="line"/>
      <point x="458" y="522" type="line"/>
      <point x="443" y="604" type="line"/>
      <point x="441" y="613"/>
      <point x="435" y="623"/>
      <point x="425" y="623" type="curve" smooth="yes"/>
      <point x="208" y="623" type="line"/>
      <point x="208" y="374" type="line"/>
      <point x="358" y="374" type="line" smooth="yes"/>
      <point x="368" y="374"/>
      <point x="374" y="380"/>
      <point x="376" y="391" type="curve"/>
      <point x="386" y="460" type="line"/>
      <point x="437" y="460" type="line"/>
      <point x="437" y="237" type="line"/>
      <point x="386" y="237" type="line"/>
      <point x="377" y="306" type="line"/>
      <point x="376" y="316"/>
      <point x="370" y="324"/>
      <point x="359" y="324" type="curve" smooth="yes"/>
      <point x="209" y="324" type="line"/>
      <point x="209" y="49" type="line"/>
      <point x="462" y="49" type="line" smooth="yes"/>
      <point x="470" y="49"/>
      <point x="478" y="61"/>
      <point x="479" y="68" type="curve"/>
      <point x="497" y="167" type="line"/>
      <point x="551" y="167" type="line"/>
      <point x="551" y="0" type="line"/>
    </contour>
    <contour>
      <point x="71" y="883" type="curve" smooth="yes"/>
      <point x="71" y="911"/>
      <point x="89" y="928"/>
      <point x="117" y="928" type="curve" smooth="yes"/>
      <point x="147" y="928"/>
      <point x="157" y="917"/>
      <point x="171" y="901" type="curve" smooth="yes"/>
      <point x="304" y="746" type="line"/>
      <point x="247" y="746" type="line"/>
      <point x="95" y="843" type="line"/>
      <point x="82" y="852"/>
      <point x="71" y="862"/>
    </contour>
  </outline>
</glyph>
<glyph name="Ugrave" format="2">
  <advance width="711"/>
  <unicode hex="00D9"/>
  <outline>
    <contour>
      <point x="31" y="628" type="line"/>
      <point x="31" y="671" type="line"/>
      <point x="285" y="671" type="line"/>
      <point x="285" y="628" type="line"/>
      <point x="228" y="624" type="line" smooth="yes"/>
      <point x="216" y="623"/>
      <point x="207" y="614"/>
      <point x="207" y="602" type="curve" smooth="yes"/>
      <point x="207" y="249" type="line" smooth="yes"/>
      <point x="207" y="122"/>
      <point x="248" y="52"/>
      <point x="376" y="52" type="curve" smooth="yes"/>
      <point x="502" y="52"/>
      <point x="547" y="124"/>
      <point x="547" y="249" type="curve" smooth="yes"/>
      <point x="547" y="602" type="line" smooth="yes"/>
      <point x="547" y="614"/>
      <point x="537" y="623"/>
      <point x="525" y="624" type="curve" smooth="yes"/>
      <point x="468" y="628" type="line"/>
      <point x="468" y="671" type="line"/>
      <point x="685" y="671" type="line"/>
      <point x="685" y="628" type="line"/>
      <point x="627" y="624" type="line" smooth="yes"/>
      <point x="615" y="623"/>
      <point x="606" y="614"/>
      <point x="606" y="602" type="curve" smooth="yes"/>
      <point x="606" y="223" type="line" smooth="yes"/>
      <point x="606" y="57"/>
      <point x="515" y="-15"/>
      <point x="349" y="-15" type="curve" smooth="yes"/>
      <point x="187" y="-15"/>
      <point x="105" y="63"/>
      <point x="105" y="223" type="curve" smooth="yes"/>
      <point x="105" y="602" type="line" smooth="yes"/>
      <point x="105" y="614"/>
      <point x="96" y="623"/>
      <point x="84" y="624" type="curve" smooth="yes"/>
    </contour>
    <contour>
      <point x="153.5" y="883" type="curve" smooth="yes"/>
      <point x="153.5" y="911"/>
      <point x="171.5" y="928"/>
      <point x="199.5" y="928" type="curve" smooth="yes"/>
      <point x="229.5" y="928"/>
      <point x="239.5" y="917"/>
      <point x="253.5" y="901" type="curve" smooth="yes"/>
      <point x="386.5" y="746" type="line"/>
      <point x="329.5" y="746" type="line"/>
      <point x="177.5" y="843" type="line"/>
      <point x="164.5" y="852"/>
      <point x="153.5" y="862"/>
    </contour>
  </outline>
</glyph>
<glyph name="aacute" format="2">
  <advance width="508"/>
  <unicode hex="00E1"/>
  <outline>
    <contour>
      <point x="33" y="121" type="curve" smooth="yes"/>
      <point x="33" y="236"/>
      <point x="215" y="278"/>
      <point x="330" y="303" type="curve"/>
      <point x="330" y="346" type="line" smooth="yes"/>
      <point x="330" y="413"/>
      <point x="302" y="447"/>
      <point x="237" y="447" type="curve" smooth="yes"/>
      <point x="210" y="447"/>
      <point x="182" y="440"/>
      <point x="166" y="432" type="curve"/>
      <point x="166" y="345" type="line"/>
      <point x="93" y="345" type="line" smooth="yes"/>
      <point x="71" y="345"/>
      <point x="56" y="351"/>
      <point x="56" y="374" type="curve" smooth="yes"/>
      <point x="56" y="458"/>
      <point x="174" y="495"/>
      <point x="264" y="495" type="curve" smooth="yes"/>
      <point x="370" y="495"/>
      <point x="422" y="448"/>
      <point x="422" y="343" type="curve" smooth="yes"/>
      <point x="422" y="63" type="line" smooth="yes"/>
      <point x="422" y="51"/>
      <point x="432" y="43"/>
      <point x="443" y="42" type="curve"/>
      <point x="491" y="39" type="line"/>
      <point x="491" y="0" type="line"/>
      <point x="343" y="0" type="line"/>
      <point x="330" y="59" type="line"/>
      <point x="284" y="24"/>
      <point x="226" y="-13"/>
      <point x="162" y="-13" type="curve" smooth="yes"/>
      <point x="88" y="-13"/>
      <point x="33" y="44"/>
    </contour>
    <contour>
      <point x="133" y="129" type="curve" smooth="yes"/>
      <point x="133" y="81"/>
      <point x="160" y="45"/>
      <point x="207" y="45" type="curve" smooth="yes"/>
      <point x="249" y="45"/>
      <point x="295" y="68"/>
      <point x="330" y="92" type="curve"/>
      <point x="330" y="265" type="line"/>
      <point x="244" y="244"/>
      <point x="133" y="214"/>
    </contour>
    <contour>
      <point x="161" y="555" type="line"/>
      <point x="293" y="710" type="line"/>
      <point x="305" y="725"/>
      <point x="318" y="737"/>
      <point x="346" y="737" type="curve" smooth="yes"/>
      <point x="375.658" y="737"/>
      <point x="393" y="720.588"/>
      <point x="393" y="692" type="curve" smooth="yes"/>
      <point x="393" y="673"/>
      <point x="381.012" y="658.981"/>
      <point x="370" y="652" type="curve" smooth="yes"/>
      <point x="217" y="555" type="line"/>
    </contour>
  </outline>
</glyph>
<glyph name="atilde" format="2">
  <advance width="508"/>
  <unicode hex="00E3"/>
  <outline>
    <contour>
      <point x="33" y="121" type="curve" smooth="yes"/>
      <point x="33" y="236"/>
      <point x="215" y="278"/>
      <point x="330" y="303" type="curve"/>
      <point x="330" y="346" type="line" smooth="yes"/>
      <point x="330" y="413"/>
      <point x="302" y="447"/>
      <point x="237" y="447" type="curve" smooth="yes"/>
      <point x="210" y="447"/>
      <point x="182" y="440"/>
      <point x="166" y="432" type="curve"/>
      <point x="166" y="345" type="line"/>
      <point x="93" y="345" type="line" smooth="yes"/>
      <point x="71" y="345"/>
      <point x="56" y="351"/>
      <point x="56" y="374" type="curve" smooth="yes"/>
      <point x="56" y="458"/>
      <point x="174" y="495"/>
      <point x="264" y="495" type="curve" smooth="yes"/>
      <point x="370" y="495"/>
      <point x="422" y="448"/>
      <point x="422" y="343" type="curve" smooth="yes"/>
      <point x="422" y="63" type="line" smooth="yes"/>
      <point x="422" y="51"/>
      <point x="432" y="43"/>
      <point x="443" y="42" type="curve"/>
      <point x="491" y="39" type="line"/>
      <point x="491" y="0" type="line"/>
      <point x="343" y="0" type="line"/>
      <point x="330" y="59" type="line"/>
      <point x="284" y="24"/>
      <point x="226" y="-13"/>
      <point x="162" y="-13" type="curve" smooth="yes"/>
      <point x="88" y="-13"/>
      <point x="33" y="44"/>
    </contour>
    <contour>
      <point x="61" y="555" type="line"/>
      <point x="76" y="610"/>
      <point x="106" y="665"/>
      <point x="176" y="665" type="curve" smooth="yes"/>
      <point x="203" y="665"/>
      <point x="221" y="654"/>
      <point x="239" y="643" type="curve" smooth="yes"/>
      <point x="260" y="630"/>
      <point x="281" y="617"/>
      <point x="314" y="617" type="curve" smooth="yes"/>
      <point x="342" y="617"/>
      <point x="364" y="639"/>
      <point x="367" y="665" type="curve"/>
      <point x="407" y="665" type="line"/>
      <point x="392" y="610"/>
      <point x="362" y="555"/>
      <point x="292" y="555" type="curve" smooth="yes"/>
      <point x="265" y="555"/>
      <point x="246" y="566"/>
      <point x="227" y="578" type="curve" smooth="yes"/>
      <point x="207" y="590"/>
      <point x="184" y="603"/>
      <point x="153" y="603" type="curve" smooth="yes"/>
      <point x="125" y="603"/>
      <point x="104" y="580"/>
      <point x="101" y="555" type="curve"/>
    </contour>
    <contour>
      <point x="133" y="129" type="curve" smooth="yes"/>
      <point x="133" y="81"/>
      <point x="160" y="45"/>
      <point x="207" y="45" type="curve" smooth="yes"/>
      <point x="249" y="45"/>
      <point x="295" y="68"/>
      <point x="330" y="92" type="curve"/>
      <point x="330" y="265" type="line"/>
      <point x="244" y="244"/>
      <point x="133" y="214"/>
    </contour>
  </outline>
</glyph>
<glyph name="iacute" format="2">
  <advance width="303"/>
  <unicode hex="00ED"/>
  <outline>
    <contour>
      <point x="34" y="0" type="line"/>
      <point x="34" y="39" type="line"/>
      <point x="83" y="42" type="line"/>
      <point x="94" y="43"/>
      <point x="104" y="51"/>
      <point x="104" y="63" type="curve" smooth="yes"/>
      <point x="104" y="411" type="line"/>
      <point x="35" y="411" type="line"/>
      <point x="35" y="444" type="line"/>
      <point x="157" y="482" type="line"/>
      <point x="197" y="482" type="line"/>
      <point x="197" y="63" type="line" smooth="yes"/>
      <point x="197" y="51"/>
      <point x="207" y="43"/>
      <point x="218" y="42" type="curve"/>
      <point x="269" y="39" type="line"/>
      <point x="269" y="0" type="line"/>
    </contour>
    <contour>
      <point x="42" y="555" type="line"/>
      <point x="174" y="710" type="line"/>
      <point x="186" y="725"/>
      <point x="199" y="737"/>
      <point x="227" y="737" type="curve" smooth="yes"/>
      <point x="256.658" y="737"/>
      <point x="274" y="720.588"/>
      <point x="274" y="692" type="curve" smooth="yes"/>
      <point x="274" y="673"/>
      <point x="262.012" y="658.981"/>
      <point x="251" y="652" type="curve" smooth="yes"/>
      <point x="98" y="555" type="line"/>
    </contour>
  </outline>
</glyph>
<glyph name="ntilde" format="2">
  <advance width="566"/>
  <unicode hex="00F1"/>
  <outline>
    <contour>
      <point x="21" y="411" type="line"/>
      <point x="21" y="444" type="line"/>
      <point x="143" y="482" type="line"/>
      <point x="184" y="482" type="line"/>
      <point x="184" y="432" type="line"/>
      <point x="255.342" y="476.532"/>
      <point x="301.829" y="494"/>
      <point x="349" y="494" type="curve" smooth="yes"/>
      <point x="434.461" y="494"/>
      <point x="483" y="438.216"/>
      <point x="483" y="340" type="curve" smooth="yes"/>
      <point x="483" y="63" type="line" smooth="yes"/>
      <point x="483" y="51"/>
      <point x="493" y="43"/>
      <point x="504" y="42" type="curve" smooth="yes"/>
      <point x="548" y="39" type="line"/>
      <point x="548" y="0" type="line"/>
      <point x="327" y="0" type="line"/>
      <point x="327" y="39" type="line"/>
      <point x="369" y="42" type="line" smooth="yes"/>
      <point x="380" y="43"/>
      <point x="390" y="51"/>
      <point x="390" y="63" type="curve" smooth="yes"/>
      <point x="390" y="324" type="line" smooth="yes"/>
      <point x="390" y="390.349"/>
      <point x="359.665" y="421"/>
      <point x="294" y="421" type="curve" smooth="yes"/>
      <point x="257.155" y="421"/>
      <point x="220.017" y="411.209"/>
      <point x="184" y="392" type="curve"/>
      <point x="184" y="63" type="line" smooth="yes"/>
      <point x="184" y="51"/>
      <point x="194" y="43"/>
      <point x="205" y="42" type="curve" smooth="yes"/>
      <point x="247" y="39" type="line"/>
      <point x="247" y="0" type="line"/>
      <point x="21" y="0" type="line"/>
      <point x="21" y="39" type="line"/>
      <point x="70" y="42" type="line"/>
      <point x="81" y="43"/>
      <point x="91" y="51"/>
      <point x="91" y="63" type="curve" smooth="yes"/>
      <point x="91" y="411" type="line"/>
    </contour>
    <contour>
      <point x="111.5" y="555" type="line"/>
      <point x="126.5" y="610"/>
      <point x="156.5" y="665"/>
      <point x="226.5" y="665" type="curve" smooth="yes"/>
      <point x="253.5" y="665"/>
      <point x="271.5" y="654"/>
      <point x="289.5" y="643" type="curve" smooth="yes"/>
      <point x="310.5" y="630"/>
      <point x="331.5" y="617"/>
      <point x="364.5" y="617" type="curve" smooth="yes"/>
      <point x="392.5" y="617"/>
      <point x="414.5" y="639"/>
      <point x="417.5" y="665" type="curve"/>
      <point x="457.5" y="665" type="line"/>
      <point x="442.5" y="610"/>
      <point x="412.5" y="555"/>
      <point x="342.5" y="555" type="curve" smooth="yes"/>
      <point x="315.5" y="555"/>
      <point x="296.5" y="566"/>
      <point x="277.5" y="578" type="curve" smooth="yes"/>
      <point x="257.5" y="590"/>
      <point x="234.5" y="603"/>
      <point x="203.5" y="603" type="curve" smooth="yes"/>
      <point x="175.5" y="603"/>
      <point x="154.5" y="580"/>
      <point x="151.5" y="555" type="curve"/>
    </contour>
  </outline>
</glyph>
<glyph name="oacute" format="2">
  <advance width="543"/>
  <unicode hex="00F3"/>
  <outline>
    <contour>
      <point x="175" y="555" type="line"/>
      <point x="307" y="710" type="line"/>
      <point x="319" y="725"/>
      <point x="332" y="737"/>
      <point x="360" y="737" type="curve" smooth="yes"/>
      <point x="389.658" y="737"/>
      <point x="407" y="720.588"/>
      <point x="407" y="692" type="curve" smooth="yes"/>
      <point x="407" y="673"/>
      <point x="395.012" y="658.981"/>
      <point x="384" y="652" type="curve" smooth="yes"/>
      <point x="231" y="555" type="line"/>
    </contour>
    <contour>
      <point x="34" y="240" type="curve" smooth="yes"/>
      <point x="34" y="381"/>
      <point x="133" y="495"/>
      <point x="273" y="495" type="curve" smooth="yes"/>
      <point x="413" y="495"/>
      <point x="509" y="381"/>
      <point x="509" y="240" type="curve" smooth="yes"/>
      <point x="509" y="100"/>
      <point x="410" y="-13"/>
      <point x="270" y="-13" type="curve" smooth="yes"/>
      <point x="130" y="-13"/>
      <point x="34" y="100"/>
    </contour>
    <contour>
      <point x="138" y="240" type="curve" smooth="yes"/>
      <point x="138" y="150"/>
      <point x="172" y="34"/>
      <point x="272" y="34" type="curve" smooth="yes"/>
      <point x="372" y="34"/>
      <point x="406" y="150"/>
      <point x="406" y="240" type="curve" smooth="yes"/>
      <point x="406" y="330"/>
      <point x="373" y="450"/>
      <point x="273" y="450" type="curve" smooth="yes"/>
      <point x="173" y="450"/>
      <point x="138" y="330"/>
    </contour>
  </outline>
</glyph>
<glyph name="ugrave" format="2">
  <advance width="568"/>
  <unicode hex="00F9"/>
  <outline>
    <contour>
      <point x="20" y="409" type="line"/>
      <point x="20" y="443" type="line"/>
      <point x="143" y="482" type="line"/>
      <point x="183" y="482" type="line"/>
      <point x="183" y="169" type="line" smooth="yes"/>
      <point x="183" y="98"/>
      <point x="209" y="56"/>
      <point x="280" y="56" type="curve" smooth="yes"/>
      <point x="324" y="56"/>
      <point x="358" y="69"/>
      <point x="389" y="84" type="curve"/>
      <point x="389" y="409" type="line"/>
      <point x="319" y="409" type="line"/>
      <point x="319" y="443" type="line"/>
      <point x="441" y="482" type="line"/>
      <point x="482" y="482" type="line"/>
      <point x="482" y="64" type="line" smooth="yes"/>
      <point x="482" y="52"/>
      <point x="493" y="44"/>
      <point x="504" y="43" type="curve" smooth="yes"/>
      <point x="548" y="39" type="line"/>
      <point x="548" y="0" type="line"/>
      <point x="389" y="0" type="line"/>
      <point x="389" y="56" type="line"/>
      <point x="351" y="27"/>
      <point x="294" y="-12"/>
      <point x="228" y="-12" type="curve" smooth="yes"/>
      <point x="130" y="-12"/>
      <point x="90" y="50"/>
      <point x="90" y="150" type="curve" smooth="yes"/>
      <point x="90" y="409" type="line"/>
    </contour>
    <contour>
      <point x="148.5" y="692" type="curve" smooth="yes"/>
      <point x="148.5" y="720"/>
      <point x="166.5" y="737"/>
      <point x="194.5" y="737" type="curve" smooth="yes"/>
      <point x="224.5" y="737"/>
      <point x="234.5" y="726"/>
      <point x="248.5" y="710" type="curve" smooth="yes"/>
      <point x="381.5" y="555" type="line"/>
      <point x="324.5" y="555" type="line"/>
      <point x="172.5" y="652" type="line"/>
      <point x="159.5" y="661"/>
      <point x="148.5" y="671"/>
    </contour>
  </outline>
</glyph>
<glyph name="thorn" format="2">
  <advance width="559"/>
  <unicode hex="00FE"/>
  <outline>
    <contour>
      <point x="23" y="-177" type="line"/>
      <point x="71" y="-171" type="line" smooth="yes"/>
      <point x="81.9538" y="-169.631"/>
      <point x="92" y="-163"/>
      <point x="92" y="-151" type="curve" smooth="yes"/>
      <point x="92" y="667" type="line"/>
      <point x="23" y="667" type="line"/>
      <point x="23" y="700" type="line"/>
      <point x="146" y="738" type="line"/>
      <point x="185" y="738" type="line"/>
      <point x="185" y="433" type="line"/>
      <point x="220.75" y="462.13"/>
      <point x="270.754" y="494"/>
      <point x="335" y="494" type="curve" smooth="yes"/>
      <point x="460.074" y="494"/>
      <point x="525" y="375.761"/>
      <point x="525" y="248" type="curve" smooth="yes"/>
      <point x="525" y="88.7481"/>
      <point x="433.065" y="-11"/>
      <point x="274" y="-11" type="curve" smooth="yes"/>
      <point x="239" y="-11"/>
      <point x="209.645" y="-7.26041"/>
      <point x="185" y="-2" type="curve"/>
      <point x="185" y="-151" type="line" smooth="yes"/>
      <point x="185" y="-163"/>
      <point x="196.012" y="-169.883"/>
      <point x="207" y="-171" type="curve" smooth="yes"/>
      <point x="266" y="-177" type="line"/>
      <point x="266" y="-216" type="line"/>
      <point x="23" y="-216" type="line"/>
    </contour>
    <contour>
      <point x="183" y="50" type="line"/>
      <point x="206.284" y="42.5"/>
      <point x="232.605" y="35"/>
      <point x="265" y="35" type="curve" smooth="yes"/>
      <point x="374.271" y="35"/>
      <point x="426" y="125.695"/>
      <point x="426" y="235" type="curve" smooth="yes"/>
      <point x="426" y="334.479"/>
      <point x="383.694" y="424"/>
      <point x="285" y="424" type="curve" smooth="yes"/>
      <point x="245.065" y="424"/>
      <point x="208.662" y="409.397"/>
      <point x="183" y="394" type="curve"/>
    </contour>
  </outline>
</glyph>
<glyph name="Aogonek" format="2">
  <advance width="673"/>
  <unicode hex="0104"/>
  <outline>
    <contour>
      <point x="5" y="0" type="line"/>
      <point x="5" y="43" type="line"/>
      <point x="63" y="56" type="line"/>
      <point x="296" y="688" type="line"/>
      <point x="371" y="688" type="line"/>
      <point x="603" y="71" type="line" smooth="yes"/>
      <point x="608.231" y="57.0869"/>
      <point x="611.054" y="53.3018"/>
      <point x="624" y="51" type="curve" smooth="yes"/>
      <point x="669" y="43" type="line"/>
      <point x="669" y="0" type="line"/>
      <point x="431" y="0" type="line"/>
      <point x="431" y="43" type="line"/>
      <point x="489" y="49" type="line" smooth="yes"/>
      <point x="496.712" y="49.7979"/>
      <point x="500" y="54.1426"/>
      <point x="500" y="61" type="curve"/>
      <point x="500" y="62.667"/>
      <point x="499.396" y="64.9492"/>
      <point x="499" y="66" type="curve"/>
      <point x="430" y="249" type="line"/>
      <point x="199" y="249" type="line"/>
      <point x="133" y="69" type="line"/>
      <point x="132.631" y="67.9922"/>
      <point x="132" y="65"/>
      <point x="132" y="63" type="curve"/>
      <point x="132" y="53.9414"/>
      <point x="138.009" y="49.9141"/>
      <point x="147" y="49" type="curve" smooth="yes"/>
      <point x="206" y="43" type="line"/>
      <point x="206" y="0" type="line"/>
    </contour>
    <contour>
      <point x="217" y="296" type="line"/>
      <point x="412" y="296" type="line"/>
      <point x="314" y="558" type="line"/>
    </contour>
    <contour>
      <point x="459" y="-104.566" type="curve" smooth="yes"/>
      <point x="459" y="-52.5664"/>
      <point x="495" y="-13.5664"/>
      <point x="529" y="6.4336" type="curve"/>
      <point x="576" y="6.4336" type="line"/>
      <point x="550" y="-10.5664"/>
      <point x="522" y="-41.5664"/>
      <point x="522" y="-83.5664" type="curve" smooth="yes"/>
      <point x="522" y="-120.566"/>
      <point x="540" y="-136.566"/>
      <point x="572" y="-136.566" type="curve" smooth="yes"/>
      <point x="593" y="-136.566"/>
      <point x="609" y="-127.566"/>
      <point x="622" y="-119.566" type="curve"/>
      <point x="645" y="-158.566" type="line"/>
      <point x="619" y="-177.566"/>
      <point x="589" y="-186.566"/>
      <point x="554" y="-186.566" type="curve" smooth="yes"/>
      <point x="501" y="-186.566"/>
      <point x="459" y="-161.566"/>
    </contour>
  </outline>
</glyph>
<glyph name="Eogonek" format="2">
  <advance width="583"/>
  <unicode hex="0118"/>
  <outline>
    <contour>
      <point x="32" y="0" type="line"/>
      <point x="32" y="43" type="line"/>
      <point x="84" y="47" type="line" smooth="yes"/>
      <point x="96" y="48"/>
      <point x="106" y="57"/>
      <point x="106" y="69" type="curve" smooth="yes"/>
      <point x="106" y="602" type="line" smooth="yes"/>
      <point x="106" y="614"/>
      <point x="96" y="623"/>
      <point x="84" y="624" type="curve" smooth="yes"/>
      <point x="32" y="628" type="line"/>
      <point x="32" y="671" type="line"/>
      <point x="518" y="671" type="line"/>
      <point x="518" y="522" type="line"/>
      <point x="458" y="522" type="line"/>
      <point x="443" y="604" type="line"/>
      <point x="441" y="613"/>
      <point x="435" y="623"/>
      <point x="425" y="623" type="curve" smooth="yes"/>
      <point x="208" y="623" type="line"/>
      <point x="208" y="374" type="line"/>
      <point x="358" y="374" type="line" smooth="yes"/>
      <point x="368" y="374"/>
      <point x="374" y="380"/>
      <point x="376" y="391" type="curve"/>
      <point x="386" y="460" type="line"/>
      <point x="437" y="460" type="line"/>
      <point x="437" y="237" type="line"/>
      <point x="386" y="237" type="line"/>
      <point x="377" y="306" type="line"/>
      <point x="376" y="316"/>
      <point x="370" y="324"/>
      <point x="359" y="324" type="curve" smooth="yes"/>
      <point x="209" y="324" type="line"/>
      <point x="209" y="49" type="line"/>
      <point x="462" y="49" type="line" smooth="yes"/>
      <point x="470" y="49"/>
      <point x="478" y="61"/>
      <point x="479" y="68" type="curve"/>
      <point x="497" y="167" type="line"/>
      <point x="551" y="167" type="line"/>
      <point x="551" y="0" type="line"/>
    </contour>
    <contour>
      <point x="230" y="-104.566" type="curve" smooth="yes"/>
      <point x="230" y="-52.5664"/>
      <point x="266" y="-13.5664"/>
      <point x="300" y="6.4336" type="curve"/>
      <point x="347" y="6.4336" type="line"/>
      <point x="321" y="-10.5664"/>
      <point x="293" y="-41.5664"/>
      <point x="293" y="-83.5664" type="curve" smooth="yes"/>
      <point x="293" y="-120.566"/>
      <point x="311" y="-136.566"/>
      <point x="343" y="-136.566" type="curve" smooth="yes"/>
      <point x="364" y="-136.566"/>
      <point x="380" y="-127.566"/>
      <point x="393" y="-119.566" type="curve"/>
      <point x="416" y="-158.566" type="line"/>
      <point x="390" y="-177.566"/>
      <point x="360" y="-186.566"/>
      <point x="325" y="-186.566" type="curve" smooth="yes"/>
      <point x="272" y="-186.566"/>
      <point x="230" y="-161.566"/>
    </contour>
  </outline>
</glyph>
<glyph name="Gcommaaccent" format="2">
  <advance width="694"/>
  <unicode hex="0122"/>
  <outline>
    <contour>
      <point x="39" y="336" type="curve" smooth="yes"/>
      <point x="39" y="557"/>
      <point x="180" y="686"/>
      <point x="401" y="686" type="curve" smooth="yes"/>
      <point x="460.119" y="686"/>
      <point x="511.697" y="677.053"/>
      <point x="597" y="652" type="curve"/>
      <point x="597" y="490" type="line"/>
      <point x="537" y="490" type="line"/>
      <point x="521" y="580" type="line"/>
      <point x="519" y="594"/>
      <point x="511" y="604"/>
      <point x="499" y="609" type="curve"/>
      <point x="488" y="614" type="line" smooth="yes"/>
      <point x="468" y="623"/>
      <point x="429" y="630"/>
      <point x="398" y="630" type="curve" smooth="yes"/>
      <point x="233" y="630"/>
      <point x="153" y="508"/>
      <point x="153" y="341" type="curve" smooth="yes"/>
      <point x="153" y="166"/>
      <point x="237" y="41"/>
      <point x="410" y="41" type="curve" smooth="yes"/>
      <point x="435" y="41"/>
      <point x="484" y="50"/>
      <point x="497" y="57" type="curve"/>
      <point x="497" y="255" type="line" smooth="yes"/>
      <point x="497" y="268"/>
      <point x="489" y="275"/>
      <point x="476" y="276" type="curve" smooth="yes"/>
      <point x="409" y="281" type="line"/>
      <point x="409" y="324" type="line"/>
      <point x="670" y="324" type="line"/>
      <point x="670" y="281" type="line"/>
      <point x="619" y="276" type="line" smooth="yes"/>
      <point x="606" y="275"/>
      <point x="598" y="268"/>
      <point x="598" y="255" type="curve" smooth="yes"/>
      <point x="598" y="25" type="line"/>
      <point x="539" y="3"/>
      <point x="470" y="-15"/>
      <point x="388" y="-15" type="curve" smooth="yes"/>
      <point x="176" y="-15"/>
      <point x="39" y="127"/>
    </contour>
    <contour>
      <point x="325" y="-122" type="curve" smooth="yes"/>
      <point x="325" y="-93"/>
      <point x="350" y="-75"/>
      <point x="380" y="-75" type="curve" smooth="yes"/>
      <point x="426" y="-75"/>
      <point x="451" y="-108"/>
      <point x="451" y="-157" type="curve" smooth="yes"/>
      <point x="451" y="-232.665"/>
      <point x="392.081" y="-271.153"/>
      <point x="327" y="-282" type="curve"/>
      <point x="327" y="-252" type="line"/>
      <point x="373" y="-238"/>
      <point x="399" y="-219"/>
      <point x="399" y="-159" type="curve"/>
      <point x="340" y="-159" type="line"/>
      <point x="332" y="-151"/>
      <point x="325" y="-138"/>
    </contour>
  </outline>
</glyph>
<glyph name="imacron" format="2">
  <advance width="303"/>
  <unicode hex="012B"/>
  <outline>
    <contour>
      <point x="-17.5" y="555" type="line"/>
      <point x="-17.5" y="618" type="line"/>
      <point x="317.5" y="618" type="line"/>
      <point x="317.5" y="555" type="line"/>
    </contour>
    <contour>
      <point x="34" y="0" type="line"/>
      <point x="34" y="39" type="line"/>
      <point x="83" y="42" type="line"/>
      <point x="94" y="43"/>
      <point x="104" y="51"/>
      <point x="104" y="63" type="curve" smooth="yes"/>
      <point x="104" y="411" type="line"/>
      <point x="35" y="411" type="line"/>
      <point x="35" y="444" type="line"/>
      <point x="157" y="482" type="line"/>
      <point x="197" y="482" type="line"/>
      <point x="197" y="63" type="line" smooth="yes"/>
      <point x="197" y="51"/>
      <point x="207" y="43"/>
      <point x="218" y="42" type="curve"/>
      <point x="269" y="39" type="line"/>
      <point x="269" y="0" type="line"/>
    </contour>
  </outline>
</glyph>
<glyph name="Iogonek" format="2">
  <advance width="330"/>
  <unicode hex="012E"/>
  <outline>
    <contour>
      <point x="33" y="0" type="line"/>
      <point x="33" y="43" type="line"/>
      <point x="93" y="47" type="line" smooth="yes"/>
      <point x="105" y="48"/>
      <point x="114" y="57"/>
      <point x="114" y="69" type="curve" smooth="yes"/>
      <point x="114" y="602" type="line" smooth="yes"/>
      <point x="114" y="614"/>
      <point x="105" y="622"/>
      <point x="93" y="623" type="curve" smooth="yes"/>
      <point x="33" y="627" type="line"/>
      <point x="33" y="671" type="line"/>
      <point x="297" y="671" type="line"/>
      <point x="297" y="627" type="line"/>
      <point x="236" y="623" type="line" smooth="yes"/>
      <point x="225" y="622"/>
      <point x="215" y="613"/>
      <point x="215" y="602" type="curve" smooth="yes"/>
      <point x="215" y="69" type="line" smooth="yes"/>
      <point x="215" y="58"/>
      <point x="225" y="48"/>
      <point x="236" y="47" type="curve" smooth="yes"/>
      <point x="297" y="43" type="line"/>
      <point x="297" y="0" type="line"/>
    </contour>
    <contour>
      <point x="71.5" y="-104.566" type="curve" smooth="yes"/>
      <point x="71.5" y="-52.5664"/>
      <point x="107.5" y="-13.5664"/>
      <point x="141.5" y="6.4336" type="curve"/>
      <point x="188.5" y="6.4336" type="line"/>
      <point x="162.5" y="-10.5664"/>
      <point x="134.5" y="-41.5664"/>
      <point x="134.5" y="-83.5664" type="curve" smooth="yes"/>
      <point x="134.5" y="-120.566"/>
      <point x="152.5" y="-136.566"/>
      <point x="184.5" y="-136.566" type="curve" smooth="yes"/>
      <point x="205.5" y="-136.566"/>
      <point x="221.5" y="-127.566"/>
      <point x="234.5" y="-119.566" type="curve"/>
      <point x="257.5" y="-158.566" type="line"/>
      <point x="231.5" y="-177.566"/>
      <point x="201.5" y="-186.566"/>
      <point x="166.5" y="-186.566" type="curve" smooth="yes"/>
      <point x="113.5" y="-186.566"/>
      <point x="71.5" y="-161.566"/>
    </contour>
  </outline>
</glyph>
<glyph name="iogonek" format="2">
  <advance width="303"/>
  <unicode hex="012F"/>
  <outline>
    <contour>
      <point x="34" y="0" type="line"/>
      <point x="34" y="39" type="line"/>
      <point x="83" y="42" type="line"/>
      <point x="94" y="43"/>
      <point x="104" y="51"/>
      <point x="104" y="63" type="curve" smooth="yes"/>
      <point x="104" y="420" type="line"/>
      <point x="35" y="420" type="line"/>
      <point x="35" y="455" type="line"/>
      <point x="157" y="493" type="line"/>
      <point x="197" y="493" type="line"/>
      <point x="197" y="63" type="line" smooth="yes"/>
      <point x="197" y="51"/>
      <point x="207" y="43"/>
      <point x="218" y="42" type="curve"/>
      <point x="269" y="39" type="line"/>
      <point x="269" y="0" type="line"/>
    </contour>
    <contour>
      <point x="58" y="-104.566" type="curve" smooth="yes"/>
      <point x="58" y="-52.5664"/>
      <point x="94" y="-13.5664"/>
      <point x="128" y="6.4336" type="curve"/>
      <point x="175" y="6.4336" type="line"/>
      <point x="149" y="-10.5664"/>
      <point x="121" y="-41.5664"/>
      <point x="121" y="-83.5664" type="curve" smooth="yes"/>
      <point x="121" y="-120.566"/>
      <point x="139" y="-136.566"/>
      <point x="171" y="-136.566" type="curve" smooth="yes"/>
      <point x="192" y="-136.566"/>
      <point x="208" y="-127.566"/>
      <point x="221" y="-119.566" type="curve"/>
      <point x="244" y="-158.566" type="line"/>
      <point x="218" y="-177.566"/>
      <point x="188" y="-186.566"/>
      <point x="153" y="-186.566" type="curve" smooth="yes"/>
      <point x="100" y="-186.566"/>
      <point x="58" y="-161.566"/>
    </contour>
    <contour>
      <point x="95" y="647" type="curve" smooth="yes"/>
      <point x="95" y="682"/>
      <point x="122" y="708"/>
      <point x="157" y="708" type="curve" smooth="yes"/>
      <point x="192" y="708"/>
      <point x="218" y="682"/>
      <point x="218" y="647" type="curve" smooth="yes"/>
      <point x="218" y="612"/>
      <point x="192" y="585"/>
      <point x="157" y="585" type="curve" smooth="yes"/>
      <point x="122" y="585"/>
      <point x="95" y="612"/>
    </contour>
  </outline>
</glyph>
<glyph name="kgreenlandic" format="2">
  <advance width="534"/>
  <unicode hex="0138"/>
  <outline>
    <contour>
      <point x="14" y="410" type="line"/>
      <point x="14" y="443" type="line"/>
      <point x="142" y="482" type="line"/>
      <point x="183" y="482" type="line"/>
      <point x="183" y="64" type="line" smooth="yes"/>
      <point x="183" y="52"/>
      <point x="192.984" y="42.7686"/>
      <point x="204" y="42" type="curve" smooth="yes"/>
      <point x="247" y="39" type="line"/>
      <point x="247" y="0" type="line"/>
      <point x="20" y="0" type="line"/>
      <point x="20" y="39" type="line"/>
      <point x="69" y="42" type="line" smooth="yes"/>
      <point x="80.0199" y="42.6747"/>
      <point x="90" y="52"/>
      <point x="90" y="64" type="curve" smooth="yes"/>
      <point x="90" y="410" type="line"/>
    </contour>
    <contour>
      <point x="169" y="227" type="line"/>
      <point x="169" y="256" type="line"/>
      <point x="203" y="256" type="line"/>
      <point x="350" y="422" type="line" smooth="yes"/>
      <point x="352.093" y="424.363"/>
      <point x="353.263" y="426.679"/>
      <point x="353.263" y="429" type="curve" smooth="yes"/>
      <point x="353.263" y="433.944"/>
      <point x="348.807" y="438.336"/>
      <point x="342" y="439" type="curve" smooth="yes"/>
      <point x="301" y="443" type="line"/>
      <point x="301" y="482" type="line"/>
      <point x="495" y="482" type="line"/>
      <point x="495" y="443" type="line"/>
      <point x="431" y="436" type="line"/>
      <point x="299" y="295" type="line"/>
      <point x="471" y="45" type="line"/>
      <point x="524" y="39" type="line"/>
      <point x="524" y="0" type="line"/>
      <point x="364" y="0" type="line"/>
      <point x="364" y="39" type="line"/>
      <point x="239" y="227" type="line"/>
    </contour>
  </outline>
</glyph>
<glyph name="lcommaaccent" format="2">
  <advance width="296"/>
  <unicode hex="013C"/>
  <outline>
    <contour>
      <point x="26" y="665" type="line"/>
      <point x="26" y="698" type="line"/>
      <point x="154" y="737" type="line"/>
      <point x="195" y="737" type="line"/>
      <point x="195" y="63" type="line" smooth="yes"/>
      <point x="195" y="54"/>
      <point x="207" y="42"/>
      <point x="216" y="42" type="curve"/>
      <point x="270" y="39" type="line"/>
      <point x="270" y="0" type="line"/>
      <point x="27" y="0" type="line"/>
      <point x="27" y="39" type="line"/>
      <point x="80" y="42" type="line"/>
      <point x="89" y="42"/>
      <point x="102" y="54"/>
      <point x="102" y="63" type="curve" smooth="yes"/>
      <point x="102" y="665" type="line"/>
    </contour>
    <contour>
      <point x="85.5" y="-107" type="curve" smooth="yes"/>
      <point x="85.5" y="-78"/>
      <point x="110.5" y="-60"/>
      <point x="140.5" y="-60" type="curve" smooth="yes"/>
      <point x="186.5" y="-60"/>
      <point x="211.5" y="-93"/>
      <point x="211.5" y="-142" type="curve" smooth="yes"/>
      <point x="211.5" y="-217.665"/>
      <point x="152.581" y="-256.153"/>
      <point x="87.5" y="-267" type="curve"/>
      <point x="87.5" y="-237" type="line"/>
      <point x="133.5" y="-223"/>
      <point x="159.5" y="-204"/>
      <point x="159.5" y="-144" type="curve"/>
      <point x="100.5" y="-144" type="line"/>
      <point x="92.5" y="-136"/>
      <point x="85.5" y="-123"/>
    </contour>
  </outline>
</glyph>
<glyph name="nacute" format="2">
  <advance width="566"/>
  <unicode hex="0144"/>
  <outline>
    <contour>
      <point x="21" y="411" type="line"/>
      <point x="21" y="444" type="line"/>
      <point x="143" y="482" type="line"/>
      <point x="184" y="482" type="line"/>
      <point x="184" y="432" type="line"/>
      <point x="255.342" y="476.532"/>
      <point x="301.829" y="494"/>
      <point x="349" y="494" type="curve" smooth="yes"/>
      <point x="434.461" y="494"/>
      <point x="483" y="438.216"/>
      <point x="483" y="340" type="curve" smooth="yes"/>
      <point x="483" y="63" type="line" smooth="yes"/>
      <point x="483" y="51"/>
      <point x="493" y="43"/>
      <point x="504" y="42" type="curve" smooth="yes"/>
      <point x="548" y="39" type="line"/>
      <point x="548" y="0" type="line"/>
      <point x="327" y="0" type="line"/>
      <point x="327" y="39" type="line"/>
      <point x="369" y="42" type="line" smooth="yes"/>
      <point x="380" y="43"/>
      <point x="390" y="51"/>
      <point x="390" y="63" type="curve" smooth="yes"/>
      <point x="390" y="324" type="line" smooth="yes"/>
      <point x="390" y="390.349"/>
      <point x="359.665" y="421"/>
      <point x="294" y="421" type="curve" smooth="yes"/>
      <point x="257.155" y="421"/>
      <point x="220.017" y="411.209"/>
      <point x="184" y="392" type="curve"/>
      <point x="184" y="63" type="line" smooth="yes"/>
      <point x="184" y="51"/>
      <point x="194" y="43"/>
      <point x="205" y="42" type="curve" smooth="yes"/>
      <point x="247" y="39" type="line"/>
      <point x="247" y="0" type="line"/>
      <point x="21" y="0" type="line"/>
      <point x="21" y="39" type="line"/>
      <point x="70" y="42" type="line"/>
      <point x="81" y="43"/>
      <point x="91" y="51"/>
      <point x="91" y="63" type="curve" smooth="yes"/>
      <point x="91" y="411" type="line"/>
    </contour>
    <contour>
      <point x="156.5" y="555" type="line"/>
      <point x="288.5" y="710" type="line"/>
      <point x="300.5" y="725"/>
      <point x="313.5" y="737"/>
      <point x="341.5" y="737" type="curve" smooth="yes"/>
      <point x="371.158" y="737"/>
      <point x="388.5" y="720.588"/>
      <point x="388.5" y="692" type="curve" smooth="yes"/>
      <point x="388.5" y="673"/>
      <point x="376.512" y="658.981"/>
      <point x="365.5" y="652" type="curve" smooth="yes"/>
      <point x="212.5" y="555" type="line"/>
    </contour>
  </outline>
</glyph>
<glyph name="ohungarumlaut" format="2">
  <advance width="543"/>
  <unicode hex="0151"/>
  <outline>
    <contour>
      <point x="34" y="240" type="curve" smooth="yes"/>
      <point x="34" y="381"/>
      <point x="133" y="495"/>
      <point x="273" y="495" type="curve" smooth="yes"/>
      <point x="413" y="495"/>
      <point x="509" y="381"/>
      <point x="509" y="240" type="curve" smooth="yes"/>
      <point x="509" y="100"/>
      <point x="410" y="-13"/>
      <point x="270" y="-13" type="curve" smooth="yes"/>
      <point x="130" y="-13"/>
      <point x="34" y="100"/>
    </contour>
    <contour>
      <point x="77" y="556" type="line"/>
      <point x="210" y="711" type="line" smooth="yes"/>
      <point x="222" y="725"/>
      <point x="234" y="738"/>
      <point x="263" y="738" type="curve" smooth="yes"/>
      <point x="292" y="738"/>
      <point x="309" y="721"/>
      <point x="309" y="692" type="curve" smooth="yes"/>
      <point x="309" y="672"/>
      <point x="298" y="661"/>
      <point x="285" y="653" type="curve" smooth="yes"/>
      <point x="134" y="556" type="line"/>
    </contour>
    <contour>
      <point x="138" y="240" type="curve" smooth="yes"/>
      <point x="138" y="150"/>
      <point x="172" y="34"/>
      <point x="272" y="34" type="curve" smooth="yes"/>
      <point x="372" y="34"/>
      <point x="406" y="150"/>
      <point x="406" y="240" type="curve" smooth="yes"/>
      <point x="406" y="330"/>
      <point x="373" y="450"/>
      <point x="273" y="450" type="curve" smooth="yes"/>
      <point x="173" y="450"/>
      <point x="138" y="330"/>
    </contour>
    <contour>
      <point x="272" y="555" type="line"/>
      <point x="406" y="710" type="line" smooth="yes"/>
      <point x="420" y="726"/>
      <point x="431" y="738"/>
      <point x="458" y="738" type="curve" smooth="yes"/>
      <point x="487" y="738"/>
      <point x="504" y="721"/>
      <point x="504" y="693" type="curve" smooth="yes"/>
      <point x="504" y="673"/>
      <point x="494" y="660"/>
      <point x="481" y="652" type="curve" smooth="yes"/>
      <point x="329" y="555" type="line"/>
    </contour>
  </outline>
</glyph>
<glyph name="Racute" format="2">
  <advance width="648"/>
  <unicode hex="0154"/>
  <outline>
    <contour>
      <point x="31" y="0" type="line"/>
      <point x="31" y="43" type="line"/>
      <point x="83" y="47" type="line" smooth="yes"/>
      <point x="95.5459" y="48.0459"/>
      <point x="105" y="57.5"/>
      <point x="105" y="69" type="curve" smooth="yes"/>
      <point x="105" y="602" type="line" smooth="yes"/>
      <point x="105" y="613.5"/>
      <point x="95.5459" y="622.955"/>
      <point x="83" y="624" type="curve" smooth="yes"/>
      <point x="31" y="628" type="line"/>
      <point x="31" y="671" type="line"/>
      <point x="292" y="671" type="line" smooth="yes"/>
      <point x="459.077" y="671"/>
      <point x="537" y="613.114"/>
      <point x="537" y="489" type="curve" smooth="yes"/>
      <point x="537" y="401.97"/>
      <point x="482.637" y="346.944"/>
      <point x="373" y="323" type="curve"/>
      <point x="449.717" y="304.402"/>
      <point x="487.332" y="263.341"/>
      <point x="504" y="180" type="curve" smooth="yes"/>
      <point x="526.225" y="74.4287"/>
      <point x="561.638" y="40"/>
      <point x="648" y="40" type="curve"/>
      <point x="648" y="-5" type="line"/>
      <point x="641.75" y="-5"/>
      <point x="634.111" y="-6.833"/>
      <point x="623" y="-11" type="curve"/>
      <point x="611.375" y="-14.875"/>
      <point x="596.5" y="-17"/>
      <point x="581" y="-17" type="curve" smooth="yes"/>
      <point x="492.855" y="-17"/>
      <point x="452.882" y="21.2246"/>
      <point x="421" y="136" type="curve"/>
      <point x="389.545" y="256.102"/>
      <point x="345.068" y="299"/>
      <point x="252" y="299" type="curve" smooth="yes"/>
      <point x="234.25" y="299"/>
      <point x="219.654" y="297.731"/>
      <point x="206" y="295" type="curve"/>
      <point x="206" y="69" type="line" smooth="yes"/>
      <point x="206" y="57.2139"/>
      <point x="214.778" y="48.0186"/>
      <point x="227" y="47" type="curve" smooth="yes"/>
      <point x="280" y="43" type="line"/>
      <point x="280" y="0" type="line"/>
    </contour>
    <contour>
      <point x="193.5" y="746" type="line"/>
      <point x="325.5" y="901" type="line"/>
      <point x="337.5" y="916"/>
      <point x="350.5" y="928"/>
      <point x="378.5" y="928" type="curve" smooth="yes"/>
      <point x="408.158" y="928"/>
      <point x="425.5" y="911.588"/>
      <point x="425.5" y="883" type="curve" smooth="yes"/>
      <point x="425.5" y="864"/>
      <point x="413.512" y="849.981"/>
      <point x="402.5" y="843" type="curve" smooth="yes"/>
      <point x="249.5" y="746" type="line"/>
    </contour>
    <contour>
      <point x="206" y="347" type="line"/>
      <point x="256" y="347" type="line" smooth="yes"/>
      <point x="375.408" y="347"/>
      <point x="428" y="390.419"/>
      <point x="428" y="489" type="curve" smooth="yes"/>
      <point x="428" y="579.295"/>
      <point x="371.489" y="622"/>
      <point x="252" y="622" type="curve" smooth="yes"/>
      <point x="206" y="622" type="line"/>
    </contour>
  </outline>
</glyph>
<glyph name="Rcommaaccent" format="2">
  <advance width="648"/>
  <unicode hex="0156"/>
  <outline>
    <contour>
      <point x="31" y="0" type="line"/>
      <point x="31" y="43" type="line"/>
      <point x="83" y="47" type="line" smooth="yes"/>
      <point x="95.5459" y="48.0459"/>
      <point x="105" y="57.5"/>
      <point x="105" y="69" type="curve" smooth="yes"/>
      <point x="105" y="602" type="line" smooth="yes"/>
      <point x="105" y="613.5"/>
      <point x="95.5459" y="622.955"/>
      <point x="83" y="624" type="curve" smooth="yes"/>
      <point x="31" y="628" type="line"/>
      <point x="31" y="671" type="line"/>
      <point x="292" y="671" type="line" smooth="yes"/>
      <point x="459.077" y="671"/>
      <point x="537" y="613.114"/>
      <point x="537" y="489" type="curve" smooth="yes"/>
      <point x="537" y="401.97"/>
      <point x="482.637" y="346.944"/>
      <point x="373" y="323" type="curve"/>
      <point x="449.717" y="304.402"/>
      <point x="487.332" y="263.341"/>
      <point x="504" y="180" type="curve" smooth="yes"/>
      <point x="526.225" y="74.4287"/>
      <point x="561.638" y="40"/>
      <point x="648" y="40" type="curve"/>
      <point x="648" y="-5" type="line"/>
      <point x="641.75" y="-5"/>
      <point x="634.111" y="-6.833"/>
      <point x="623" y="-11" type="curve"/>
      <point x="611.375" y="-14.875"/>
      <point x="596.5" y="-17"/>
      <point x="581" y="-17" type="curve" smooth="yes"/>
      <point x="492.855" y="-17"/>
      <point x="452.882" y="21.2246"/>
      <point x="421" y="136" type="curve"/>
      <point x="389.545" y="256.102"/>
      <point x="345.068" y="299"/>
      <point x="252" y="299" type="curve" smooth="yes"/>
      <point x="234.25" y="299"/>
      <point x="219.654" y="297.731"/>
      <point x="206" y="295" type="curve"/>
      <point x="206" y="69" type="line" smooth="yes"/>
      <point x="206" y="57.2139"/>
      <point x="214.778" y="48.0186"/>
      <point x="227" y="47" type="curve" smooth="yes"/>
      <point x="280" y="43" type="line"/>
      <point x="280" y="0" type="line"/>
    </contour>
    <contour>
      <point x="206" y="347" type="line"/>
      <point x="256" y="347" type="line" smooth="yes"/>
      <point x="375.408" y="347"/>
      <point x="428" y="390.419"/>
      <point x="428" y="489" type="curve" smooth="yes"/>
      <point x="428" y="579.295"/>
      <point x="371.489" y="622"/>
      <point x="252" y="622" type="curve" smooth="yes"/>
      <point x="206" y="622" type="line"/>
    </contour>
    <contour>
      <point x="252" y="-111" type="curve" smooth="yes"/>
      <point x="252" y="-82"/>
      <point x="277" y="-64"/>
      <point x="307" y="-64" type="curve" smooth="yes"/>
      <point x="353" y="-64"/>
      <point x="378" y="-97"/>
      <point x="378" y="-146" type="curve" smooth="yes"/>
      <point x="378" y="-221.665"/>
      <point x="319.081" y="-260.153"/>
      <point x="254" y="-271" type="curve"/>
      <point x="254" y="-241" type="line"/>
      <point x="300" y="-227"/>
      <point x="326" y="-208"/>
      <point x="326" y="-148" type="curve"/>
      <point x="267" y="-148" type="line"/>
      <point x="259" y="-140"/>
      <point x="252" y="-127"/>
    </contour>
  </outline>
</glyph>
<glyph name="Scedilla" format="2">
  <advance width="520"/>
  <unicode hex="015E"/>
  <outline>
    <contour>
      <point x="40" y="21" type="curve"/>
      <point x="40" y="198" type="line"/>
      <point x="103" y="198" type="line"/>
      <point x="116" y="85" type="line" smooth="yes"/>
      <point x="119.316" y="56.8154"/>
      <point x="166.154" y="38"/>
      <point x="233" y="38" type="curve" smooth="yes"/>
      <point x="324.225" y="38"/>
      <point x="380" y="83.5303"/>
      <point x="380" y="158" type="curve" smooth="yes"/>
      <point x="380" y="212.368"/>
      <point x="346.215" y="255.044"/>
      <point x="285" y="278" type="curve" smooth="yes"/>
      <point x="189" y="314" type="line" smooth="yes"/>
      <point x="96.9014" y="348.208"/>
      <point x="50" y="407.932"/>
      <point x="50" y="491" type="curve" smooth="yes"/>
      <point x="50" y="611.818"/>
      <point x="138.638" y="686"/>
      <point x="283" y="686" type="curve" smooth="yes"/>
      <point x="335.5" y="686"/>
      <point x="379.5" y="678"/>
      <point x="459" y="654" type="curve"/>
      <point x="459" y="498" type="line"/>
      <point x="402" y="498" type="line"/>
      <point x="387" y="594" type="line" smooth="yes"/>
      <point x="383.659" y="615.717"/>
      <point x="337.572" y="633"/>
      <point x="283" y="633" type="curve" smooth="yes"/>
      <point x="204.504" y="633"/>
      <point x="154" y="586.802"/>
      <point x="154" y="515" type="curve" smooth="yes"/>
      <point x="154" y="464.4"/>
      <point x="185" y="428.75"/>
      <point x="254" y="400" type="curve" smooth="yes"/>
      <point x="341" y="363" type="line" smooth="yes"/>
      <point x="444.191" y="318.775"/>
      <point x="483" y="270.947"/>
      <point x="483" y="188" type="curve" smooth="yes"/>
      <point x="483" y="62.4619"/>
      <point x="381.879" y="-15"/>
      <point x="218" y="-15" type="curve" smooth="yes"/>
      <point x="158.132" y="-15"/>
      <point x="110.089" y="-5.2832"/>
    </contour>
    <contour>
      <point x="143" y="-216.667" type="curve"/>
      <point x="143" y="-177.667" type="line"/>
      <point x="161" y="-181.667"/>
      <point x="183" y="-185.667"/>
      <point x="204" y="-185.667" type="curve" smooth="yes"/>
      <point x="236" y="-185.667"/>
      <point x="268" y="-176.667"/>
      <point x="268" y="-144.667" type="curve" smooth="yes"/>
      <point x="268" y="-118.667"/>
      <point x="252" y="-107.667"/>
      <point x="231" y="-107.667" type="curve" smooth="yes"/>
      <point x="221" y="-107.667"/>
      <point x="208" y="-109.667"/>
      <point x="198" y="-113.667" type="curve"/>
      <point x="198" y="-6.66701" type="line"/>
      <point x="238" y="-6.66701" type="line"/>
      <point x="238" y="-64.667" type="line"/>
      <point x="246" y="-61.667"/>
      <point x="252" y="-60.667"/>
      <point x="261" y="-60.667" type="curve" smooth="yes"/>
      <point x="307" y="-60.667"/>
      <point x="333" y="-85.667"/>
      <point x="333" y="-131.667" type="curve" smooth="yes"/>
      <point x="333" y="-196.667"/>
      <point x="283" y="-226.667"/>
      <point x="217" y="-226.667" type="curve" smooth="yes"/>
      <point x="190" y="-226.667"/>
      <point x="164" y="-222.667"/>
    </contour>
  </outline>
</glyph>
<glyph name="uni0163" format="2">
  <advance width="339"/>
  <unicode hex="0163"/>
  <outline>
    <contour>
      <point x="123" y="-214.667" type="curve"/>
      <point x="123" y="-175.667" type="line"/>
      <point x="141" y="-179.667"/>
      <point x="163" y="-183.667"/>
      <point x="184" y="-183.667" type="curve" smooth="yes"/>
      <point x="216" y="-183.667"/>
      <point x="248" y="-174.667"/>
      <point x="248" y="-142.667" type="curve" smooth="yes"/>
      <point x="248" y="-116.667"/>
      <point x="232" y="-105.667"/>
      <point x="211" y="-105.667" type="curve" smooth="yes"/>
      <point x="201" y="-105.667"/>
      <point x="188" y="-107.667"/>
      <point x="178" y="-111.667" type="curve"/>
      <point x="178" y="-4.66701" type="line"/>
      <point x="218" y="-4.66701" type="line"/>
      <point x="218" y="-62.667" type="line"/>
      <point x="226" y="-59.667"/>
      <point x="232" y="-58.667"/>
      <point x="241" y="-58.667" type="curve" smooth="yes"/>
      <point x="287" y="-58.667"/>
      <point x="313" y="-83.667"/>
      <point x="313" y="-129.667" type="curve" smooth="yes"/>
      <point x="313" y="-194.667"/>
      <point x="263" y="-224.667"/>
      <point x="197" y="-224.667" type="curve" smooth="yes"/>
      <point x="170" y="-224.667"/>
      <point x="144" y="-220.667"/>
    </contour>
    <contour>
      <point x="27" y="432" type="line"/>
      <point x="27" y="465" type="line"/>
      <point x="95" y="497" type="line"/>
      <point x="140" y="603" type="line"/>
      <point x="184" y="603" type="line"/>
      <point x="184" y="482" type="line"/>
      <point x="325" y="482" type="line"/>
      <point x="325" y="432" type="line"/>
      <point x="184" y="432" type="line"/>
      <point x="184" y="153" type="line" smooth="yes"/>
      <point x="184" y="88"/>
      <point x="201" y="44"/>
      <point x="264" y="44" type="curve" smooth="yes"/>
      <point x="291.924" y="44"/>
      <point x="314.157" y="50.6367"/>
      <point x="332" y="61" type="curve"/>
      <point x="332" y="21" type="line"/>
      <point x="296" y="4"/>
      <point x="252" y="-12"/>
      <point x="198" y="-12" type="curve" smooth="yes"/>
      <point x="121" y="-12"/>
      <point x="91" y="22"/>
      <point x="91" y="100" type="curve" smooth="yes"/>
      <point x="91" y="432" type="line"/>
    </contour>
  </outline>
</glyph>
<glyph name="Utilde" format="2">
  <advance width="711"/>
  <unicode hex="0168"/>
  <outline>
    <contour>
      <point x="31" y="628" type="line"/>
      <point x="31" y="671" type="line"/>
      <point x="285" y="671" type="line"/>
      <point x="285" y="628" type="line"/>
      <point x="228" y="624" type="line" smooth="yes"/>
      <point x="216" y="623"/>
      <point x="207" y="614"/>
      <point x="207" y="602" type="curve" smooth="yes"/>
      <point x="207" y="249" type="line" smooth="yes"/>
      <point x="207" y="122"/>
      <point x="248" y="52"/>
      <point x="376" y="52" type="curve" smooth="yes"/>
      <point x="502" y="52"/>
      <point x="547" y="124"/>
      <point x="547" y="249" type="curve" smooth="yes"/>
      <point x="547" y="602" type="line" smooth="yes"/>
      <point x="547" y="614"/>
      <point x="537" y="623"/>
      <point x="525" y="624" type="curve" smooth="yes"/>
      <point x="468" y="628" type="line"/>
      <point x="468" y="671" type="line"/>
      <point x="685" y="671" type="line"/>
      <point x="685" y="628" type="line"/>
      <point x="627" y="624" type="line" smooth="yes"/>
      <point x="615" y="623"/>
      <point x="606" y="614"/>
      <point x="606" y="602" type="curve" smooth="yes"/>
      <point x="606" y="223" type="line" smooth="yes"/>
      <point x="606" y="57"/>
      <point x="515" y="-15"/>
      <point x="349" y="-15" type="curve" smooth="yes"/>
      <point x="187" y="-15"/>
      <point x="105" y="63"/>
      <point x="105" y="223" type="curve" smooth="yes"/>
      <point x="105" y="602" type="line" smooth="yes"/>
      <point x="105" y="614"/>
      <point x="96" y="623"/>
      <point x="84" y="624" type="curve" smooth="yes"/>
    </contour>
    <contour>
      <point x="185" y="746" type="line"/>
      <point x="200" y="801"/>
      <point x="230" y="856"/>
      <point x="300" y="856" type="curve" smooth="yes"/>
      <point x="327" y="856"/>
      <point x="345" y="845"/>
      <point x="363" y="834" type="curve" smooth="yes"/>
      <point x="384" y="821"/>
      <point x="405" y="808"/>
      <point x="438" y="808" type="curve" smooth="yes"/>
      <point x="466" y="808"/>
      <point x="488" y="830"/>
      <point x="491" y="856" type="curve"/>
      <point x="531" y="856" type="line"/>
      <point x="516" y="801"/>
      <point x="486" y="746"/>
      <point x="416" y="746" type="curve" smooth="yes"/>
      <point x="389" y="746"/>
      <point x="370" y="757"/>
      <point x="351" y="769" type="curve" smooth="yes"/>
      <point x="331" y="781"/>
      <point x="308" y="794"/>
      <point x="277" y="794" type="curve" smooth="yes"/>
      <point x="249" y="794"/>
      <point x="228" y="771"/>
      <point x="225" y="746" type="curve"/>
    </contour>
  </outline>
</glyph>
<glyph name="Uring" format="2">
  <advance width="711"/>
  <unicode hex="016E"/>
  <outline>
    <contour>
      <point x="31" y="628" type="line"/>
      <point x="31" y="671" type="line"/>
      <point x="285" y="671" type="line"/>
      <point x="285" y="628" type="line"/>
      <point x="228" y="624" type="line" smooth="yes"/>
      <point x="216" y="623"/>
      <point x="207" y="614"/>
      <point x="207" y="602" type="curve" smooth="yes"/>
      <point x="207" y="249" type="line" smooth="yes"/>
      <point x="207" y="122"/>
      <point x="248" y="52"/>
      <point x="376" y="52" type="curve" smooth="yes"/>
      <point x="502" y="52"/>
      <point x="547" y="124"/>
      <point x="547" y="249" type="curve" smooth="yes"/>
      <point x="547" y="602" type="line" smooth="yes"/>
      <point x="547" y="614"/>
      <point x="537" y="623"/>
      <point x="525" y="624" type="curve" smooth="yes"/>
      <point x="468" y="628" type="line"/>
      <point x="468" y="671" type="line"/>
      <point x="685" y="671" type="line"/>
      <point x="685" y="628" type="line"/>
      <point x="627" y="624" type="line" smooth="yes"/>
      <point x="615" y="623"/>
      <point x="606" y="614"/>
      <point x="606" y="602" type="curve" smooth="yes"/>
      <point x="606" y="223" type="line" smooth="yes"/>
      <point x="606" y="57"/>
      <point x="515" y="-15"/>
      <point x="349" y="-15" type="curve" smooth="yes"/>
      <point x="187" y="-15"/>
      <point x="105" y="63"/>
      <point x="105" y="223" type="curve" smooth="yes"/>
      <point x="105" y="602" type="line" smooth="yes"/>
      <point x="105" y="614"/>
      <point x="96" y="623"/>
      <point x="84" y="624" type="curve" smooth="yes"/>
    </contour>
    <contour>
      <point x="239" y="864" type="curve" smooth="yes"/>
      <point x="239" y="934"/>
      <point x="291" y="983"/>
      <point x="361" y="983" type="curve" smooth="yes"/>
      <point x="431" y="983"/>
      <point x="481" y="934"/>
      <point x="481" y="864" type="curve" smooth="yes"/>
      <point x="481" y="794"/>
      <point x="430" y="746"/>
      <point x="360" y="746" type="curve" smooth="yes"/>
      <point x="290" y="746"/>
      <point x="239" y="794"/>
    </contour>
    <contour>
      <point x="292" y="864" type="curve" smooth="yes"/>
      <point x="292" y="824"/>
      <point x="320" y="795"/>
      <point x="360" y="795" type="curve" smooth="yes"/>
      <point x="400" y="795"/>
      <point x="428" y="824"/>
      <point x="428" y="864" type="curve" smooth="yes"/>
      <point x="428" y="904"/>
      <point x="400" y="935"/>
      <point x="360" y="935" type="curve" smooth="yes"/>
      <point x="320" y="935"/>
      <point x="292" y="904"/>
    </contour>
  </outline>
</glyph>
<glyph name="Uogonek" format="2">
  <advance width="711"/>
  <unicode hex="0172"/>
  <outline>
    <contour>
      <point x="31" y="628" type="line"/>
      <point x="84" y="624" type="line" smooth="yes"/>
      <point x="96" y="623"/>
      <point x="105" y="614"/>
      <point x="105" y="602" type="curve" smooth="yes"/>
      <point x="105" y="223" type="line" smooth="yes"/>
      <point x="105" y="63"/>
      <point x="187" y="-15"/>
      <point x="349" y="-15" type="curve" smooth="yes"/>
      <point x="515" y="-15"/>
      <point x="606" y="57"/>
      <point x="606" y="223" type="curve" smooth="yes"/>
      <point x="606" y="602" type="line" smooth="yes"/>
      <point x="606" y="614"/>
      <point x="615" y="623"/>
      <point x="627" y="624" type="curve" smooth="yes"/>
      <point x="685" y="628" type="line"/>
      <point x="685" y="671" type="line"/>
      <point x="468" y="671" type="line"/>
      <point x="468" y="628" type="line"/>
      <point x="525" y="624" type="line" smooth="yes"/>
      <point x="537" y="623"/>
      <point x="547" y="614"/>
      <point x="547" y="602" type="curve" smooth="yes"/>
      <point x="547" y="249" type="line" smooth="yes"/>
      <point x="547" y="124"/>
      <point x="502" y="52"/>
      <point x="376" y="52" type="curve" smooth="yes"/>
      <point x="248" y="52"/>
      <point x="207" y="122"/>
      <point x="207" y="249" type="curve" smooth="yes"/>
      <point x="207" y="602" type="line" smooth="yes"/>
      <point x="207" y="614"/>
      <point x="216" y="623"/>
      <point x="228" y="624" type="curve" smooth="yes"/>
      <point x="285" y="628" type="line"/>
      <point x="285" y="671" type="line"/>
      <point x="31" y="671" type="line"/>
    </contour>
    <contour>
      <point x="255.5" y="-119.566" type="curve" smooth="yes"/>
      <point x="255.5" y="-67.5664"/>
      <point x="291.5" y="-28.5664"/>
      <point x="325.5" y="-8.5664" type="curve"/>
      <point x="372.5" y="-8.5664" type="line"/>
      <point x="346.5" y="-25.5664"/>
      <point x="318.5" y="-56.5664"/>
      <point x="318.5" y="-98.5664" type="curve" smooth="yes"/>
      <point x="318.5" y="-135.566"/>
      <point x="336.5" y="-151.566"/>
      <point x="368.5" y="-151.566" type="curve" smooth="yes"/>
      <point x="389.5" y="-151.566"/>
      <point x="405.5" y="-142.566"/>
      <point x="418.5" y="-134.566" type="curve"/>
      <point x="441.5" y="-173.566" type="line"/>
      <point x="415.5" y="-192.566"/>
      <point x="385.5" y="-201.566"/>
      <point x="350.5" y="-201.566" type="curve" smooth="yes"/>
      <point x="297.5" y="-201.566"/>
      <point x="255.5" y="-176.566"/>
    </contour>
  </outline>
</glyph>
<glyph name="uogonek" format="2">
  <advance width="568"/>
  <unicode hex="0173"/>
  <outline>
    <contour>
      <point x="20" y="409" type="line"/>
      <point x="20" y="443" type="line"/>
      <point x="143" y="482" type="line"/>
      <point x="183" y="482" type="line"/>
      <point x="183" y="169" type="line" smooth="yes"/>
      <point x="183" y="98"/>
      <point x="209" y="56"/>
      <point x="280" y="56" type="curve" smooth="yes"/>
      <point x="324" y="56"/>
      <point x="358" y="69"/>
      <point x="389" y="84" type="curve"/>
      <point x="389" y="409" type="line"/>
      <point x="319" y="409" type="line"/>
      <point x="319" y="443" type="line"/>
      <point x="441" y="482" type="line"/>
      <point x="482" y="482" type="line"/>
      <point x="482" y="64" type="line" smooth="yes"/>
      <point x="482" y="52"/>
      <point x="493" y="44"/>
      <point x="504" y="43" type="curve" smooth="yes"/>
      <point x="548" y="39" type="line"/>
      <point x="548" y="0" type="line"/>
      <point x="389" y="0" type="line"/>
      <point x="389" y="56" type="line"/>
      <point x="351" y="27"/>
      <point x="294" y="-12"/>
      <point x="228" y="-12" type="curve" smooth="yes"/>
      <point x="130" y="-12"/>
      <point x="90" y="50"/>
      <point x="90" y="150" type="curve" smooth="yes"/>
      <point x="90" y="409" type="line"/>
    </contour>
    <contour>
      <point x="342" y="-116.566" type="curve" smooth="yes"/>
      <point x="342" y="-64.5664"/>
      <point x="378" y="-25.5664"/>
      <point x="412" y="-5.5664" type="curve"/>
      <point x="459" y="-5.5664" type="line"/>
      <point x="433" y="-22.5664"/>
      <point x="405" y="-53.5664"/>
      <point x="405" y="-95.5664" type="curve" smooth="yes"/>
      <point x="405" y="-132.566"/>
      <point x="423" y="-148.566"/>
      <point x="455" y="-148.566" type="curve" smooth="yes"/>
      <point x="476" y="-148.566"/>
      <point x="492" y="-139.566"/>
      <point x="505" y="-131.566" type="curve"/>
      <point x="528" y="-170.566" type="line"/>
      <point x="502" y="-189.566"/>
      <point x="472" y="-198.566"/>
      <point x="437" y="-198.566" type="curve" smooth="yes"/>
      <point x="384" y="-198.566"/>
      <point x="342" y="-173.566"/>
    </contour>
  </outline>
</glyph>
<glyph name="Wcircumflex" format="2">
  <advance width="931"/>
  <unicode hex="0174"/>
  <outline>
    <contour>
      <point x="10" y="627" type="line"/>
      <point x="10" y="670" type="line"/>
      <point x="239" y="670" type="line"/>
      <point x="239" y="627" type="line"/>
      <point x="179" y="621" type="line" smooth="yes"/>
      <point x="170" y="620"/>
      <point x="166" y="612"/>
      <point x="169" y="602" type="curve"/>
      <point x="288" y="151" type="line"/>
      <point x="445" y="671" type="line"/>
      <point x="522" y="671" type="line"/>
      <point x="683" y="135" type="line"/>
      <point x="794" y="602" type="line"/>
      <point x="796" y="613"/>
      <point x="790" y="621"/>
      <point x="780" y="622" type="curve" smooth="yes"/>
      <point x="717" y="628" type="line"/>
      <point x="717" y="671" type="line"/>
      <point x="921" y="671" type="line"/>
      <point x="921" y="628" type="line"/>
      <point x="860" y="616" type="line"/>
      <point x="707" y="-17" type="line"/>
      <point x="634" y="-17" type="line"/>
      <point x="467" y="537" type="line"/>
      <point x="303" y="-17" type="line"/>
      <point x="231" y="-17" type="line"/>
      <point x="68" y="615" type="line"/>
    </contour>
    <contour>
      <point x="319" y="746" type="line"/>
      <point x="445" y="915" type="line"/>
      <point x="521" y="915" type="line"/>
      <point x="647" y="746" type="line"/>
      <point x="587" y="746" type="line"/>
      <point x="484" y="845" type="line"/>
      <point x="380" y="746" type="line"/>
    </contour>
  </outline>
</glyph>
<glyph name="Zacute" format="2">
  <advance width="575"/>
  <unicode hex="0179"/>
  <outline>
    <contour>
      <point x="39" y="0" type="line"/>
      <point x="39" y="44" type="line"/>
      <point x="411" y="621" type="line"/>
      <point x="151" y="621" type="line" smooth="yes"/>
      <point x="141" y="621"/>
      <point x="136" y="612"/>
      <point x="134" y="604" type="curve"/>
      <point x="119" y="511" type="line"/>
      <point x="60" y="511" type="line"/>
      <point x="60" y="671" type="line"/>
      <point x="531" y="671" type="line"/>
      <point x="531" y="625" type="line"/>
      <point x="158" y="51" type="line"/>
      <point x="443" y="51" type="line" smooth="yes"/>
      <point x="453" y="51"/>
      <point x="458" y="61"/>
      <point x="460" y="69" type="curve"/>
      <point x="477" y="185" type="line"/>
      <point x="536" y="185" type="line"/>
      <point x="536" y="0" type="line"/>
    </contour>
    <contour>
      <point x="267.5" y="746" type="line"/>
      <point x="399.5" y="901" type="line"/>
      <point x="411.5" y="916"/>
      <point x="424.5" y="928"/>
      <point x="452.5" y="928" type="curve" smooth="yes"/>
      <point x="482.158" y="928"/>
      <point x="499.5" y="911.588"/>
      <point x="499.5" y="883" type="curve" smooth="yes"/>
      <point x="499.5" y="864"/>
      <point x="487.512" y="849.981"/>
      <point x="476.5" y="843" type="curve" smooth="yes"/>
      <point x="323.5" y="746" type="line"/>
    </contour>
  </outline>
</glyph>
<glyph name="Zdotaccent" format="2">
  <advance width="575"/>
  <unicode hex="017B"/>
  <outline>
    <contour>
      <point x="39" y="0" type="line"/>
      <point x="39" y="44" type="line"/>
      <point x="411" y="621" type="line"/>
      <point x="151" y="621" type="line" smooth="yes"/>
      <point x="141" y="621"/>
      <point x="136" y="612"/>
      <point x="134" y="604" type="curve"/>
      <point x="119" y="511" type="line"/>
      <point x="60" y="511" type="line"/>
      <point x="60" y="671" type="line"/>
      <point x="531" y="671" type="line"/>
      <point x="531" y="625" type="line"/>
      <point x="158" y="51" type="line"/>
      <point x="443" y="51" type="line" smooth="yes"/>
      <point x="453" y="51"/>
      <point x="458" y="61"/>
      <point x="460" y="69" type="curve"/>
      <point x="477" y="185" type="line"/>
      <point x="536" y="185" type="line"/>
      <point x="536" y="0" type="line"/>
    </contour>
    <contour>
      <point x="239.5" y="802" type="curve" smooth="yes"/>
      <point x="239.5" y="835"/>
      <point x="263.5" y="859"/>
      <point x="295.5" y="859" type="curve" smooth="yes"/>
      <point x="327.5" y="859"/>
      <point x="351.5" y="835"/>
      <point x="351.5" y="802" type="curve" smooth="yes"/>
      <point x="351.5" y="770"/>
      <point x="327.5" y="746"/>
      <point x="295.5" y="746" type="curve" smooth="yes"/>
      <point x="263.5" y="746"/>
      <point x="239.5" y="770"/>
    </contour>
  </outline>
</glyph>
<glyph name="zdotaccent" format="2">
  <advance width="461"/>
  <unicode hex="017C"/>
  <outline>
    <contour>
      <point x="34" y="0" type="line"/>
      <point x="34" y="53" type="line"/>
      <point x="300" y="435" type="line"/>
      <point x="126" y="435" type="line" smooth="yes"/>
      <point x="116" y="435"/>
      <point x="107" y="423"/>
      <point x="106" y="414" type="curve" smooth="yes"/>
      <point x="96" y="340" type="line"/>
      <point x="45" y="340" type="line"/>
      <point x="45" y="482" type="line"/>
      <point x="415" y="482" type="line"/>
      <point x="415" y="441" type="line"/>
      <point x="141" y="48" type="line"/>
      <point x="343" y="48" type="line" smooth="yes"/>
      <point x="354" y="48"/>
      <point x="362" y="63"/>
      <point x="364" y="72" type="curve"/>
      <point x="374" y="151" type="line"/>
      <point x="428" y="151" type="line"/>
      <point x="428" y="0" type="line"/>
    </contour>
    <contour>
      <point x="174" y="611" type="curve" smooth="yes"/>
      <point x="174" y="644"/>
      <point x="198" y="668"/>
      <point x="230" y="668" type="curve" smooth="yes"/>
      <point x="262" y="668"/>
      <point x="286" y="644"/>
      <point x="286" y="611" type="curve" smooth="yes"/>
      <point x="286" y="579"/>
      <point x="262" y="555"/>
      <point x="230" y="555" type="curve" smooth="yes"/>
      <point x="198" y="555"/>
      <point x="174" y="579"/>
    </contour>
  </outline>
</glyph>
<glyph name="Zcaron" format="2">
  <advance width="575"/>
  <unicode hex="017D"/>
  <outline>
    <contour>
      <point x="39" y="0" type="line"/>
      <point x="39" y="44" type="line"/>
      <point x="411" y="621" type="line"/>
      <point x="151" y="621" type="line" smooth="yes"/>
      <point x="141" y="621"/>
      <point x="136" y="612"/>
      <point x="134" y="604" type="curve"/>
      <point x="119" y="511" type="line"/>
      <point x="60" y="511" type="line"/>
      <point x="60" y="671" type="line"/>
      <point x="531" y="671" type="line"/>
      <point x="531" y="625" type="line"/>
      <point x="158" y="51" type="line"/>
      <point x="443" y="51" type="line" smooth="yes"/>
      <point x="453" y="51"/>
      <point x="458" y="61"/>
      <point x="460" y="69" type="curve"/>
      <point x="477" y="185" type="line"/>
      <point x="536" y="185" type="line"/>
      <point x="536" y="0" type="line"/>
    </contour>
    <contour>
      <point x="131.5" y="915" type="line"/>
      <point x="192.5" y="915" type="line"/>
      <point x="296.5" y="816" type="line"/>
      <point x="399.5" y="915" type="line"/>
      <point x="459.5" y="915" type="line"/>
      <point x="333.5" y="746" type="line"/>
      <point x="257.5" y="746" type="line"/>
    </contour>
  </outline>
</glyph>
<glyph name="uni0183" format="2">
  <advance width="555"/>
  <unicode hex="0183"/>
  <outline>
    <contour>
      <point x="90" y="0" type="line"/>
      <point x="90" y="737" type="line"/>
      <point x="466" y="737" type="line"/>
      <point x="466" y="581" type="line"/>
      <point x="411" y="581" type="line"/>
      <point x="398" y="671" type="line" smooth="yes"/>
      <point x="396.706" y="679.958"/>
      <point x="391" y="690"/>
      <point x="381" y="690" type="curve" smooth="yes"/>
      <point x="203" y="690" type="line" smooth="yes"/>
      <point x="191" y="690"/>
      <point x="182.052" y="680"/>
      <point x="182" y="669" type="curve"/>
      <point x="182" y="457" type="line"/>
      <point x="220" y="474"/>
      <point x="265" y="494"/>
      <point x="320" y="494" type="curve" smooth="yes"/>
      <point x="452.003" y="494"/>
      <point x="520" y="395.741"/>
      <point x="520" y="264" type="curve" smooth="yes"/>
      <point x="520" y="88.5975"/>
      <point x="411.49" y="0"/>
      <point x="234" y="0" type="curve" smooth="yes"/>
    </contour>
    <contour>
      <point x="182" y="48" type="line"/>
      <point x="196.698" y="47"/>
      <point x="214.754" y="47"/>
      <point x="231" y="47" type="curve" smooth="yes"/>
      <point x="362" y="47"/>
      <point x="418" y="112"/>
      <point x="418" y="244" type="curve" smooth="yes"/>
      <point x="418" y="357"/>
      <point x="371" y="435"/>
      <point x="265" y="435" type="curve" smooth="yes"/>
      <point x="235" y="435"/>
      <point x="206" y="427"/>
      <point x="182" y="419" type="curve"/>
    </contour>
  </outline>
</glyph>
<glyph name="uni0186" format="2">
  <advance width="626"/>
  <unicode hex="0186"/>
  <outline>
    <contour>
      <point x="38" y="23" type="curve"/>
      <point x="38" y="180" type="line"/>
      <point x="98" y="180" type="line"/>
      <point x="114" y="89" type="line" smooth="yes"/>
      <point x="116.86" y="72.7355"/>
      <point x="131.835" y="64.1197"/>
      <point x="147" y="58" type="curve" smooth="yes"/>
      <point x="177.467" y="45.7052"/>
      <point x="204.725" y="40"/>
      <point x="233" y="40" type="curve" smooth="yes"/>
      <point x="396.136" y="40"/>
      <point x="474" y="164.139"/>
      <point x="474" y="330" type="curve" smooth="yes"/>
      <point x="474" y="503.513"/>
      <point x="393.618" y="631"/>
      <point x="222" y="631" type="curve" smooth="yes"/>
      <point x="194" y="631"/>
      <point x="167.241" y="625.401"/>
      <point x="148" y="618" type="curve" smooth="yes"/>
      <point x="135" y="613"/>
      <point x="124.797" y="608.254"/>
      <point x="122" y="595" type="curve" smooth="yes"/>
      <point x="99" y="486" type="line"/>
      <point x="40" y="486" type="line"/>
      <point x="40" y="648" type="line"/>
      <point x="90" y="665"/>
      <point x="164.252" y="686"/>
      <point x="239" y="686" type="curve" smooth="yes"/>
      <point x="451.017" y="686"/>
      <point x="588" y="542.43"/>
      <point x="588" y="333" type="curve" smooth="yes"/>
      <point x="588" y="119.945"/>
      <point x="450.259" y="-16"/>
      <point x="237" y="-16" type="curve" smooth="yes"/>
      <point x="158" y="-16"/>
      <point x="102" y="1"/>
    </contour>
  </outline>
</glyph>
<glyph name="uni018A" format="2">
  <advance width="768"/>
  <unicode hex="018A"/>
  <outline>
    <contour>
      <point x="-17" y="562" type="curve" smooth="yes"/>
      <point x="-17" y="646"/>
      <point x="55" y="670"/>
      <point x="146" y="670" type="curve" smooth="yes"/>
      <point x="361" y="670" type="line" smooth="yes"/>
      <point x="583.093" y="670"/>
      <point x="728" y="558.446"/>
      <point x="728" y="336" type="curve" smooth="yes"/>
      <point x="728" y="119.234"/>
      <point x="599.153" y="0"/>
      <point x="381" y="0" type="curve" smooth="yes"/>
      <point x="104" y="0" type="line"/>
      <point x="104" y="43" type="line"/>
      <point x="156" y="47" type="line" smooth="yes"/>
      <point x="167.012" y="47.8471"/>
      <point x="179" y="58"/>
      <point x="179" y="68" type="curve" smooth="yes"/>
      <point x="179" y="603" type="line" smooth="yes"/>
      <point x="179" y="616"/>
      <point x="171" y="624"/>
      <point x="158" y="624" type="curve" smooth="yes"/>
      <point x="120" y="624" type="line" smooth="yes"/>
      <point x="88" y="624"/>
      <point x="73" y="618"/>
      <point x="61" y="600" type="curve"/>
      <point x="103" y="529" type="line"/>
      <point x="87" y="511"/>
      <point x="68" y="499"/>
      <point x="39" y="499" type="curve" smooth="yes"/>
      <point x="6.41818" y="499"/>
      <point x="-17" y="530.5"/>
    </contour>
    <contour>
      <point x="279" y="48" type="line"/>
      <point x="361" y="48" type="line" smooth="yes"/>
      <point x="539" y="48"/>
      <point x="616" y="153.367"/>
      <point x="616" y="335" type="curve" smooth="yes"/>
      <point x="616" y="520"/>
      <point x="538" y="623"/>
      <point x="356" y="623" type="curve" smooth="yes"/>
      <point x="279" y="623" type="line"/>
    </contour>
  </outline>
</glyph>
<glyph name="uni018D" format="2">
  <advance width="519"/>
  <unicode hex="018D"/>
  <outline>
    <contour>
      <point x="35" y="257" type="curve" smooth="yes"/>
      <point x="35" y="394.258"/>
      <point x="123.14" y="493"/>
      <point x="257" y="493" type="curve" smooth="yes"/>
      <point x="395.038" y="493"/>
      <point x="486" y="417.423"/>
      <point x="486" y="278" type="curve" smooth="yes"/>
      <point x="486" y="144.719"/>
      <point x="371.374" y="83.4349"/>
      <point x="273" y="47" type="curve"/>
      <point x="309" y="22"/>
      <point x="347.914" y="-6.0989"/>
      <point x="380" y="-34" type="curve" smooth="yes"/>
      <point x="403" y="-54"/>
      <point x="429" y="-79"/>
      <point x="429" y="-117" type="curve" smooth="yes"/>
      <point x="429" y="-205.864"/>
      <point x="356.466" y="-254"/>
      <point x="268" y="-254" type="curve" smooth="yes"/>
      <point x="178.712" y="-254"/>
      <point x="66" y="-222.144"/>
      <point x="66" y="-139" type="curve" smooth="yes"/>
      <point x="66" y="-104.831"/>
      <point x="90.4" y="-83"/>
      <point x="127" y="-83" type="curve" smooth="yes"/>
      <point x="140" y="-83"/>
      <point x="157" y="-85"/>
      <point x="165" y="-90" type="curve"/>
      <point x="186" y="-169" type="line"/>
      <point x="209" y="-187"/>
      <point x="235" y="-204"/>
      <point x="272" y="-204" type="curve" smooth="yes"/>
      <point x="313.946" y="-204"/>
      <point x="356" y="-178.581"/>
      <point x="356" y="-136" type="curve" smooth="yes"/>
      <point x="356" y="-98.9378"/>
      <point x="289.122" y="-55.6383"/>
      <point x="255" y="-34" type="curve" smooth="yes"/>
      <point x="214" y="-8"/>
      <point x="172.935" y="21.9249"/>
      <point x="136" y="54" type="curve" smooth="yes"/>
      <point x="83.8038" y="99.3283"/>
      <point x="35" y="162.949"/>
    </contour>
    <contour>
      <point x="136" y="265" type="curve" smooth="yes"/>
      <point x="136" y="174.968"/>
      <point x="186.5" y="121.543"/>
      <point x="237" y="79" type="curve"/>
      <point x="309.941" y="114.213"/>
      <point x="385" y="172.315"/>
      <point x="385" y="279" type="curve" smooth="yes"/>
      <point x="385" y="368.834"/>
      <point x="350.362" y="449"/>
      <point x="263" y="449" type="curve" smooth="yes"/>
      <point x="168" y="449"/>
      <point x="136" y="361"/>
    </contour>
  </outline>
</glyph>
<glyph name="uni0193" format="2">
  <advance width="694"/>
  <unicode hex="0193"/>
  <outline>
    <contour>
      <point x="39" y="337" type="curve" smooth="yes"/>
      <point x="39" y="555.111"/>
      <point x="179.836" y="687"/>
      <point x="398" y="687" type="curve" smooth="yes"/>
      <point x="444.78" y="687"/>
      <point x="478.339" y="683"/>
      <point x="518" y="673" type="curve"/>
      <point x="526" y="774"/>
      <point x="573" y="844"/>
      <point x="682" y="844" type="curve" smooth="yes"/>
      <point x="729.067" y="844"/>
      <point x="777" y="827.555"/>
      <point x="777" y="782" type="curve" smooth="yes"/>
      <point x="777" y="750"/>
      <point x="757" y="733"/>
      <point x="734" y="725" type="curve"/>
      <point x="643" y="794" type="line"/>
      <point x="608" y="782"/>
      <point x="599" y="757"/>
      <point x="599" y="710" type="curve" smooth="yes"/>
      <point x="599" y="490" type="line"/>
      <point x="539" y="490" type="line"/>
      <point x="523" y="580" type="line" smooth="yes"/>
      <point x="520.014" y="596.799"/>
      <point x="504.161" y="606.667"/>
      <point x="489" y="613" type="curve" smooth="yes"/>
      <point x="466.09" y="622.569"/>
      <point x="435" y="630"/>
      <point x="402" y="630" type="curve" smooth="yes"/>
      <point x="232.952" y="630"/>
      <point x="153" y="511.53"/>
      <point x="153" y="341" type="curve" smooth="yes"/>
      <point x="153" y="164.928"/>
      <point x="236.921" y="39"/>
      <point x="410" y="39" type="curve" smooth="yes"/>
      <point x="443.124" y="39"/>
      <point x="472" y="46"/>
      <point x="497" y="55" type="curve"/>
      <point x="497" y="255" type="line" smooth="yes"/>
      <point x="497" y="268"/>
      <point x="489.002" y="275.03"/>
      <point x="476" y="276" type="curve" smooth="yes"/>
      <point x="409" y="281" type="line"/>
      <point x="409" y="324" type="line"/>
      <point x="670" y="324" type="line"/>
      <point x="670" y="281" type="line"/>
      <point x="619" y="276" type="line" smooth="yes"/>
      <point x="606.027" y="274.728"/>
      <point x="598" y="268"/>
      <point x="598" y="255" type="curve" smooth="yes"/>
      <point x="598" y="24" type="line"/>
      <point x="539" y="2"/>
      <point x="470" y="-16"/>
      <point x="388" y="-16" type="curve" smooth="yes"/>
      <point x="175.878" y="-16"/>
      <point x="39" y="126.384"/>
    </contour>
  </outline>
</glyph>
<glyph name="uni0199" format="2">
  <advance width="535"/>
  <unicode hex="0199"/>
  <outline>
    <contour>
      <point x="20" y="-1" type="line"/>
      <point x="20" y="38" type="line"/>
      <point x="69" y="42" type="line" smooth="yes"/>
      <point x="80" y="43"/>
      <point x="89" y="51"/>
      <point x="89" y="63" type="curve" smooth="yes"/>
      <point x="89" y="463" type="line" smooth="yes"/>
      <point x="89" y="607.416"/>
      <point x="149.661" y="737"/>
      <point x="293" y="737" type="curve" smooth="yes"/>
      <point x="336.204" y="737"/>
      <point x="380" y="718.759"/>
      <point x="380" y="678" type="curve" smooth="yes"/>
      <point x="380" y="644.903"/>
      <point x="360" y="631"/>
      <point x="334" y="623" type="curve"/>
      <point x="242" y="688" type="line"/>
      <point x="203.589" y="649.589"/>
      <point x="182" y="618.53"/>
      <point x="182" y="537" type="curve" smooth="yes"/>
      <point x="182" y="255" type="line"/>
      <point x="203" y="255" type="line"/>
      <point x="351" y="420" type="line"/>
      <point x="353.165" y="422.165"/>
      <point x="354.229" y="424.616"/>
      <point x="354.229" y="427" type="curve" smooth="yes"/>
      <point x="354.229" y="432.324"/>
      <point x="349.598" y="437.309"/>
      <point x="342" y="438" type="curve" smooth="yes"/>
      <point x="301" y="442" type="line"/>
      <point x="301" y="481" type="line"/>
      <point x="495" y="481" type="line"/>
      <point x="495" y="442" type="line"/>
      <point x="431" y="434" type="line"/>
      <point x="299" y="294" type="line"/>
      <point x="471" y="44" type="line"/>
      <point x="524" y="38" type="line"/>
      <point x="524" y="-1" type="line"/>
      <point x="369" y="-1" type="line"/>
      <point x="369" y="38" type="line"/>
      <point x="239" y="226" type="line"/>
      <point x="182" y="226" type="line"/>
      <point x="182" y="63" type="line" smooth="yes"/>
      <point x="182" y="51"/>
      <point x="192" y="43"/>
      <point x="203" y="42" type="curve" smooth="yes"/>
      <point x="247" y="38" type="line"/>
      <point x="247" y="-1" type="line"/>
    </contour>
  </outline>
</glyph>
<glyph name="uni01A3" format="2">
  <advance width="740"/>
  <unicode hex="01A3"/>
  <outline>
    <contour>
      <point x="35" y="239" type="curve" smooth="yes"/>
      <point x="35" y="386.819"/>
      <point x="125.699" y="494"/>
      <point x="274" y="494" type="curve" smooth="yes"/>
      <point x="323.565" y="494"/>
      <point x="368.132" y="487.191"/>
      <point x="418" y="472" type="curve" smooth="yes"/>
      <point x="448.305" y="462.768"/>
      <point x="478.957" y="458"/>
      <point x="508" y="458" type="curve" smooth="yes"/>
      <point x="547" y="458"/>
      <point x="574" y="464.171"/>
      <point x="613" y="482" type="curve"/>
      <point x="652" y="482" type="line"/>
      <point x="652" y="-154" type="line" smooth="yes"/>
      <point x="652" y="-166"/>
      <point x="661.979" y="-175.364"/>
      <point x="673" y="-176" type="curve" smooth="yes"/>
      <point x="725" y="-179" type="line"/>
      <point x="725" y="-218" type="line"/>
      <point x="490" y="-218" type="line"/>
      <point x="490" y="-179" type="line"/>
      <point x="539" y="-176" type="line" smooth="yes"/>
      <point x="550.02" y="-175.325"/>
      <point x="560" y="-167"/>
      <point x="560" y="-155" type="curve" smooth="yes"/>
      <point x="560" y="398" type="line"/>
      <point x="548.663" y="395.384"/>
      <point x="532.75" y="394"/>
      <point x="514" y="394" type="curve" smooth="yes"/>
      <point x="495.25" y="394"/>
      <point x="479.337" y="395.384"/>
      <point x="468" y="398" type="curve"/>
      <point x="468" y="111" type="line" smooth="yes"/>
      <point x="468" y="20.2707"/>
      <point x="364.939" y="-13"/>
      <point x="271" y="-13" type="curve" smooth="yes"/>
      <point x="121.938" y="-13"/>
      <point x="35" y="90.6423"/>
    </contour>
    <contour>
      <point x="138" y="241" type="curve" smooth="yes"/>
      <point x="138" y="140.934"/>
      <point x="174.188" y="32"/>
      <point x="272" y="32" type="curve" smooth="yes"/>
      <point x="345" y="32"/>
      <point x="375" y="66"/>
      <point x="375" y="139" type="curve" smooth="yes"/>
      <point x="375" y="424" type="line"/>
      <point x="335.315" y="442.602"/>
      <point x="312.375" y="448"/>
      <point x="273" y="448" type="curve" smooth="yes"/>
      <point x="171.317" y="448"/>
      <point x="138" y="342.558"/>
    </contour>
  </outline>
</glyph>
<glyph name="uni01AE" format="2">
  <advance width="599"/>
  <unicode hex="01AE"/>
  <outline>
    <contour>
      <point x="16" y="511" type="line"/>
      <point x="16" y="671" type="line"/>
      <point x="583" y="671" type="line"/>
      <point x="583" y="511" type="line"/>
      <point x="524" y="511" type="line"/>
      <point x="510" y="605" type="line"/>
      <point x="509" y="615"/>
      <point x="503" y="622"/>
      <point x="493" y="622" type="curve" smooth="yes"/>
      <point x="350" y="622" type="line"/>
      <point x="350" y="-21" type="line" smooth="yes"/>
      <point x="350" y="-86"/>
      <point x="350" y="-160"/>
      <point x="391" y="-183" type="curve"/>
      <point x="488" y="-116" type="line"/>
      <point x="512" y="-123"/>
      <point x="530" y="-142"/>
      <point x="530" y="-173" type="curve" smooth="yes"/>
      <point x="530" y="-213"/>
      <point x="495" y="-229"/>
      <point x="455" y="-229" type="curve" smooth="yes"/>
      <point x="299" y="-229"/>
      <point x="249" y="-114"/>
      <point x="249" y="42" type="curve" smooth="yes"/>
      <point x="249" y="622" type="line"/>
      <point x="105" y="622" type="line" smooth="yes"/>
      <point x="95" y="622"/>
      <point x="89" y="615"/>
      <point x="88" y="605" type="curve"/>
      <point x="74" y="511" type="line"/>
    </contour>
  </outline>
</glyph>
<glyph name="uni01B2" format="2">
  <advance width="706"/>
  <unicode hex="01B2"/>
  <outline>
    <contour>
      <point x="29" y="630" type="line"/>
      <point x="29" y="671" type="line"/>
      <point x="207" y="671" type="line"/>
      <point x="207" y="229" type="line" smooth="yes"/>
      <point x="207" y="119.334"/>
      <point x="273.031" y="51"/>
      <point x="379" y="51" type="curve" smooth="yes"/>
      <point x="509.671" y="51"/>
      <point x="604" y="177.192"/>
      <point x="604" y="352" type="curve" smooth="yes"/>
      <point x="604" y="438.765"/>
      <point x="572.871" y="515.671"/>
      <point x="519" y="562" type="curve"/>
      <point x="413" y="562" type="line"/>
      <point x="394.471" y="574.353"/>
      <point x="383" y="595"/>
      <point x="383" y="616" type="curve" smooth="yes"/>
      <point x="383" y="657.095"/>
      <point x="418.38" y="687"/>
      <point x="467" y="687" type="curve" smooth="yes"/>
      <point x="573.328" y="687"/>
      <point x="667" y="537.125"/>
      <point x="667" y="367" type="curve" smooth="yes"/>
      <point x="667" y="126.007"/>
      <point x="542.614" y="-17"/>
      <point x="333" y="-17" type="curve" smooth="yes"/>
      <point x="197.688" y="-17"/>
      <point x="106" y="73.8798"/>
      <point x="106" y="208" type="curve" smooth="yes"/>
      <point x="106" y="604" type="line" smooth="yes"/>
      <point x="106" y="615.5"/>
      <point x="97.5455" y="623.955"/>
      <point x="85" y="625" type="curve" smooth="yes"/>
    </contour>
  </outline>
</glyph>
<glyph name="uni01BC" format="2">
  <advance width="556"/>
  <unicode hex="01BC"/>
  <outline>
    <contour>
      <point x="21" y="628" type="line"/>
      <point x="21" y="671" type="line"/>
      <point x="484" y="671" type="line"/>
      <point x="484" y="515" type="line"/>
      <point x="429" y="515" type="line"/>
      <point x="417" y="605" type="line" smooth="yes"/>
      <point x="415.583" y="615.629"/>
      <point x="407.652" y="624"/>
      <point x="399" y="624" type="curve" smooth="yes"/>
      <point x="207" y="624" type="line" smooth="yes"/>
      <point x="196.403" y="624"/>
      <point x="185" y="613.116"/>
      <point x="185" y="603" type="curve" smooth="yes"/>
      <point x="185" y="464" type="line"/>
      <point x="378.933" y="464"/>
      <point x="516" y="363.374"/>
      <point x="516" y="221" type="curve" smooth="yes"/>
      <point x="516" y="76.7807"/>
      <point x="408.549" y="-12"/>
      <point x="234" y="-12" type="curve" smooth="yes"/>
      <point x="125.873" y="-12"/>
      <point x="44" y="38.4164"/>
      <point x="44" y="105" type="curve" smooth="yes"/>
      <point x="44" y="138.207"/>
      <point x="68.2105" y="162"/>
      <point x="102" y="162" type="curve" smooth="yes"/>
      <point x="110.1" y="162"/>
      <point x="125.196" y="159.641"/>
      <point x="134" y="157" type="curve"/>
      <point x="167" y="65" type="line"/>
      <point x="182.69" y="49.3104"/>
      <point x="222.282" y="35"/>
      <point x="250" y="35" type="curve" smooth="yes"/>
      <point x="343.778" y="35"/>
      <point x="415" y="104.063"/>
      <point x="415" y="195" type="curve" smooth="yes"/>
      <point x="415" y="307.091"/>
      <point x="289.94" y="379"/>
      <point x="95" y="379" type="curve"/>
      <point x="95" y="604" type="line" smooth="yes"/>
      <point x="95" y="613.829"/>
      <point x="85.2082" y="623.154"/>
      <point x="74" y="624" type="curve" smooth="yes"/>
    </contour>
  </outline>
</glyph>
<glyph name="uni01C8" format="2">
  <advance width="821"/>
  <unicode hex="01C8"/>
  <outline>
    <contour>
      <point x="27" y="0" type="line"/>
      <point x="27" y="43" type="line"/>
      <point x="85" y="47" type="line" smooth="yes"/>
      <point x="97" y="48"/>
      <point x="106" y="57"/>
      <point x="106" y="69" type="curve" smooth="yes"/>
      <point x="106" y="602" type="line" smooth="yes"/>
      <point x="106" y="614"/>
      <point x="97" y="623"/>
      <point x="85" y="624" type="curve" smooth="yes"/>
      <point x="27" y="628" type="line"/>
      <point x="27" y="671" type="line"/>
      <point x="282" y="671" type="line"/>
      <point x="282" y="628" type="line"/>
      <point x="229" y="624" type="line" smooth="yes"/>
      <point x="217" y="623"/>
      <point x="207" y="614"/>
      <point x="207" y="602" type="curve" smooth="yes"/>
      <point x="207" y="49" type="line"/>
      <point x="417" y="49" type="line" smooth="yes"/>
      <point x="427" y="49"/>
      <point x="438" y="57"/>
      <point x="439" y="66" type="curve" smooth="yes"/>
      <point x="455" y="186" type="line"/>
      <point x="513" y="186" type="line"/>
      <point x="513" y="0" type="line"/>
    </contour>
    <contour>
      <point x="451" y="-174" type="curve" smooth="yes"/>
      <point x="451" y="-141"/>
      <point x="471" y="-126"/>
      <point x="494" y="-116" type="curve"/>
      <point x="591" y="-183" type="line"/>
      <point x="633" y="-159"/>
      <point x="639" y="-87"/>
      <point x="639" y="-21" type="curve" smooth="yes"/>
      <point x="639" y="423" type="line"/>
      <point x="568" y="423" type="line"/>
      <point x="568" y="456" type="line"/>
      <point x="691" y="494" type="line"/>
      <point x="732" y="494" type="line"/>
      <point x="732" y="64" type="line" smooth="yes"/>
      <point x="732" y="-97.3662"/>
      <point x="682.257" y="-229"/>
      <point x="527" y="-229" type="curve" smooth="yes"/>
      <point x="486" y="-229"/>
      <point x="451" y="-214"/>
    </contour>
    <contour>
      <point x="620" y="647" type="curve" smooth="yes"/>
      <point x="620" y="681.224"/>
      <point x="647.776" y="709"/>
      <point x="682" y="709" type="curve" smooth="yes"/>
      <point x="716.224" y="709"/>
      <point x="744" y="681.224"/>
      <point x="744" y="647" type="curve" smooth="yes"/>
      <point x="744" y="612.776"/>
      <point x="716.224" y="585"/>
      <point x="682" y="585" type="curve" smooth="yes"/>
      <point x="647.776" y="585"/>
      <point x="620" y="612.776"/>
    </contour>
  </outline>
</glyph>
<glyph name="uni01C9" format="2">
  <advance width="587"/>
  <unicode hex="01C9"/>
  <outline>
    <contour>
      <point x="26" y="665" type="line"/>
      <point x="26" y="698" type="line"/>
      <point x="154" y="737" type="line"/>
      <point x="195" y="737" type="line"/>
      <point x="195" y="63" type="line" smooth="yes"/>
      <point x="195" y="54"/>
      <point x="207" y="42"/>
      <point x="216" y="42" type="curve"/>
      <point x="270" y="39" type="line"/>
      <point x="270" y="0" type="line"/>
      <point x="27" y="0" type="line"/>
      <point x="27" y="39" type="line"/>
      <point x="80" y="42" type="line"/>
      <point x="89" y="42"/>
      <point x="102" y="54"/>
      <point x="102" y="63" type="curve" smooth="yes"/>
      <point x="102" y="665" type="line"/>
    </contour>
    <contour>
      <point x="217" y="-174" type="curve" smooth="yes"/>
      <point x="217" y="-141"/>
      <point x="237" y="-126"/>
      <point x="260" y="-116" type="curve"/>
      <point x="357" y="-183" type="line"/>
      <point x="399" y="-159"/>
      <point x="405" y="-87"/>
      <point x="405" y="-21" type="curve" smooth="yes"/>
      <point x="405" y="423" type="line"/>
      <point x="334" y="423" type="line"/>
      <point x="334" y="456" type="line"/>
      <point x="457" y="494" type="line"/>
      <point x="498" y="494" type="line"/>
      <point x="498" y="64" type="line" smooth="yes"/>
      <point x="498" y="-97.3662"/>
      <point x="438.257" y="-229"/>
      <point x="293" y="-229" type="curve" smooth="yes"/>
      <point x="252" y="-229"/>
      <point x="217" y="-214"/>
    </contour>
    <contour>
      <point x="386" y="647" type="curve" smooth="yes"/>
      <point x="386" y="681.224"/>
      <point x="413.776" y="709"/>
      <point x="448" y="709" type="curve" smooth="yes"/>
      <point x="482.224" y="709"/>
      <point x="510" y="681.224"/>
      <point x="510" y="647" type="curve" smooth="yes"/>
      <point x="510" y="612.776"/>
      <point x="482.224" y="585"/>
      <point x="448" y="585" type="curve" smooth="yes"/>
      <point x="413.776" y="585"/>
      <point x="386" y="612.776"/>
    </contour>
  </outline>
</glyph>
<glyph name="uni01CB" format="2">
  <advance width="1012"/>
  <unicode hex="01CB"/>
  <outline>
    <contour>
      <point x="25" y="628" type="line"/>
      <point x="25" y="671" type="line"/>
      <point x="223" y="671" type="line"/>
      <point x="223" y="646" type="line"/>
      <point x="556" y="143" type="line"/>
      <point x="556" y="602" type="line" smooth="yes"/>
      <point x="556" y="613"/>
      <point x="546" y="623"/>
      <point x="535" y="624" type="curve" smooth="yes"/>
      <point x="478" y="628" type="line"/>
      <point x="478" y="671" type="line"/>
      <point x="692" y="671" type="line"/>
      <point x="692" y="628" type="line"/>
      <point x="636" y="624" type="line" smooth="yes"/>
      <point x="624" y="623"/>
      <point x="615" y="614"/>
      <point x="615" y="602" type="curve" smooth="yes"/>
      <point x="615" y="0" type="line"/>
      <point x="537" y="0" type="line"/>
      <point x="165" y="560" type="line"/>
      <point x="165" y="69" type="line" smooth="yes"/>
      <point x="165" y="57"/>
      <point x="174" y="48"/>
      <point x="186" y="47" type="curve" smooth="yes"/>
      <point x="243" y="43" type="line"/>
      <point x="243" y="0" type="line"/>
      <point x="27" y="0" type="line"/>
      <point x="27" y="43" type="line"/>
      <point x="84" y="47" type="line" smooth="yes"/>
      <point x="96" y="48"/>
      <point x="106" y="57"/>
      <point x="106" y="69" type="curve" smooth="yes"/>
      <point x="106" y="602" type="line" smooth="yes"/>
      <point x="106" y="614"/>
      <point x="96" y="623"/>
      <point x="84" y="624" type="curve" smooth="yes"/>
    </contour>
    <contour>
      <point x="642" y="-174" type="curve" smooth="yes"/>
      <point x="642" y="-141"/>
      <point x="662" y="-126"/>
      <point x="685" y="-116" type="curve"/>
      <point x="782" y="-183" type="line"/>
      <point x="824" y="-159"/>
      <point x="830" y="-87"/>
      <point x="830" y="-21" type="curve" smooth="yes"/>
      <point x="830" y="423" type="line"/>
      <point x="759" y="423" type="line"/>
      <point x="759" y="456" type="line"/>
      <point x="882" y="494" type="line"/>
      <point x="923" y="494" type="line"/>
      <point x="923" y="64" type="line" smooth="yes"/>
      <point x="923" y="-97.3662"/>
      <point x="863.257" y="-229"/>
      <point x="718" y="-229" type="curve" smooth="yes"/>
      <point x="677" y="-229"/>
      <point x="642" y="-214"/>
    </contour>
    <contour>
      <point x="811" y="647" type="curve" smooth="yes"/>
      <point x="811" y="681.224"/>
      <point x="838.776" y="709"/>
      <point x="873" y="709" type="curve" smooth="yes"/>
      <point x="907.224" y="709"/>
      <point x="935" y="681.224"/>
      <point x="935" y="647" type="curve" smooth="yes"/>
      <point x="935" y="612.776"/>
      <point x="907.224" y="585"/>
      <point x="873" y="585" type="curve" smooth="yes"/>
      <point x="838.776" y="585"/>
      <point x="811" y="612.776"/>
    </contour>
  </outline>
</glyph>
<glyph name="uni01CF" format="2">
  <advance width="330"/>
  <unicode hex="01CF"/>
  <outline>
    <contour>
      <point x="1" y="915" type="line"/>
      <point x="62" y="915" type="line"/>
      <point x="166" y="816" type="line"/>
      <point x="269" y="915" type="line"/>
      <point x="329" y="915" type="line"/>
      <point x="203" y="746" type="line"/>
      <point x="127" y="746" type="line"/>
    </contour>
    <contour>
      <point x="33" y="0" type="line"/>
      <point x="33" y="43" type="line"/>
      <point x="93" y="47" type="line" smooth="yes"/>
      <point x="105" y="48"/>
      <point x="114" y="57"/>
      <point x="114" y="69" type="curve" smooth="yes"/>
      <point x="114" y="602" type="line" smooth="yes"/>
      <point x="114" y="614"/>
      <point x="105" y="622"/>
      <point x="93" y="623" type="curve" smooth="yes"/>
      <point x="33" y="627" type="line"/>
      <point x="33" y="671" type="line"/>
      <point x="297" y="671" type="line"/>
      <point x="297" y="627" type="line"/>
      <point x="236" y="623" type="line" smooth="yes"/>
      <point x="225" y="622"/>
      <point x="215" y="613"/>
      <point x="215" y="602" type="curve" smooth="yes"/>
      <point x="215" y="69" type="line" smooth="yes"/>
      <point x="215" y="58"/>
      <point x="225" y="48"/>
      <point x="236" y="47" type="curve" smooth="yes"/>
      <point x="297" y="43" type="line"/>
      <point x="297" y="0" type="line"/>
    </contour>
  </outline>
</glyph>
<glyph name="uni01F1" format="2">
  <advance width="1270"/>
  <unicode hex="01F1"/>
  <outline>
    <contour>
      <point x="33" y="0" type="line"/>
      <point x="33" y="43" type="line"/>
      <point x="86" y="47" type="line" smooth="yes"/>
      <point x="98" y="48"/>
      <point x="108" y="57"/>
      <point x="108" y="69" type="curve" smooth="yes"/>
      <point x="108" y="602" type="line" smooth="yes"/>
      <point x="108" y="614"/>
      <point x="98" y="623"/>
      <point x="86" y="624" type="curve" smooth="yes"/>
      <point x="33" y="628" type="line"/>
      <point x="33" y="671" type="line"/>
      <point x="291" y="671" type="line" smooth="yes"/>
      <point x="514" y="671"/>
      <point x="657" y="561"/>
      <point x="657" y="337" type="curve" smooth="yes"/>
      <point x="657" y="119"/>
      <point x="529" y="0"/>
      <point x="311" y="0" type="curve" smooth="yes"/>
    </contour>
    <contour>
      <point x="208" y="48" type="line"/>
      <point x="289" y="48" type="line" smooth="yes"/>
      <point x="466" y="48"/>
      <point x="544" y="154"/>
      <point x="544" y="335" type="curve" smooth="yes"/>
      <point x="544" y="519"/>
      <point x="465" y="623"/>
      <point x="284" y="623" type="curve" smooth="yes"/>
      <point x="208" y="623" type="line"/>
    </contour>
    <contour>
      <point x="734" y="0" type="line"/>
      <point x="734" y="44" type="line"/>
      <point x="1106" y="621" type="line"/>
      <point x="846" y="621" type="line" smooth="yes"/>
      <point x="836" y="621"/>
      <point x="831" y="612"/>
      <point x="829" y="604" type="curve"/>
      <point x="814" y="511" type="line"/>
      <point x="755" y="511" type="line"/>
      <point x="755" y="671" type="line"/>
      <point x="1226" y="671" type="line"/>
      <point x="1226" y="625" type="line"/>
      <point x="853" y="51" type="line"/>
      <point x="1138" y="51" type="line" smooth="yes"/>
      <point x="1148" y="51"/>
      <point x="1153" y="61"/>
      <point x="1155" y="69" type="curve"/>
      <point x="1172" y="185" type="line"/>
      <point x="1231" y="185" type="line"/>
      <point x="1231" y="0" type="line"/>
    </contour>
  </outline>
</glyph>
<glyph name="uni01F4" format="2">
  <advance width="694"/>
  <unicode hex="01F4"/>
  <outline>
    <contour>
      <point x="39" y="336" type="curve" smooth="yes"/>
      <point x="39" y="557"/>
      <point x="180" y="686"/>
      <point x="401" y="686" type="curve" smooth="yes"/>
      <point x="460.119" y="686"/>
      <point x="511.697" y="677.053"/>
      <point x="597" y="652" type="curve"/>
      <point x="597" y="490" type="line"/>
      <point x="537" y="490" type="line"/>
      <point x="521" y="580" type="line"/>
      <point x="519" y="594"/>
      <point x="511" y="604"/>
      <point x="499" y="609" type="curve"/>
      <point x="488" y="614" type="line" smooth="yes"/>
      <point x="468" y="623"/>
      <point x="429" y="630"/>
      <point x="398" y="630" type="curve" smooth="yes"/>
      <point x="233" y="630"/>
      <point x="153" y="508"/>
      <point x="153" y="341" type="curve" smooth="yes"/>
      <point x="153" y="166"/>
      <point x="237" y="41"/>
      <point x="410" y="41" type="curve" smooth="yes"/>
      <point x="435" y="41"/>
      <point x="484" y="50"/>
      <point x="497" y="57" type="curve"/>
      <point x="497" y="255" type="line" smooth="yes"/>
      <point x="497" y="268"/>
      <point x="489" y="275"/>
      <point x="476" y="276" type="curve" smooth="yes"/>
      <point x="409" y="281" type="line"/>
      <point x="409" y="324" type="line"/>
      <point x="670" y="324" type="line"/>
      <point x="670" y="281" type="line"/>
      <point x="619" y="276" type="line" smooth="yes"/>
      <point x="606" y="275"/>
      <point x="598" y="268"/>
      <point x="598" y="255" type="curve" smooth="yes"/>
      <point x="598" y="25" type="line"/>
      <point x="539" y="3"/>
      <point x="470" y="-15"/>
      <point x="388" y="-15" type="curve" smooth="yes"/>
      <point x="176" y="-15"/>
      <point x="39" y="127"/>
    </contour>
    <contour>
      <point x="313" y="746" type="line"/>
      <point x="445" y="901" type="line"/>
      <point x="457" y="916"/>
      <point x="470" y="928"/>
      <point x="498" y="928" type="curve" smooth="yes"/>
      <point x="527.658" y="928"/>
      <point x="545" y="911.588"/>
      <point x="545" y="883" type="curve" smooth="yes"/>
      <point x="545" y="864"/>
      <point x="533.012" y="849.981"/>
      <point x="522" y="843" type="curve" smooth="yes"/>
      <point x="369" y="746" type="line"/>
    </contour>
  </outline>
</glyph>
<glyph name="Aringacute" format="2">
  <advance width="673"/>
  <unicode hex="01FA"/>
  <outline>
    <contour>
      <point x="5" y="0" type="line"/>
      <point x="5" y="43" type="line"/>
      <point x="63" y="56" type="line"/>
      <point x="296" y="688" type="line"/>
      <point x="371" y="688" type="line"/>
      <point x="603" y="71" type="line" smooth="yes"/>
      <point x="608.231" y="57.0869"/>
      <point x="611.054" y="53.3018"/>
      <point x="624" y="51" type="curve" smooth="yes"/>
      <point x="669" y="43" type="line"/>
      <point x="669" y="0" type="line"/>
      <point x="431" y="0" type="line"/>
      <point x="431" y="43" type="line"/>
      <point x="489" y="49" type="line" smooth="yes"/>
      <point x="496.712" y="49.7979"/>
      <point x="500" y="54.1426"/>
      <point x="500" y="61" type="curve"/>
      <point x="500" y="62.667"/>
      <point x="499.396" y="64.9492"/>
      <point x="499" y="66" type="curve"/>
      <point x="430" y="249" type="line"/>
      <point x="199" y="249" type="line"/>
      <point x="133" y="69" type="line"/>
      <point x="132.631" y="67.9922"/>
      <point x="132" y="65"/>
      <point x="132" y="63" type="curve"/>
      <point x="132" y="53.9414"/>
      <point x="138.009" y="49.9141"/>
      <point x="147" y="49" type="curve" smooth="yes"/>
      <point x="206" y="43" type="line"/>
      <point x="206" y="0" type="line"/>
    </contour>
    <contour>
      <point x="214" y="798" type="curve" smooth="yes"/>
      <point x="214" y="728"/>
      <point x="265" y="680"/>
      <point x="335" y="680" type="curve" smooth="yes"/>
      <point x="405" y="680"/>
      <point x="456" y="728"/>
      <point x="456" y="798" type="curve" smooth="yes"/>
      <point x="456" y="868"/>
      <point x="406" y="917"/>
      <point x="336" y="917" type="curve" smooth="yes"/>
      <point x="266" y="917"/>
      <point x="214" y="868"/>
    </contour>
    <contour>
      <point x="217" y="296" type="line"/>
      <point x="412" y="296" type="line"/>
      <point x="314" y="558" type="line"/>
    </contour>
    <contour>
      <point x="267" y="798" type="curve" smooth="yes"/>
      <point x="267" y="838"/>
      <point x="295" y="869"/>
      <point x="335" y="869" type="curve" smooth="yes"/>
      <point x="375" y="869"/>
      <point x="403" y="838"/>
      <point x="403" y="798" type="curve" smooth="yes"/>
      <point x="403" y="758"/>
      <point x="375" y="729"/>
      <point x="335" y="729" type="curve" smooth="yes"/>
      <point x="295" y="729"/>
      <point x="267" y="758"/>
    </contour>
    <contour>
      <point x="308" y="977" type="line"/>
      <point x="440" y="1132" type="line"/>
      <point x="452" y="1147"/>
      <point x="465" y="1159"/>
      <point x="493" y="1159" type="curve" smooth="yes"/>
      <point x="522.658" y="1159"/>
      <point x="540" y="1142.59"/>
      <point x="540" y="1114" type="curve" smooth="yes"/>
      <point x="540" y="1095"/>
      <point x="528.012" y="1080.98"/>
      <point x="517" y="1074" type="curve" smooth="yes"/>
      <point x="364" y="977" type="line"/>
    </contour>
  </outline>
</glyph>
<glyph name="uni0206" format="2">
  <advance width="583"/>
  <unicode hex="0206"/>
  <outline>
    <contour>
      <point x="32" y="0" type="line"/>
      <point x="32" y="43" type="line"/>
      <point x="84" y="47" type="line" smooth="yes"/>
      <point x="96" y="48"/>
      <point x="106" y="57"/>
      <point x="106" y="69" type="curve" smooth="yes"/>
      <point x="106" y="602" type="line" smooth="yes"/>
      <point x="106" y="614"/>
      <point x="96" y="623"/>
      <point x="84" y="624" type="curve" smooth="yes"/>
      <point x="32" y="628" type="line"/>
      <point x="32" y="671" type="line"/>
      <point x="518" y="671" type="line"/>
      <point x="518" y="522" type="line"/>
      <point x="458" y="522" type="line"/>
      <point x="443" y="604" type="line"/>
      <point x="441" y="613"/>
      <point x="435" y="623"/>
      <point x="425" y="623" type="curve" smooth="yes"/>
      <point x="208" y="623" type="line"/>
      <point x="208" y="374" type="line"/>
      <point x="358" y="374" type="line" smooth="yes"/>
      <point x="368" y="374"/>
      <point x="374" y="380"/>
      <point x="376" y="391" type="curve"/>
      <point x="386" y="460" type="line"/>
      <point x="437" y="460" type="line"/>
      <point x="437" y="237" type="line"/>
      <point x="386" y="237" type="line"/>
      <point x="377" y="306" type="line"/>
      <point x="376" y="316"/>
      <point x="370" y="324"/>
      <point x="359" y="324" type="curve" smooth="yes"/>
      <point x="209" y="324" type="line"/>
      <point x="209" y="49" type="line"/>
      <point x="462" y="49" type="line" smooth="yes"/>
      <point x="470" y="49"/>
      <point x="478" y="61"/>
      <point x="479" y="68" type="curve"/>
      <point x="497" y="167" type="line"/>
      <point x="551" y="167" type="line"/>
      <point x="551" y="0" type="line"/>
    </contour>
    <contour>
      <point x="126.5" y="746" type="line"/>
      <point x="126.5" y="831.626"/>
      <point x="188.604" y="895"/>
      <point x="275.5" y="895" type="curve" smooth="yes"/>
      <point x="364.226" y="895"/>
      <point x="423.5" y="833.049"/>
      <point x="423.5" y="746" type="curve"/>
      <point x="384.5" y="746" type="line"/>
      <point x="372.5" y="796.617"/>
      <point x="335.5" y="828"/>
      <point x="274.5" y="828" type="curve" smooth="yes"/>
      <point x="214.609" y="828"/>
      <point x="178.282" y="796.617"/>
      <point x="166.5" y="746" type="curve"/>
    </contour>
  </outline>
</glyph>
<glyph name="uni020A" format="2">
  <advance width="330"/>
  <unicode hex="020A"/>
  <outline>
    <contour>
      <point x="16.5" y="746" type="line"/>
      <point x="16.5" y="831.626"/>
      <point x="78.6035" y="895"/>
      <point x="165.5" y="895" type="curve" smooth="yes"/>
      <point x="254.226" y="895"/>
      <point x="313.5" y="833.049"/>
      <point x="313.5" y="746" type="curve"/>
      <point x="274.5" y="746" type="line"/>
      <point x="262.5" y="796.617"/>
      <point x="225.5" y="828"/>
      <point x="164.5" y="828" type="curve" smooth="yes"/>
      <point x="104.609" y="828"/>
      <point x="68.2822" y="796.617"/>
      <point x="56.5" y="746" type="curve"/>
    </contour>
    <contour>
      <point x="33" y="0" type="line"/>
      <point x="33" y="43" type="line"/>
      <point x="93" y="47" type="line" smooth="yes"/>
      <point x="105" y="48"/>
      <point x="114" y="57"/>
      <point x="114" y="69" type="curve" smooth="yes"/>
      <point x="114" y="602" type="line" smooth="yes"/>
      <point x="114" y="614"/>
      <point x="105" y="622"/>
      <point x="93" y="623" type="curve" smooth="yes"/>
      <point x="33" y="627" type="line"/>
      <point x="33" y="671" type="line"/>
      <point x="297" y="671" type="line"/>
      <point x="297" y="627" type="line"/>
      <point x="236" y="623" type="line" smooth="yes"/>
      <point x="225" y="622"/>
      <point x="215" y="613"/>
      <point x="215" y="602" type="curve" smooth="yes"/>
      <point x="215" y="69" type="line" smooth="yes"/>
      <point x="215" y="58"/>
      <point x="225" y="48"/>
      <point x="236" y="47" type="curve" smooth="yes"/>
      <point x="297" y="43" type="line"/>
      <point x="297" y="0" type="line"/>
    </contour>
  </outline>
</glyph>
<glyph name="uni020E" format="2">
  <advance width="730"/>
  <unicode hex="020E"/>
  <outline>
    <contour>
      <point x="217.5" y="746" type="line"/>
      <point x="217.5" y="831.626"/>
      <point x="279.604" y="895"/>
      <point x="366.5" y="895" type="curve" smooth="yes"/>
      <point x="455.226" y="895"/>
      <point x="514.5" y="833.049"/>
      <point x="514.5" y="746" type="curve"/>
      <point x="475.5" y="746" type="line"/>
      <point x="463.5" y="796.617"/>
      <point x="426.5" y="828"/>
      <point x="365.5" y="828" type="curve" smooth="yes"/>
      <point x="305.609" y="828"/>
      <point x="269.282" y="796.617"/>
      <point x="257.5" y="746" type="curve"/>
    </contour>
    <contour>
      <point x="39" y="337" type="curve" smooth="yes"/>
      <point x="39" y="526"/>
      <point x="176" y="686"/>
      <point x="366" y="686" type="curve" smooth="yes"/>
      <point x="556" y="686"/>
      <point x="693" y="526"/>
      <point x="693" y="337" type="curve" smooth="yes"/>
      <point x="693" y="147"/>
      <point x="556" y="-15"/>
      <point x="366" y="-15" type="curve" smooth="yes"/>
      <point x="176" y="-15"/>
      <point x="39" y="147"/>
    </contour>
    <contour>
      <point x="155" y="337" type="curve" smooth="yes"/>
      <point x="155" y="207"/>
      <point x="214" y="39"/>
      <point x="364" y="39" type="curve" smooth="yes"/>
      <point x="514" y="39"/>
      <point x="576" y="207"/>
      <point x="576" y="337" type="curve" smooth="yes"/>
      <point x="576" y="467"/>
      <point x="518" y="628"/>
      <point x="368" y="628" type="curve" smooth="yes"/>
      <point x="218" y="628"/>
      <point x="155" y="467"/>
    </contour>
  </outline>
</glyph>
<glyph name="uni021A" format="2">
  <advance width="599"/>
  <unicode hex="021A"/>
  <outline>
    <contour>
      <point x="16" y="511" type="line"/>
      <point x="16" y="671" type="line"/>
      <point x="583" y="671" type="line"/>
      <point x="583" y="511" type="line"/>
      <point x="524" y="511" type="line"/>
      <point x="510" y="605" type="line"/>
      <point x="509" y="615"/>
      <point x="503" y="622"/>
      <point x="493" y="622" type="curve" smooth="yes"/>
      <point x="350" y="622" type="line"/>
      <point x="350" y="69" type="line" smooth="yes"/>
      <point x="350" y="57"/>
      <point x="359" y="48"/>
      <point x="371" y="47" type="curve" smooth="yes"/>
      <point x="435" y="43" type="line"/>
      <point x="435" y="0" type="line"/>
      <point x="164" y="0" type="line"/>
      <point x="164" y="43" type="line"/>
      <point x="228" y="47" type="line" smooth="yes"/>
      <point x="240" y="48"/>
      <point x="249" y="57"/>
      <point x="249" y="69" type="curve" smooth="yes"/>
      <point x="249" y="622" type="line"/>
      <point x="105" y="622" type="line" smooth="yes"/>
      <point x="95" y="622"/>
      <point x="89" y="615"/>
      <point x="88" y="605" type="curve"/>
      <point x="74" y="511" type="line"/>
    </contour>
    <contour>
      <point x="236.5" y="-107" type="curve" smooth="yes"/>
      <point x="236.5" y="-78"/>
      <point x="261.5" y="-60"/>
      <point x="291.5" y="-60" type="curve" smooth="yes"/>
      <point x="337.5" y="-60"/>
      <point x="362.5" y="-93"/>
      <point x="362.5" y="-142" type="curve" smooth="yes"/>
      <point x="362.5" y="-217.665"/>
      <point x="303.581" y="-256.153"/>
      <point x="238.5" y="-267" type="curve"/>
      <point x="238.5" y="-237" type="line"/>
      <point x="284.5" y="-223"/>
      <point x="310.5" y="-204"/>
      <point x="310.5" y="-144" type="curve"/>
      <point x="251.5" y="-144" type="line"/>
      <point x="243.5" y="-136"/>
      <point x="236.5" y="-123"/>
    </contour>
  </outline>
</glyph>
<glyph name="uni0220" format="2">
  <advance width="724"/>
  <unicode hex="0220"/>
  <outline>
    <contour>
      <point x="24" y="628" type="line"/>
      <point x="24" y="671" type="line"/>
      <point x="208" y="671" type="line"/>
      <point x="208" y="590" type="line"/>
      <point x="292.682" y="660.647"/>
      <point x="350.55" y="687"/>
      <point x="421" y="687" type="curve" smooth="yes"/>
      <point x="552.616" y="687"/>
      <point x="638" y="605.945"/>
      <point x="638" y="481" type="curve" smooth="yes"/>
      <point x="638" y="-150" type="line" smooth="yes"/>
      <point x="638" y="-160.599"/>
      <point x="648.553" y="-171.152"/>
      <point x="660" y="-172" type="curve" smooth="yes"/>
      <point x="714" y="-176" type="line"/>
      <point x="714" y="-219" type="line"/>
      <point x="463" y="-219" type="line"/>
      <point x="463" y="-176" type="line"/>
      <point x="515" y="-170" type="line" smooth="yes"/>
      <point x="527.039" y="-168.611"/>
      <point x="537" y="-159.103"/>
      <point x="537" y="-149" type="curve" smooth="yes"/>
      <point x="537" y="457" type="line" smooth="yes"/>
      <point x="537" y="545.741"/>
      <point x="475.967" y="604"/>
      <point x="383" y="604" type="curve" smooth="yes"/>
      <point x="323.324" y="604"/>
      <point x="276.171" y="584.869"/>
      <point x="208" y="533" type="curve"/>
      <point x="208" y="69" type="line" smooth="yes"/>
      <point x="208" y="57.0943"/>
      <point x="216.89" y="47.7813"/>
      <point x="229" y="47" type="curve" smooth="yes"/>
      <point x="291" y="43" type="line"/>
      <point x="291" y="0" type="line"/>
      <point x="35" y="0" type="line"/>
      <point x="35" y="43" type="line"/>
      <point x="86" y="47" type="line" smooth="yes"/>
      <point x="98.193" y="47.9563"/>
      <point x="107" y="57.1827"/>
      <point x="107" y="69" type="curve" smooth="yes"/>
      <point x="107" y="604" type="line" smooth="yes"/>
      <point x="107" y="613.36"/>
      <point x="97.7511" y="622.147"/>
      <point x="87" y="623" type="curve" smooth="yes"/>
    </contour>
  </outline>
</glyph>
<glyph name="uni0221" format="2">
  <advance width="626"/>
  <unicode hex="0221"/>
  <outline>
    <contour>
      <point x="32" y="227" type="curve" smooth="yes"/>
      <point x="32" y="385.119"/>
      <point x="130.213" y="494"/>
      <point x="289" y="494" type="curve" smooth="yes"/>
      <point x="321" y="494"/>
      <point x="353" y="488"/>
      <point x="380" y="482" type="curve"/>
      <point x="380" y="665" type="line"/>
      <point x="304" y="665" type="line"/>
      <point x="304" y="698" type="line"/>
      <point x="433" y="737" type="line"/>
      <point x="473" y="737" type="line"/>
      <point x="473" y="166" type="line"/>
      <point x="500.794" y="184.897"/>
      <point x="530.509" y="196"/>
      <point x="569" y="196" type="curve" smooth="yes"/>
      <point x="618" y="196"/>
      <point x="646" y="160"/>
      <point x="646" y="111" type="curve" smooth="yes"/>
      <point x="646" y="28"/>
      <point x="586" y="-13"/>
      <point x="503" y="-13" type="curve" smooth="yes"/>
      <point x="452" y="-13"/>
      <point x="418" y="4"/>
      <point x="401" y="42" type="curve"/>
      <point x="360.146" y="-4"/>
      <point x="329.506" y="-58"/>
      <point x="300" y="-113" type="curve"/>
      <point x="260" y="-99" type="line"/>
      <point x="268.932" y="-61.9948"/>
      <point x="293.593" y="-20.5701"/>
      <point x="314" y="8" type="curve"/>
      <point x="289" y="-4"/>
      <point x="259" y="-14"/>
      <point x="225" y="-14" type="curve" smooth="yes"/>
      <point x="97.0487" y="-14"/>
      <point x="32" y="99.268"/>
    </contour>
    <contour>
      <point x="131" y="242" type="curve" smooth="yes"/>
      <point x="131" y="137.426"/>
      <point x="174.378" y="54"/>
      <point x="277" y="54" type="curve" smooth="yes"/>
      <point x="330" y="54"/>
      <point x="354.941" y="70"/>
      <point x="383" y="95" type="curve"/>
      <point x="380" y="109.524"/>
      <point x="379" y="124.048"/>
      <point x="379" y="156" type="curve" smooth="yes"/>
      <point x="379" y="429" type="line"/>
      <point x="356" y="437"/>
      <point x="326" y="444"/>
      <point x="296" y="444" type="curve" smooth="yes"/>
      <point x="183.865" y="444"/>
      <point x="131" y="354.173"/>
    </contour>
    <contour>
      <point x="472" y="121" type="curve"/>
      <point x="472" y="74.5697"/>
      <point x="482.589" y="25"/>
      <point x="529" y="25" type="curve" smooth="yes"/>
      <point x="571.002" y="25"/>
      <point x="602" y="64.2855"/>
      <point x="602" y="106" type="curve" smooth="yes"/>
      <point x="602" y="137"/>
      <point x="590" y="149"/>
      <point x="559" y="149" type="curve" smooth="yes"/>
      <point x="523" y="149"/>
      <point x="496" y="136"/>
    </contour>
  </outline>
</glyph>
<glyph name="uni0224" format="2">
  <advance width="575"/>
  <unicode hex="0224"/>
  <outline>
    <contour>
      <point x="38" y="-2" type="line"/>
      <point x="38" y="42" type="line"/>
      <point x="410" y="619" type="line"/>
      <point x="150" y="619" type="line" smooth="yes"/>
      <point x="141.598" y="619"/>
      <point x="134.616" y="612.017"/>
      <point x="133" y="602" type="curve" smooth="yes"/>
      <point x="118" y="509" type="line"/>
      <point x="59" y="509" type="line"/>
      <point x="59" y="669" type="line"/>
      <point x="530" y="669" type="line"/>
      <point x="530" y="623" type="line"/>
      <point x="157" y="49" type="line"/>
      <point x="526" y="49" type="line"/>
      <point x="533.934" y="34.123"/>
      <point x="538" y="16.1667"/>
      <point x="538" y="-4" type="curve" smooth="yes"/>
      <point x="538" y="-60.5365"/>
      <point x="511.48" y="-112.25"/>
      <point x="458" y="-160" type="curve"/>
      <point x="425" y="-160" type="line"/>
      <point x="448.338" y="-133.243"/>
      <point x="461" y="-95.609"/>
      <point x="461" y="-53" type="curve" smooth="yes"/>
      <point x="461" y="-31.5"/>
      <point x="456.478" y="-12.2826"/>
      <point x="449" y="-2" type="curve"/>
    </contour>
  </outline>
</glyph>
<glyph name="uni022B" format="2">
  <advance width="543"/>
  <unicode hex="022B"/>
  <outline>
    <contour>
      <point x="34" y="240" type="curve" smooth="yes"/>
      <point x="34" y="381"/>
      <point x="133" y="495"/>
      <point x="273" y="495" type="curve" smooth="yes"/>
      <point x="413" y="495"/>
      <point x="509" y="381"/>
      <point x="509" y="240" type="curve" smooth="yes"/>
      <point x="509" y="100"/>
      <point x="410" y="-13"/>
      <point x="270" y="-13" type="curve" smooth="yes"/>
      <point x="130" y="-13"/>
      <point x="34" y="100"/>
    </contour>
    <contour>
      <point x="138" y="240" type="curve" smooth="yes"/>
      <point x="138" y="150"/>
      <point x="172" y="34"/>
      <point x="272" y="34" type="curve" smooth="yes"/>
      <point x="372" y="34"/>
      <point x="406" y="150"/>
      <point x="406" y="240" type="curve" smooth="yes"/>
      <point x="406" y="330"/>
      <point x="373" y="450"/>
      <point x="273" y="450" type="curve" smooth="yes"/>
      <point x="173" y="450"/>
      <point x="138" y="330"/>
    </contour>
    <contour>
      <point x="115" y="610" type="curve" smooth="yes"/>
      <point x="115" y="641"/>
      <point x="139" y="666"/>
      <point x="170" y="666" type="curve" smooth="yes"/>
      <point x="201" y="666"/>
      <point x="224" y="641"/>
      <point x="224" y="611" type="curve" smooth="yes"/>
      <point x="224" y="580"/>
      <point x="201" y="555"/>
      <point x="170" y="555" type="curve" smooth="yes"/>
      <point x="139" y="555"/>
      <point x="115" y="579"/>
    </contour>
    <contour>
      <point x="322" y="611" type="curve" smooth="yes"/>
      <point x="322" y="641"/>
      <point x="348" y="666"/>
      <point x="378" y="666" type="curve" smooth="yes"/>
      <point x="408" y="666"/>
      <point x="431" y="642"/>
      <point x="431" y="611" type="curve" smooth="yes"/>
      <point x="431" y="580"/>
      <point x="409" y="555"/>
      <point x="378" y="555" type="curve" smooth="yes"/>
      <point x="346" y="555"/>
      <point x="322" y="579"/>
    </contour>
    <contour>
      <point x="106.5" y="726" type="line"/>
      <point x="106.5" y="789" type="line"/>
      <point x="441.5" y="789" type="line"/>
      <point x="441.5" y="726" type="line"/>
    </contour>
  </outline>
</glyph>
<glyph name="uni0234" format="2">
  <advance width="373"/>
  <unicode hex="0234"/>
  <outline>
    <contour>
      <point x="-20" y="-90" type="line"/>
      <point x="8.21062" y="-21.3541"/>
      <point x="49.6138" y="43.2751"/>
      <point x="103" y="102" type="curve"/>
      <point x="103" y="664" type="line"/>
      <point x="27" y="664" type="line"/>
      <point x="27" y="697" type="line"/>
      <point x="155" y="736" type="line"/>
      <point x="196" y="736" type="line"/>
      <point x="196" y="174" type="line"/>
      <point x="232.553" y="191.077"/>
      <point x="259.379" y="198"/>
      <point x="289" y="198" type="curve" smooth="yes"/>
      <point x="340.227" y="198"/>
      <point x="373" y="167.958"/>
      <point x="373" y="121" type="curve" smooth="yes"/>
      <point x="373" y="42.0861"/>
      <point x="316.019" y="-9"/>
      <point x="228" y="-9" type="curve" smooth="yes"/>
      <point x="171.333" y="-9"/>
      <point x="132.791" y="10.4419"/>
      <point x="115" y="48" type="curve"/>
      <point x="80.063" y="5.29921"/>
      <point x="45.7218" y="-52.3054"/>
      <point x="22" y="-108" type="curve"/>
    </contour>
    <contour>
      <point x="197" y="126" type="curve"/>
      <point x="202.737" y="64.3301"/>
      <point x="218.295" y="38"/>
      <point x="249" y="38" type="curve" smooth="yes"/>
      <point x="290.041" y="38"/>
      <point x="327" y="73.5377"/>
      <point x="327" y="113" type="curve" smooth="yes"/>
      <point x="327" y="142.659"/>
      <point x="313.349" y="156"/>
      <point x="283" y="156" type="curve" smooth="yes"/>
      <point x="253.345" y="156"/>
      <point x="226.655" y="146.69"/>
    </contour>
  </outline>
</glyph>
<glyph name="uni0235" format="2">
  <advance width="648"/>
  <unicode hex="0235"/>
  <outline>
    <contour>
      <point x="21" y="411" type="line"/>
      <point x="21" y="444" type="line"/>
      <point x="144" y="482" type="line"/>
      <point x="184" y="482" type="line"/>
      <point x="184" y="432" type="line"/>
      <point x="251.961" y="475.442"/>
      <point x="301.049" y="494"/>
      <point x="348" y="494" type="curve" smooth="yes"/>
      <point x="433.461" y="494"/>
      <point x="482" y="438.216"/>
      <point x="482" y="340" type="curve" smooth="yes"/>
      <point x="482" y="165" type="line"/>
      <point x="515.587" y="180.755"/>
      <point x="546.143" y="188"/>
      <point x="579" y="188" type="curve" smooth="yes"/>
      <point x="629.559" y="188"/>
      <point x="661" y="157.709"/>
      <point x="661" y="109" type="curve" smooth="yes"/>
      <point x="661" y="38.2011"/>
      <point x="603" y="-9"/>
      <point x="516" y="-9" type="curve" smooth="yes"/>
      <point x="462.304" y="-9"/>
      <point x="424.108" y="6.82899"/>
      <point x="405" y="37" type="curve"/>
      <point x="367.773" y="-8.6328"/>
      <point x="334.685" y="-63.0682"/>
      <point x="312" y="-116" type="curve"/>
      <point x="268" y="-99" type="line"/>
      <point x="298.068" y="-27.0972"/>
      <point x="350.154" y="56.1535"/>
      <point x="390" y="96" type="curve"/>
      <point x="390" y="323" type="line" smooth="yes"/>
      <point x="390" y="389.691"/>
      <point x="358.343" y="422"/>
      <point x="293" y="422" type="curve" smooth="yes"/>
      <point x="259.25" y="422"/>
      <point x="222.382" y="411.853"/>
      <point x="184" y="392" type="curve"/>
      <point x="184" y="64" type="line" smooth="yes"/>
      <point x="184" y="52.8858"/>
      <point x="193.031" y="43.8549"/>
      <point x="205" y="43" type="curve" smooth="yes"/>
      <point x="247" y="40" type="line"/>
      <point x="247" y="1" type="line"/>
      <point x="22" y="1" type="line"/>
      <point x="22" y="40" type="line"/>
      <point x="70" y="43" type="line" smooth="yes"/>
      <point x="81.9097" y="43.7444"/>
      <point x="91" y="52.8346"/>
      <point x="91" y="64" type="curve" smooth="yes"/>
      <point x="91" y="411" type="line"/>
    </contour>
    <contour>
      <point x="483" y="114" type="curve"/>
      <point x="483" y="66.9038"/>
      <point x="505.184" y="33"/>
      <point x="536" y="33" type="curve" smooth="yes"/>
      <point x="583.701" y="33"/>
      <point x="615" y="59.5443"/>
      <point x="615" y="100" type="curve" smooth="yes"/>
      <point x="615" y="125.5"/>
      <point x="597.5" y="143"/>
      <point x="572" y="143" type="curve" smooth="yes"/>
      <point x="543.483" y="143"/>
      <point x="514.061" y="133.413"/>
    </contour>
  </outline>
</glyph>
<glyph name="uni0238" format="2">
  <advance width="846"/>
  <unicode hex="0238"/>
  <outline>
    <contour>
      <point x="33" y="228" type="curve" smooth="yes"/>
      <point x="33" y="388.751"/>
      <point x="133.896" y="494"/>
      <point x="288" y="494" type="curve" smooth="yes"/>
      <point x="314.25" y="494"/>
      <point x="344.654" y="490.077"/>
      <point x="381" y="482" type="curve"/>
      <point x="381" y="665" type="line"/>
      <point x="305" y="665" type="line"/>
      <point x="305" y="698" type="line"/>
      <point x="433" y="737" type="line"/>
      <point x="473" y="737" type="line"/>
      <point x="473" y="458" type="line"/>
      <point x="533.133" y="484.902"/>
      <point x="570.797" y="495"/>
      <point x="611" y="495" type="curve" smooth="yes"/>
      <point x="734.793" y="495"/>
      <point x="811" y="407.362"/>
      <point x="811" y="265" type="curve" smooth="yes"/>
      <point x="811" y="94.9459"/>
      <point x="709.225" y="1"/>
      <point x="525" y="1" type="curve" smooth="yes"/>
      <point x="381" y="1" type="line"/>
      <point x="381" y="54" type="line"/>
      <point x="318.85" y="6.91676"/>
      <point x="274.138" y="-12"/>
      <point x="225" y="-12" type="curve" smooth="yes"/>
      <point x="109.875" y="-12"/>
      <point x="33" y="84.094"/>
    </contour>
    <contour>
      <point x="132" y="246" type="curve" smooth="yes"/>
      <point x="132" y="126.225"/>
      <point x="184.62" y="58"/>
      <point x="277" y="58" type="curve" smooth="yes"/>
      <point x="309.514" y="58"/>
      <point x="338.672" y="67.9079"/>
      <point x="380" y="93" type="curve"/>
      <point x="380" y="433" type="line"/>
      <point x="350.563" y="442.813"/>
      <point x="321.167" y="448"/>
      <point x="295" y="448" type="curve" smooth="yes"/>
      <point x="194.255" y="448"/>
      <point x="132" y="370.849"/>
    </contour>
    <contour>
      <point x="473" y="50" type="line"/>
      <point x="483.829" y="49.2632"/>
      <point x="496.726" y="49"/>
      <point x="522" y="49" type="curve" smooth="yes"/>
      <point x="650.15" y="49"/>
      <point x="709" y="110.997"/>
      <point x="709" y="246" type="curve" smooth="yes"/>
      <point x="709" y="368.663"/>
      <point x="654.259" y="437"/>
      <point x="556" y="437" type="curve" smooth="yes"/>
      <point x="529.656" y="437"/>
      <point x="500.868" y="431.45"/>
      <point x="473" y="421" type="curve"/>
    </contour>
  </outline>
</glyph>
<glyph name="uni0239" format="2">
  <advance width="840"/>
  <unicode hex="0239"/>
  <outline>
    <contour>
      <point x="34" y="230" type="curve" smooth="yes"/>
      <point x="34" y="397.077"/>
      <point x="140.101" y="494"/>
      <point x="323" y="494" type="curve" smooth="yes"/>
      <point x="366.938" y="494"/>
      <point x="413.764" y="488.724"/>
      <point x="465" y="478" type="curve"/>
      <point x="465" y="432" type="line"/>
      <point x="514.972" y="472.718"/>
      <point x="565.179" y="493"/>
      <point x="616" y="493" type="curve" smooth="yes"/>
      <point x="727.904" y="493"/>
      <point x="806" y="391.887"/>
      <point x="806" y="247" type="curve" smooth="yes"/>
      <point x="806" y="86.465"/>
      <point x="711.036" y="-10"/>
      <point x="553" y="-10" type="curve" smooth="yes"/>
      <point x="520.833" y="-10"/>
      <point x="490.861" y="-6.9691"/>
      <point x="464" y="-1" type="curve"/>
      <point x="464" y="-152" type="line" smooth="yes"/>
      <point x="464" y="-163.467"/>
      <point x="472.2" y="-171.667"/>
      <point x="485" y="-173" type="curve" smooth="yes"/>
      <point x="533" y="-178" type="line"/>
      <point x="533" y="-216" type="line"/>
      <point x="291" y="-216" type="line"/>
      <point x="291" y="-178" type="line"/>
      <point x="350" y="-173" type="line" smooth="yes"/>
      <point x="362.418" y="-171.948"/>
      <point x="371" y="-163.774"/>
      <point x="371" y="-153" type="curve" smooth="yes"/>
      <point x="371" y="28" type="line"/>
      <point x="319.463" y="2.23127"/>
      <point x="274.722" y="-10"/>
      <point x="232" y="-10" type="curve" smooth="yes"/>
      <point x="113.316" y="-10"/>
      <point x="34" y="86.1403"/>
    </contour>
    <contour>
      <point x="135" y="245" type="curve" smooth="yes"/>
      <point x="135" y="136.701"/>
      <point x="178.422" y="47"/>
      <point x="285" y="47" type="curve" smooth="yes"/>
      <point x="313.071" y="47"/>
      <point x="341.932" y="51.6982"/>
      <point x="371" y="61" type="curve"/>
      <point x="371" y="437" type="line"/>
      <point x="345.787" y="444.564"/>
      <point x="324.545" y="448"/>
      <point x="303" y="448" type="curve" smooth="yes"/>
      <point x="196.086" y="448"/>
      <point x="135" y="374.188"/>
    </contour>
    <contour>
      <point x="464" y="50" type="line"/>
      <point x="492.58" y="38.9545"/>
      <point x="517.663" y="34"/>
      <point x="545" y="34" type="curve" smooth="yes"/>
      <point x="643.432" y="34"/>
      <point x="706" y="111.724"/>
      <point x="706" y="234" type="curve" smooth="yes"/>
      <point x="706" y="349.675"/>
      <point x="651.234" y="424"/>
      <point x="566" y="424" type="curve" smooth="yes"/>
      <point x="532.485" y="424"/>
      <point x="496.226" y="413.335"/>
      <point x="464" y="394" type="curve"/>
    </contour>
  </outline>
</glyph>
<glyph name="uni023A" format="2">
  <advance width="673"/>
  <unicode hex="023A"/>
  <outline>
    <contour>
      <point x="5" y="0" type="line"/>
      <point x="5" y="44" type="line"/>
      <point x="63" y="56" type="line"/>
      <point x="296" y="688" type="line"/>
      <point x="371" y="688" type="line"/>
      <point x="603" y="71" type="line" smooth="yes"/>
      <point x="607.367" y="59.386"/>
      <point x="612.82" y="52.9876"/>
      <point x="624" y="51" type="curve" smooth="yes"/>
      <point x="669" y="43" type="line"/>
      <point x="669" y="0" type="line"/>
      <point x="431" y="0" type="line"/>
      <point x="431" y="44" type="line"/>
      <point x="489" y="49" type="line" smooth="yes"/>
      <point x="494.041" y="49.4346"/>
      <point x="499.458" y="57.077"/>
      <point x="499.458" y="63" type="curve"/>
      <point x="499.458" y="64.0743"/>
      <point x="499.342" y="65.0921"/>
      <point x="499" y="66" type="curve"/>
      <point x="430" y="249" type="line"/>
      <point x="199" y="249" type="line"/>
      <point x="133" y="69" type="line"/>
      <point x="132.36" y="67.2552"/>
      <point x="132.065" y="65.5773"/>
      <point x="132.065" y="64" type="curve"/>
      <point x="132.065" y="57.5406"/>
      <point x="136.943" y="52.7691"/>
      <point x="143" y="52" type="curve" smooth="yes"/>
      <point x="206" y="44" type="line"/>
      <point x="206" y="0" type="line"/>
    </contour>
    <contour>
      <point x="79" y="-50" type="line"/>
      <point x="554" y="749" type="line"/>
      <point x="601" y="721" type="line"/>
      <point x="125" y="-78" type="line"/>
    </contour>
    <contour>
      <point x="217" y="297" type="line"/>
      <point x="412" y="297" type="line"/>
      <point x="314" y="559" type="line"/>
    </contour>
  </outline>
</glyph>
<glyph name="uni0240" format="2">
  <advance width="461"/>
  <unicode hex="0240"/>
  <outline>
    <contour>
      <point x="33" y="-1" type="line"/>
      <point x="33" y="52" type="line"/>
      <point x="298" y="434" type="line"/>
      <point x="124" y="434" type="line" smooth="yes"/>
      <point x="114" y="434"/>
      <point x="105.212" y="421.971"/>
      <point x="104" y="413" type="curve" smooth="yes"/>
      <point x="94" y="339" type="line"/>
      <point x="43" y="339" type="line"/>
      <point x="43" y="481" type="line"/>
      <point x="413" y="481" type="line"/>
      <point x="413" y="440" type="line"/>
      <point x="139" y="47" type="line"/>
      <point x="188.011" y="30.663"/>
      <point x="236.383" y="-48.0645"/>
      <point x="260.987" y="-90.5952" type="curve" smooth="yes"/>
      <point x="278.248" y="-120.434"/>
      <point x="313" y="-157"/>
      <point x="339" y="-174" type="curve"/>
      <point x="418" y="-112" type="line"/>
      <point x="439" y="-120"/>
      <point x="456" y="-136"/>
      <point x="456" y="-167" type="curve" smooth="yes"/>
      <point x="456" y="-208"/>
      <point x="417.525" y="-229"/>
      <point x="375" y="-229" type="curve" smooth="yes"/>
      <point x="288.324" y="-229"/>
      <point x="229.376" y="-156.433"/>
      <point x="190.874" y="-104.228" type="curve" smooth="yes"/>
      <point x="166.438" y="-71.0951"/>
      <point x="114.278" y="-1"/>
      <point x="63" y="-1" type="curve" smooth="yes"/>
    </contour>
  </outline>
</glyph>
<glyph name="uni0242" format="2">
  <advance width="387"/>
  <unicode hex="0242"/>
  <outline>
    <contour>
      <point x="34" y="405" type="curve" smooth="yes"/>
      <point x="34" y="464.675"/>
      <point x="107.624" y="495"/>
      <point x="171" y="495" type="curve" smooth="yes"/>
      <point x="277" y="495"/>
      <point x="353" y="453"/>
      <point x="353" y="349" type="curve" smooth="yes"/>
      <point x="353" y="263"/>
      <point x="298" y="232"/>
      <point x="234" y="209" type="curve"/>
      <point x="234" y="59" type="line" smooth="yes"/>
      <point x="234" y="50"/>
      <point x="243.028" y="43.469"/>
      <point x="251" y="43" type="curve" smooth="yes"/>
      <point x="302" y="40" type="line"/>
      <point x="302" y="1" type="line"/>
      <point x="74" y="1" type="line"/>
      <point x="74" y="40" type="line"/>
      <point x="125" y="43" type="line" smooth="yes"/>
      <point x="132.972" y="43.469"/>
      <point x="142" y="50"/>
      <point x="142" y="59" type="curve" smooth="yes"/>
      <point x="142" y="222" type="line"/>
      <point x="205" y="237"/>
      <point x="257" y="271"/>
      <point x="257" y="348" type="curve" smooth="yes"/>
      <point x="257" y="407"/>
      <point x="229" y="452"/>
      <point x="172" y="452" type="curve" smooth="yes"/>
      <point x="160" y="452"/>
      <point x="146" y="449"/>
      <point x="138" y="444" type="curve"/>
      <point x="106" y="361" type="line"/>
      <point x="103.258" y="358.944"/>
      <point x="93.54" y="357"/>
      <point x="86" y="357" type="curve" smooth="yes"/>
      <point x="58.6316" y="357"/>
      <point x="34" y="375"/>
    </contour>
  </outline>
</glyph>
<glyph name="uni0252" format="2">
  <advance width="563"/>
  <unicode hex="0252"/>
  <outline>
    <contour>
      <point x="24" y="442" type="line"/>
      <point x="24" y="480" type="line"/>
      <point x="181" y="480" type="line"/>
      <point x="181" y="427" type="line"/>
      <point x="243.679" y="474.484"/>
      <point x="287.444" y="493"/>
      <point x="337" y="493" type="curve" smooth="yes"/>
      <point x="452.938" y="493"/>
      <point x="530" y="398.369"/>
      <point x="530" y="256" type="curve" smooth="yes"/>
      <point x="530" y="94.2134"/>
      <point x="427.798" y="-14"/>
      <point x="275" y="-14" type="curve" smooth="yes"/>
      <point x="243.5" y="-14"/>
      <point x="205.654" y="0.980769"/>
      <point x="179" y="24" type="curve"/>
      <point x="118" y="-14" type="line"/>
      <point x="88" y="-14" type="line"/>
      <point x="88" y="417" type="line" smooth="yes"/>
      <point x="88" y="426.954"/>
      <point x="77.5835" y="436.897"/>
      <point x="66" y="438" type="curve" smooth="yes"/>
    </contour>
    <contour>
      <point x="181" y="78" type="line"/>
      <point x="203.849" y="52.6123"/>
      <point x="240.302" y="35"/>
      <point x="270" y="35" type="curve" smooth="yes"/>
      <point x="369.217" y="35"/>
      <point x="430" y="112.499"/>
      <point x="430" y="239" type="curve" smooth="yes"/>
      <point x="430" y="353.609"/>
      <point x="374.828" y="424"/>
      <point x="285" y="424" type="curve" smooth="yes"/>
      <point x="253.864" y="424"/>
      <point x="219.056" y="412.955"/>
      <point x="181" y="391" type="curve"/>
    </contour>
  </outline>
</glyph>
<glyph name="uni0253" format="2">
  <advance width="541"/>
  <unicode hex="0253"/>
  <outline>
    <contour>
      <point x="77" y="0" type="line"/>
      <point x="77" y="461" type="line" smooth="yes"/>
      <point x="77" y="641.67"/>
      <point x="153.836" y="736"/>
      <point x="301" y="736" type="curve" smooth="yes"/>
      <point x="363.607" y="736"/>
      <point x="401" y="712.068"/>
      <point x="401" y="672" type="curve" smooth="yes"/>
      <point x="401" y="643.481"/>
      <point x="380.033" y="620.932"/>
      <point x="348" y="615" type="curve"/>
      <point x="282" y="686" type="line"/>
      <point x="214.1" y="686"/>
      <point x="171" y="625.815"/>
      <point x="171" y="531" type="curve" smooth="yes"/>
      <point x="171" y="455" type="line"/>
      <point x="219.909" y="480.928"/>
      <point x="263.749" y="493"/>
      <point x="309" y="493" type="curve" smooth="yes"/>
      <point x="430.227" y="493"/>
      <point x="506" y="404.534"/>
      <point x="506" y="263" type="curve" smooth="yes"/>
      <point x="506" y="93.3781"/>
      <point x="403.746" y="0"/>
      <point x="218" y="0" type="curve" smooth="yes"/>
    </contour>
    <contour>
      <point x="171" y="48" type="line"/>
      <point x="222" y="48" type="line" smooth="yes"/>
      <point x="348.167" y="48"/>
      <point x="407" y="110.014"/>
      <point x="407" y="243" type="curve" smooth="yes"/>
      <point x="407" y="366.006"/>
      <point x="352.7" y="433"/>
      <point x="253" y="433" type="curve" smooth="yes"/>
      <point x="229" y="433"/>
      <point x="201.667" y="428.333"/>
      <point x="171" y="419" type="curve"/>
    </contour>
  </outline>
</glyph>
<glyph name="uni025E" format="2">
  <advance width="496"/>
  <unicode hex="025E"/>
  <outline>
    <contour>
      <point x="32" y="252" type="curve" smooth="yes"/>
      <point x="32" y="396.048"/>
      <point x="120.906" y="493"/>
      <point x="253" y="493" type="curve" smooth="yes"/>
      <point x="359.457" y="493"/>
      <point x="436" y="438.207"/>
      <point x="436" y="362" type="curve" smooth="yes"/>
      <point x="436" y="300.824"/>
      <point x="393.898" y="252.367"/>
      <point x="330" y="240" type="curve"/>
      <point x="327" y="246" type="line"/>
      <point x="405.396" y="244.903"/>
      <point x="460" y="199.331"/>
      <point x="460" y="135" type="curve" smooth="yes"/>
      <point x="460" y="38.2464"/>
      <point x="389.245" y="-12"/>
      <point x="253" y="-12" type="curve" smooth="yes"/>
      <point x="125.137" y="-12"/>
      <point x="32" y="99.2583"/>
    </contour>
    <contour>
      <point x="95" y="253" type="curve" smooth="yes"/>
      <point x="95" y="127.047"/>
      <point x="161.702" y="37"/>
      <point x="255" y="37" type="curve" smooth="yes"/>
      <point x="319.24" y="37"/>
      <point x="365" y="78.1839"/>
      <point x="365" y="136" type="curve" smooth="yes"/>
      <point x="365" y="190.922"/>
      <point x="333.025" y="216"/>
      <point x="263" y="216" type="curve" smooth="yes"/>
      <point x="232" y="216" type="line"/>
      <point x="232" y="259" type="line"/>
      <point x="236" y="259" type="line" smooth="yes"/>
      <point x="305.606" y="259"/>
      <point x="342" y="294.707"/>
      <point x="342" y="363" type="curve" smooth="yes"/>
      <point x="342" y="416.091"/>
      <point x="306.321" y="453"/>
      <point x="255" y="453" type="curve" smooth="yes"/>
      <point x="159.414" y="453"/>
      <point x="95" y="372.483"/>
    </contour>
  </outline>
</glyph>
<glyph name="uni0261" format="2">
  <advance width="553"/>
  <unicode hex="0261"/>
  <outline>
    <contour>
      <point x="33" y="229" type="curve" smooth="yes"/>
      <point x="33" y="388.399"/>
      <point x="134.556" y="496"/>
      <point x="285" y="496" type="curve" smooth="yes"/>
      <point x="317.872" y="496"/>
      <point x="349.773" y="483.305"/>
      <point x="383" y="457" type="curve"/>
      <point x="445" y="496" type="line"/>
      <point x="475" y="496" type="line"/>
      <point x="475" y="4" type="line" smooth="yes"/>
      <point x="475" y="-127.294"/>
      <point x="382.631" y="-227"/>
      <point x="261" y="-227" type="curve" smooth="yes"/>
      <point x="136.823" y="-227"/>
      <point x="82" y="-197.598"/>
      <point x="82" y="-131" type="curve" smooth="yes"/>
      <point x="82" y="-98.1111"/>
      <point x="104.842" y="-74"/>
      <point x="136" y="-74" type="curve" smooth="yes"/>
      <point x="144.5" y="-74"/>
      <point x="151.286" y="-75.3571"/>
      <point x="161" y="-79" type="curve"/>
      <point x="194" y="-163" type="line"/>
      <point x="203.354" y="-172.354"/>
      <point x="223.929" y="-177"/>
      <point x="256" y="-177" type="curve" smooth="yes"/>
      <point x="328.88" y="-177"/>
      <point x="382" y="-101.115"/>
      <point x="382" y="3" type="curve" smooth="yes"/>
      <point x="382" y="54" type="line"/>
      <point x="319.85" y="6.91676"/>
      <point x="275.138" y="-12"/>
      <point x="226" y="-12" type="curve" smooth="yes"/>
      <point x="110.879" y="-12"/>
      <point x="33" y="85.2473"/>
    </contour>
    <contour>
      <point x="133" y="245" type="curve" smooth="yes"/>
      <point x="133" y="127.212"/>
      <point x="187.153" y="57"/>
      <point x="278" y="57" type="curve" smooth="yes"/>
      <point x="311.178" y="57"/>
      <point x="342.292" y="67.5729"/>
      <point x="381" y="92" type="curve"/>
      <point x="381" y="404" type="line"/>
      <point x="359.785" y="428.043"/>
      <point x="320.99" y="447"/>
      <point x="293" y="447" type="curve" smooth="yes"/>
      <point x="192.49" y="447"/>
      <point x="133" y="371.894"/>
    </contour>
  </outline>
</glyph>
<glyph name="uni0263" format="2">
  <advance width="580"/>
  <unicode hex="0263"/>
  <outline>
    <contour>
      <point x="10" y="443" type="line"/>
      <point x="10" y="482" type="line"/>
      <point x="239" y="482" type="line"/>
      <point x="239" y="443" type="line"/>
      <point x="190" y="439" type="line" smooth="yes"/>
      <point x="179.97" y="438.181"/>
      <point x="174.357" y="434.234"/>
      <point x="174.357" y="428" type="curve" smooth="yes"/>
      <point x="174.357" y="425.785"/>
      <point x="174.909" y="423.432"/>
      <point x="176" y="421" type="curve" smooth="yes"/>
      <point x="307" y="129" type="line"/>
      <point x="448" y="421" type="line" smooth="yes"/>
      <point x="449.372" y="423.842"/>
      <point x="450.08" y="426.564"/>
      <point x="450.08" y="429" type="curve" smooth="yes"/>
      <point x="450.08" y="434.809"/>
      <point x="445.767" y="438.379"/>
      <point x="438" y="439" type="curve" smooth="yes"/>
      <point x="388" y="443" type="line"/>
      <point x="388" y="482" type="line"/>
      <point x="570" y="482" type="line"/>
      <point x="570" y="443" type="line"/>
      <point x="511" y="436" type="line"/>
      <point x="334" y="67" type="line"/>
      <point x="396" y="-73" type="line" smooth="yes"/>
      <point x="404.399" y="-91.9662"/>
      <point x="408" y="-106.669"/>
      <point x="408" y="-122" type="curve" smooth="yes"/>
      <point x="408" y="-181.257"/>
      <point x="359.365" y="-229"/>
      <point x="299" y="-229" type="curve" smooth="yes"/>
      <point x="235.514" y="-229"/>
      <point x="194" y="-189.068"/>
      <point x="194" y="-128" type="curve" smooth="yes"/>
      <point x="194" y="-113.264"/>
      <point x="197.058" y="-99.3317"/>
      <point x="203" y="-87" type="curve" smooth="yes"/>
      <point x="256" y="23" type="line"/>
      <point x="71" y="437" type="line"/>
    </contour>
    <contour>
      <point x="249" y="-132" type="curve" smooth="yes"/>
      <point x="249" y="-151.713"/>
      <point x="265.844" y="-170"/>
      <point x="284" y="-170" type="curve" smooth="yes"/>
      <point x="304.396" y="-170"/>
      <point x="317" y="-152.813"/>
      <point x="317" y="-125" type="curve" smooth="yes"/>
      <point x="317" y="-113.884"/>
      <point x="308.184" y="-87.4358"/>
      <point x="298" y="-68" type="curve"/>
      <point x="284" y="-38" type="line"/>
      <point x="253" y="-102" type="line" smooth="yes"/>
      <point x="250.193" y="-107.795"/>
      <point x="249" y="-116.742"/>
    </contour>
  </outline>
</glyph>
<glyph name="uni026C" format="2">
  <advance width="333"/>
  <unicode hex="026C"/>
  <outline>
    <contour>
      <point x="-14" y="382" type="curve" smooth="yes"/>
      <point x="-14" y="439"/>
      <point x="27" y="479"/>
      <point x="82" y="479" type="curve" smooth="yes"/>
      <point x="109.261" y="479"/>
      <point x="129.348" y="475"/>
      <point x="148" y="468" type="curve"/>
      <point x="148" y="419" type="line"/>
      <point x="134.909" y="431.278"/>
      <point x="113.091" y="436"/>
      <point x="84" y="436" type="curve" smooth="yes"/>
      <point x="54" y="436"/>
      <point x="35" y="413"/>
      <point x="35" y="384" type="curve" smooth="yes"/>
      <point x="35" y="330"/>
      <point x="90" y="308"/>
      <point x="148" y="308" type="curve"/>
      <point x="148" y="265" type="line"/>
      <point x="65" y="265"/>
      <point x="-14" y="305.436"/>
    </contour>
    <contour>
      <point x="52" y="665" type="line"/>
      <point x="52" y="698" type="line"/>
      <point x="180" y="737" type="line"/>
      <point x="221" y="737" type="line"/>
      <point x="221" y="63" type="line" smooth="yes"/>
      <point x="221" y="54"/>
      <point x="233" y="42"/>
      <point x="242" y="42" type="curve"/>
      <point x="296" y="39" type="line"/>
      <point x="296" y="0" type="line"/>
      <point x="53" y="0" type="line"/>
      <point x="53" y="39" type="line"/>
      <point x="106" y="42" type="line"/>
      <point x="115" y="42"/>
      <point x="128" y="54"/>
      <point x="128" y="63" type="curve" smooth="yes"/>
      <point x="128" y="665" type="line"/>
    </contour>
    <contour>
      <point x="202" y="264" type="curve"/>
      <point x="202" y="306" type="line"/>
      <point x="249.864" y="312.226"/>
      <point x="282" y="335.057"/>
      <point x="309" y="361" type="curve"/>
      <point x="333" y="331" type="line"/>
      <point x="299.955" y="302.138"/>
      <point x="255.108" y="272.246"/>
    </contour>
  </outline>
</glyph>
<glyph name="uni026D" format="2">
  <advance width="296"/>
  <unicode hex="026D"/>
  <outline>
    <contour>
      <point x="26" y="666" type="line"/>
      <point x="26" y="699" type="line"/>
      <point x="154" y="738" type="line"/>
      <point x="194" y="738" type="line"/>
      <point x="194" y="-6" type="line" smooth="yes"/>
      <point x="194" y="-72.223"/>
      <point x="211" y="-144"/>
      <point x="242" y="-183" type="curve"/>
      <point x="326" y="-103" type="line"/>
      <point x="348" y="-113"/>
      <point x="368" y="-129"/>
      <point x="368" y="-161" type="curve" smooth="yes"/>
      <point x="368" y="-202.072"/>
      <point x="313.414" y="-228"/>
      <point x="272" y="-228" type="curve" smooth="yes"/>
      <point x="139" y="-228"/>
      <point x="102" y="-130"/>
      <point x="102" y="3" type="curve" smooth="yes"/>
      <point x="102" y="666" type="line"/>
    </contour>
  </outline>
</glyph>
<glyph name="uni0270" format="2">
  <advance width="850"/>
  <unicode hex="0270"/>
  <outline>
    <contour>
      <point x="21" y="442" type="line"/>
      <point x="21" y="481" type="line"/>
      <point x="245" y="481" type="line"/>
      <point x="245" y="442" type="line"/>
      <point x="204" y="439" type="line" smooth="yes"/>
      <point x="192.019" y="438.123"/>
      <point x="183" y="429.104"/>
      <point x="183" y="418" type="curve" smooth="yes"/>
      <point x="183" y="163" type="line" smooth="yes"/>
      <point x="183" y="94.3258"/>
      <point x="212.078" y="61"/>
      <point x="272" y="61" type="curve" smooth="yes"/>
      <point x="305" y="61"/>
      <point x="338.125" y="69.75"/>
      <point x="378" y="89" type="curve"/>
      <point x="378" y="418" type="line" smooth="yes"/>
      <point x="378" y="429.114"/>
      <point x="368.969" y="438.145"/>
      <point x="357" y="439" type="curve" smooth="yes"/>
      <point x="315" y="442" type="line"/>
      <point x="315" y="481" type="line"/>
      <point x="534" y="481" type="line"/>
      <point x="534" y="442" type="line"/>
      <point x="492" y="439" type="line" smooth="yes"/>
      <point x="480.031" y="438.145"/>
      <point x="471" y="429.114"/>
      <point x="471" y="418" type="curve" smooth="yes"/>
      <point x="471" y="157" type="line" smooth="yes"/>
      <point x="471" y="94.1011"/>
      <point x="501.688" y="61"/>
      <point x="560" y="61" type="curve" smooth="yes"/>
      <point x="595.172" y="61"/>
      <point x="633.496" y="70.6705"/>
      <point x="667" y="88" type="curve"/>
      <point x="667" y="416" type="line" smooth="yes"/>
      <point x="667" y="427.376"/>
      <point x="657.654" y="437.168"/>
      <point x="646" y="438" type="curve" smooth="yes"/>
      <point x="604" y="441" type="line"/>
      <point x="604" y="480" type="line"/>
      <point x="830" y="480" type="line"/>
      <point x="830" y="441" type="line"/>
      <point x="780" y="438" type="line" smooth="yes"/>
      <point x="768.107" y="437.286"/>
      <point x="759" y="428.18"/>
      <point x="759" y="417" type="curve" smooth="yes"/>
      <point x="759" y="-160" type="line"/>
      <point x="829" y="-160" type="line"/>
      <point x="829" y="-193" type="line"/>
      <point x="708" y="-230" type="line"/>
      <point x="667" y="-230" type="line"/>
      <point x="667" y="49" type="line"/>
      <point x="618.535" y="9.9918"/>
      <point x="559.41" y="-12"/>
      <point x="503" y="-12" type="curve" smooth="yes"/>
      <point x="454.295" y="-12"/>
      <point x="413.067" y="14.0986"/>
      <point x="394" y="57" type="curve"/>
      <point x="346.084" y="15.0737"/>
      <point x="277.811" y="-12"/>
      <point x="220" y="-12" type="curve" smooth="yes"/>
      <point x="136.69" y="-12"/>
      <point x="90" y="42.95"/>
      <point x="90" y="141" type="curve" smooth="yes"/>
      <point x="90" y="418" type="line" smooth="yes"/>
      <point x="90" y="429.165"/>
      <point x="80.9097" y="438.256"/>
      <point x="69" y="439" type="curve" smooth="yes"/>
    </contour>
  </outline>
</glyph>
